<svg width="340" height="332" viewBox="0 0 340 332" fill="none" xmlns="http://www.w3.org/2000/svg">
<path d="M252.006 156.739L241.406 137.778C241.119 137.26 240.173 136.982 239.298 137.153C238.571 137.294 237.897 137.802 238.232 138.403L248.511 156.783L244.284 159.273L246.751 160.606L251.599 157.75C252.049 157.486 252.211 157.091 252.01 156.734L252.006 156.739Z" fill="#EBF2FF"/>
<path d="M316.788 146.739C316.137 146.353 315.076 146.353 314.421 146.739L268.323 173.889L270.938 175.168L316.778 148.135C317.433 147.749 317.438 147.124 316.788 146.739Z" fill="#EBF2FF"/>
<path d="M329.055 189.739L297.042 183.406C296.44 183.288 295.78 183.381 295.326 183.645L290.358 186.428L292.591 188.045L296.946 185.476L327.984 191.614C328.706 191.756 329.763 191.59 330.102 190.989C330.399 190.472 329.925 189.91 329.05 189.739H329.055Z" fill="#EBF2FF"/>
<path d="M87.8044 308.961L106.469 297.954V295.166L84.7159 307.994C84.2665 308.257 84.1087 308.648 84.3095 309.005L94.9089 327.966C95.2005 328.483 96.1423 328.766 97.022 328.591C97.7392 328.449 98.4276 327.946 98.0882 327.341L87.8092 308.961H87.8044Z" fill="#EBF2FF"/>
<path d="M59.3717 268.47L39.3587 280.272L8.32558 274.134C7.60366 273.988 6.54229 274.159 6.20762 274.759C5.9112 275.277 6.38452 275.838 7.25465 276.009L39.2678 282.343C39.8703 282.465 40.53 282.372 40.9794 282.103L61.9104 269.764L59.3765 268.47H59.3717Z" fill="#EBF2FF"/>
<path d="M84.0316 282.753L22.214 319.205C21.559 319.591 21.5542 320.221 22.2044 320.607C22.8546 320.992 23.9112 320.992 24.571 320.607L85.9487 284.413L84.0316 282.758V282.753Z" fill="#EBF2FF"/>
<path d="M337.039 192.791C334.964 194.012 331.618 194.012 329.543 192.791C327.487 191.57 327.506 189.583 329.581 188.362C331.656 187.141 335.003 187.141 337.058 188.362C339.114 189.583 339.114 191.57 337.039 192.791Z" fill="#DE0099"/>
<path d="M323.098 147.207C321.023 148.428 317.676 148.428 315.601 147.207C313.545 145.986 313.565 143.999 315.64 142.778C317.714 141.557 321.061 141.557 323.117 142.778C325.173 143.999 325.173 145.986 323.098 147.207Z" fill="#FF6161"/>
<path d="M242.558 138.007C240.483 139.228 237.137 139.228 235.062 138.007C233.006 136.787 233.025 134.799 235.1 133.578C237.175 132.358 240.522 132.358 242.577 133.578C244.633 134.799 244.633 136.787 242.558 138.007Z" fill="#4F575F"/>
<path d="M100.841 330.514C98.7665 331.735 95.4198 331.735 93.3449 330.514C91.2891 329.294 91.3082 327.306 93.3832 326.086C95.4581 324.865 98.8048 324.865 100.861 326.086C102.916 327.306 102.916 329.294 100.841 330.514Z" fill="#DE0099"/>
<path d="M27.8317 321.574C25.7567 322.794 22.4101 322.794 20.3352 321.574C18.2793 320.353 18.2985 318.365 20.3734 317.145C22.4483 315.924 25.795 315.924 27.8508 317.145C29.9066 318.365 29.9066 320.353 27.8317 321.574Z" fill="#FF6161"/>
<path d="M10.4337 277.044C8.35879 278.265 5.01213 278.265 2.9372 277.044C0.881397 275.823 0.900521 273.836 2.97545 272.615C5.05038 271.395 8.39704 271.395 10.4528 272.615C12.5087 273.836 12.5087 275.823 10.4337 277.044Z" fill="#4F575F"/>
<path d="M88 156.739L98.5993 137.778C98.8862 137.26 99.8328 136.982 100.708 137.153C101.434 137.294 102.109 137.802 101.774 138.403L91.4948 156.783L95.7212 159.273L93.2542 160.606L88.4064 157.75C87.9569 157.486 87.7944 157.091 87.9952 156.734L88 156.739Z" fill="#EBF2FF"/>
<path d="M23.2181 146.739C23.8683 146.353 24.9297 146.353 25.5846 146.739L71.6825 173.889L69.0673 175.168L23.2276 148.135C22.5727 147.749 22.5679 147.124 23.2181 146.739Z" fill="#EBF2FF"/>
<path d="M10.9455 189.739L42.9587 183.406C43.5611 183.288 44.2209 183.381 44.6751 183.645L49.6425 186.428L47.4098 188.045L43.0543 185.476L12.0165 191.614C11.2945 191.756 10.2379 191.59 9.8985 190.989C9.60208 190.472 10.0754 189.91 10.9503 189.739H10.9455Z" fill="#EBF2FF"/>
<path d="M252.197 308.961L233.532 297.954V295.166L255.286 307.994C255.735 308.257 255.893 308.648 255.692 309.005L245.093 327.966C244.801 328.483 243.859 328.766 242.979 328.591C242.262 328.449 241.574 327.946 241.913 327.341L252.192 308.961H252.197Z" fill="#EBF2FF"/>
<path d="M280.629 268.47L300.642 280.272C332.058 274.286 332.02 273.563 333.392 274.373C334.262 274.886 333.932 275.775 332.746 276.009L300.733 282.343C300.131 282.465 299.471 282.372 299.021 282.103L278.09 269.764L280.624 268.47H280.629Z" fill="#EBF2FF"/>
<path d="M255.974 282.753L317.791 319.205C318.446 319.591 318.451 320.221 317.801 320.607C317.151 320.992 316.094 320.992 315.434 320.607L254.057 284.413L255.974 282.758V282.753Z" fill="#EBF2FF"/>
<path d="M2.96143 192.791C5.03636 194.012 8.38302 194.012 10.4579 192.791C12.5138 191.57 12.4946 189.583 10.4197 188.362C8.34477 187.141 4.99811 187.141 2.9423 188.362C0.886498 189.583 0.886498 191.57 2.96143 192.791Z" fill="#DE0099"/>
<path d="M16.9028 147.207C18.9778 148.428 22.3244 148.428 24.3994 147.207C26.4552 145.986 26.436 143.999 24.3611 142.778C22.2862 141.557 18.9395 141.557 16.8837 142.778C14.8279 143.999 14.8279 145.986 16.9028 147.207Z" fill="#FF6161"/>
<path d="M97.4425 138.007C99.5174 139.228 102.864 139.228 104.939 138.007C106.995 136.787 106.976 134.799 104.901 133.578C102.826 132.358 99.4792 132.358 97.4234 133.578C95.3676 134.799 95.3676 136.787 97.4425 138.007Z" fill="#4F575F"/>
<path d="M239.159 330.514C241.234 331.735 244.581 331.735 246.656 330.514C248.711 329.294 248.692 327.306 246.617 326.086C244.543 324.865 241.196 324.865 239.14 326.086C237.084 327.306 237.084 329.294 239.159 330.514Z" fill="#DE0099"/>
<path d="M312.169 321.574C314.244 322.794 317.591 322.794 319.665 321.574C321.721 320.353 321.702 318.365 319.627 317.145C317.552 315.924 314.206 315.924 312.15 317.145C310.094 318.365 310.094 320.353 312.169 321.574Z" fill="#FF6161"/>
<path d="M329.572 277.044C331.647 278.265 334.993 278.265 337.068 277.044C339.124 275.823 339.105 273.836 337.03 272.615C334.955 271.395 331.608 271.395 329.553 272.615C327.497 273.836 327.497 275.823 329.572 277.044Z" fill="#4F575F"/>
<path d="M156.812 328.483L9.67373 241.695C-3.20135 234.102 -3.19179 217.226 9.5064 209.594L155.755 122.821C163.525 118.148 175.271 118.118 183.232 122.801L330.332 209.53C343.178 217.109 343.24 234.029 330.413 241.666L184.25 328.405C176.337 333.122 164.944 333.249 156.812 328.478V328.483ZM157.175 125.297L10.9263 212.07C0.0640368 218.598 0.107064 232.735 11.0793 239.215L158.213 325.998C165.461 330.246 175.778 330.139 182.83 325.929L328.993 239.19C339.913 232.691 339.932 218.52 328.917 212.021L181.816 125.292C174.511 120.99 164.175 121.087 157.166 125.301L157.175 125.297Z" fill="#EBF2FF"/>
<path d="M323.614 229.756L311.394 237.018L177.456 316.471C173.612 318.785 167.387 318.785 163.543 316.51C126.104 294.433 42.7911 245.309 16.4242 229.761C12.542 227.447 12.542 223.794 16.3477 221.479L162.544 134.765C166.35 132.45 172.575 132.45 176.457 134.765L323.576 221.479C327.458 223.794 327.458 227.447 323.614 229.761V229.756Z" fill="#3E414A"/>
<path d="M311.413 237.017L290.234 249.611H290.2C176.404 317.105 177.485 316.534 177.136 316.627C177.136 316.661 177.102 316.661 177.102 316.661C173.239 318.775 167.268 318.707 163.544 316.519L135.723 300.088L49.9483 249.543L49.8766 249.508L28.5918 236.954C208.016 130.526 151.118 164.273 162.559 157.491C166.35 155.23 172.57 155.23 176.466 157.491C178.976 158.97 308.903 235.547 311.413 237.027V237.017Z" fill="#231F20"/>
<path d="M290.253 218.032C290.253 218.393 290.176 251.701 290.181 249.601C265.234 264.402 179.435 315.303 177.093 316.676C177.093 316.3 177.169 287.074 177.164 287.436C189.408 280.169 137.296 311.094 287.504 221.963C289.325 220.874 290.248 219.462 290.248 218.032H290.253Z" fill="#CBDBF4"/>
<path d="M177.165 287.441C177.165 287.836 177.088 317.042 177.093 316.681C173.225 318.785 167.273 318.712 163.534 316.51L135.719 300.103L49.877 249.489C49.9678 211.298 49.8148 218.076 50.116 219.048C50.116 219.048 50.0969 219.067 50.116 219.067C50.8331 221.123 52.932 222.021 53.2858 222.305L135.719 270.882C155.359 282.45 163.816 287.455 164.51 287.836C167.88 289.457 173.068 289.697 177.165 287.441Z" fill="#EBF2FF"/>
<path d="M177.165 287.441C177.165 287.836 177.088 317.042 177.093 316.681C173.225 318.785 167.273 318.712 163.534 316.51L135.719 300.102V270.882C155.359 282.45 163.816 287.455 164.51 287.836C167.88 289.457 173.067 289.697 177.165 287.441Z" fill="#DBE6FA"/>
<path d="M287.418 214.047C291.123 216.23 291.143 219.775 287.461 221.958L177.112 287.455C173.431 289.638 167.455 289.633 163.75 287.45L52.6882 221.958C48.983 219.775 48.9543 216.235 52.6356 214.052L162.985 148.555C166.666 146.372 172.652 146.372 176.357 148.555L287.418 214.047Z" fill="white"/>
<path d="M164.29 278.026L69.5457 222.158C65.7879 219.946 65.7735 216.074 69.4931 213.862L163.635 157.984C167.077 155.943 172.465 155.943 175.922 157.984L270.666 213.852C274.4 216.054 274.447 219.931 270.709 222.153L176.572 278.031C173.115 280.082 167.722 280.052 164.29 278.026ZM164.519 159.537L70.3776 215.415C67.7959 216.943 67.8724 219.101 70.4206 220.605L165.165 276.473C168.076 278.192 172.795 278.192 175.683 276.478L269.819 220.6C272.363 219.096 272.368 216.928 269.786 215.405L175.042 159.537C172.188 157.852 167.369 157.843 164.519 159.537Z" fill="#FFA500"/>
<g opacity="0.2">
<path d="M290.267 239.029C290.267 239.391 290.229 250.309 290.234 249.611H290.2C176.404 317.105 177.485 316.534 177.136 316.627L177.169 308.448C189.91 300.884 133.868 334.148 287.494 242.975C289.32 241.861 290.267 240.465 290.267 239.029Z" fill="#4F575F"/>
</g>
<g opacity="0.2">
<path d="M177.164 308.448L177.131 316.627C177.131 316.661 177.097 316.661 177.097 316.661C173.234 318.775 167.263 318.707 163.539 316.52L135.718 300.088L49.9434 249.543V239.244C49.9768 239.493 50.0485 239.781 50.1203 240.035V240.069C50.5123 241.276 51.6502 242.32 52.7211 242.975C168.296 311.065 126.132 286.225 135.718 291.874C143.32 296.352 159.69 306.031 164.519 308.843C167.994 310.494 172.986 310.494 176.461 308.843C176.705 308.702 176.92 308.555 177.164 308.448Z" fill="#4F575F"/>
</g>
<g opacity="0.2">
<path d="M177.165 308.448L177.131 316.627C177.131 316.661 177.098 316.661 177.098 316.661C173.235 318.775 167.263 318.707 163.539 316.519L135.719 300.088V291.874C143.32 296.352 159.69 306.03 164.519 308.843C167.995 310.494 172.986 310.494 176.462 308.843C176.706 308.701 176.921 308.555 177.165 308.448Z" fill="#4F575F"/>
</g>
<path d="M231.529 212.729L231.773 36.6192C231.773 45.4088 226.341 54.2716 215.623 61.1275C191.589 76.4801 151.391 76.6461 126.807 62.2067C117.159 56.5179 108.62 47.6404 108.62 36.3115C108.223 266.731 108.338 200.336 108.319 212.729H231.529Z" fill="#39C988"/>
<path d="M231.778 36.6094L231.605 73.2181C231.582 82.4863 225.299 91.9644 213.395 99.0352C175.544 121.502 108.353 106.414 108.448 72.8617L108.62 36.2529C108.597 45.6334 114.654 55.0285 126.798 62.1872C150.932 76.4166 189.92 76.4166 213.882 62.1969C225.787 55.1311 231.749 45.8776 231.778 36.6094Z" fill="#EDE01D"/>
<path d="M231.778 45.355L231.605 81.9637C231.582 91.2319 225.299 100.71 213.395 107.781C175.544 130.248 108.353 115.159 108.448 81.6073L108.62 44.9985C108.597 54.379 114.654 63.7741 126.798 70.9328C150.932 85.1622 189.92 85.1622 213.882 70.9425C225.787 63.8767 231.749 54.6232 231.778 45.355Z" fill="#28AF6E"/>
<path d="M231.778 36.6094L231.605 73.2181C231.582 82.4863 225.299 91.9644 213.395 99.0352C175.544 121.502 108.353 106.414 108.448 72.8617L108.62 36.2529C108.597 45.6334 114.654 55.0285 126.798 62.1872C150.932 76.4166 189.92 76.4166 213.882 62.1969C225.787 55.1311 231.749 45.8776 231.778 36.6094Z" fill="#DE0099"/>
<path d="M213.6 10.6653C237.734 24.8948 237.844 47.9724 213.882 62.1969C189.92 76.4214 150.927 76.4214 126.797 62.1871C102.663 47.9577 102.553 24.8948 126.515 10.6751C150.477 -3.54941 189.471 -3.56406 213.6 10.6653Z" fill="#7840B7"/>
<path d="M128.648 19.0593C151.305 5.61117 188.649 5.60628 211.492 19.0593C220.863 24.587 226.409 31.5503 227.379 38.8701C228.794 28.2005 220.561 19.7478 211.492 14.3959C188.677 0.957554 151.324 0.938022 128.648 14.3959C119.698 19.7136 111.604 28.1272 113.019 38.6504C113.994 31.4136 119.44 24.5333 128.648 19.0593Z" fill="#DE0099"/>
<path d="M128.901 58.4418C151.625 71.846 188.94 71.9827 211.764 58.4614C220.958 53.0069 226.418 46.1266 227.379 38.8703C226.408 31.5505 220.863 24.5872 211.492 19.0595C188.677 5.62113 151.324 5.6016 128.648 19.0595C119.44 24.5334 113.994 31.4138 113.019 38.6505C114.004 45.9703 119.55 52.9337 128.901 58.4418Z" fill="#EBF2FF"/>
<path d="M136.154 55.7169C119.234 45.7504 118.536 32.1461 135.943 21.7939C154.642 10.7043 185.326 10.6604 204.239 21.7939C221.068 31.7359 222.168 45.2231 204.464 55.7315C185.67 66.8651 154.991 66.826 136.154 55.7169ZM137.076 23.7813C121.084 33.2985 121.988 44.7152 137.272 53.7197C155.268 64.3307 185.115 64.5358 203.331 53.7392C218.754 44.5883 219.199 33.2741 203.116 23.7813C184.809 13.0091 154.976 13.1556 137.076 23.7813Z" fill="#BBCFEF"/>
<path d="M149.268 32.3025L149.315 40.3303C149.344 51.2441 171.695 56.5765 184.647 48.9393C188.739 46.527 190.785 43.3579 190.776 40.1985L190.728 32.1707C190.757 43.1772 168.205 48.5779 155.292 40.9114C151.285 38.5334 149.277 35.4179 149.268 32.3025Z" fill="#BBCFEF"/>
<path d="M155.387 23.5714C147.269 28.3617 147.226 36.121 155.292 40.9114C163.371 45.7066 176.481 45.7017 184.599 40.9114C192.717 36.121 192.789 28.3617 184.709 23.5665C176.643 18.7762 163.51 18.7859 155.387 23.5714Z" fill="white"/>
<path d="M180.784 88.4485V94.6208H173.163V102.478H167.053V94.6208H159.427V88.4485H167.053V80.5916H173.163V88.4485H180.784Z" fill="#FFCA6C"/>
<path d="M213.6 187.224C237.735 201.454 237.845 224.531 213.882 238.756C189.92 252.981 150.927 252.981 126.798 238.746C102.663 224.517 102.553 201.454 126.515 187.234C150.478 173.01 189.471 172.995 213.6 187.224Z" fill="#39C988"/>
<path d="M163.581 218.374V232.579C150.056 232.252 134.666 229.205 123.493 221.396C122.603 220.742 121.719 220.088 120.93 219.38H120.882C117.129 216.03 113.386 211.581 113.386 206.234V198.631C114.399 200.082 115.174 200.912 116.393 202.157C127.303 213.071 146.025 217.92 161.463 218.271H161.511C162.199 218.374 162.892 218.374 163.581 218.374Z" fill="#FFB63C"/>
<path d="M163.677 151.939V218.369C146.547 218.369 122.943 212.304 113.381 198.626L113.334 198.577C113.334 198.216 113.281 170.797 113.286 172.541V172.492C113.185 172.443 113.138 172.34 113.09 172.292C113.138 172.243 113.19 172.14 113.286 172.091C116.035 168.126 121.844 163.009 128.967 159.649H129.015C131.061 158.399 138.807 155.22 148.048 153.506H148.096C148.144 153.457 148.196 153.457 148.244 153.457C153.145 152.534 159.561 151.948 163.677 151.948V151.939Z" fill="#FFDE9B"/>
<path d="M163.677 192.381V206.937C151.82 206.937 136.86 204.003 126.05 197.772H126.003C125.658 197.669 125.41 197.469 125.066 197.269C119.888 194.246 115.991 190.72 113.328 186.995C113.328 186.638 113.276 171.583 113.281 172.541C117.956 178.879 125.18 183.41 132.462 186.443H132.51C141.861 190.369 153.761 192.386 163.672 192.386L163.677 192.381Z" fill="#FFB63C"/>
<path d="M163.682 128.881V192.391C153.632 192.391 141.776 190.335 132.52 186.448H132.472C125.19 183.42 117.966 178.889 113.291 172.546V172.497C113.19 172.448 113.142 172.345 113.095 172.296C113.142 172.248 113.195 172.145 113.291 172.096C113.291 171.735 113.185 144.702 113.19 146.411C113.142 146.362 113.09 146.362 113.09 146.309C113.122 146.276 113.155 146.242 113.19 146.206V146.157C121.59 135.238 134.733 130.136 148.101 127.523C148.454 127.162 152.389 128.773 163.586 128.881H163.687H163.682Z" fill="#FFDE9B"/>
<path d="M163.677 166.398V180.954H163.577C146.246 180.798 123.145 175.016 113.234 160.909C113.234 160.064 113.181 145.473 113.186 146.406C123.58 160.694 146.595 166.403 163.677 166.403V166.398Z" fill="#FFB63C"/>
<path d="M163.682 151.949V166.403C146.576 166.403 123.594 160.709 113.19 146.406C113.143 146.357 113.09 146.357 113.09 146.304C113.122 146.271 113.155 146.237 113.19 146.201C113.186 144.707 113.085 118.651 113.09 120.316C114.051 119.139 115.256 117.298 118.416 114.524C120.338 116.238 122.556 117.796 125.071 119.31C135.479 125.546 147.704 127.396 148.101 127.518C148.455 127.157 152.389 128.768 163.586 128.876H163.634C163.634 129.242 163.687 153.443 163.682 151.944V151.949Z" fill="#FFDE9B"/>
<path d="M163.677 140.41V154.967C146.667 154.967 123.197 149.068 113.186 134.819C113.138 134.819 113.138 134.77 113.138 134.77L113.09 120.316C113.09 120.316 113.09 120.365 113.138 120.365C123.364 134.614 146.533 140.41 163.682 140.41H163.677Z" fill="#FFB63C"/>
<path d="M163.682 140.312V140.415H163.582C146.165 140.214 123.427 134.696 113.138 120.369C113.09 120.369 113.09 120.321 113.09 120.321V108.787C116.375 113.26 120.448 116.531 125.071 119.315C135.479 125.55 147.704 127.401 148.101 127.523C148.455 127.162 152.39 128.773 163.587 128.881H163.634C163.649 132.357 163.687 140.844 163.682 140.312Z" fill="#FFDE9B"/>
<path d="M163.682 128.881V128.983C161.76 128.881 156.482 129.032 148.101 127.523C148.455 127.162 152.39 128.773 163.587 128.881H163.687H163.682Z" fill="#FFB63C"/>
<path d="M163.582 218.271V232.574C150.611 232.256 144.31 230.108 143.956 230.108V216.005C150.267 217.465 156.922 218.222 163.582 218.271Z" fill="#FFA20D"/>
<path d="M163.692 192.303C156.984 192.229 150.3 191.502 143.975 190.012V204.554C150.3 206.044 156.984 206.781 163.692 206.859V192.298V192.303Z" fill="#FFA20D"/>
<path d="M163.692 166.31C156.984 166.236 150.3 165.509 143.975 164.02V178.561C150.3 180.051 156.984 180.788 163.692 180.866V166.305V166.31Z" fill="#FFA20D"/>
<path d="M163.692 140.322C156.984 140.249 150.3 139.516 143.975 138.032V152.574C150.3 154.063 156.984 154.8 163.692 154.878V140.317V140.322Z" fill="#FFA20D"/>
<g opacity="0.3">
<path d="M163.581 128.881V232.579C150.042 232.252 134.714 229.239 123.493 221.396C122.604 220.742 121.72 220.088 120.931 219.38H120.883C117.106 216.005 113.386 211.567 113.386 206.234C113.386 205.868 113.334 185.75 113.339 186.995C113.339 186.638 113.286 171.584 113.291 172.541C113.291 172.179 113.238 164.821 113.243 165.289C113.243 164.904 113.095 108.357 113.095 108.782C116.379 113.255 120.453 116.527 125.076 119.31C135.484 125.546 147.709 127.396 148.106 127.518C148.459 127.157 152.394 128.769 163.591 128.876L163.581 128.881Z" fill="#F3F1FC"/>
</g>
<g opacity="0.3">
<path d="M163.582 153.609V197.625C163.252 197.264 145.749 178.015 146.863 179.24H146.815L146.767 179.138C146.437 178.777 127.83 158.346 129.016 159.649H128.968C124.053 154.224 114.242 143.403 114.864 144.087L113.186 142.275C113.186 141.899 113.085 108.421 113.085 108.782C118.846 116.629 128.098 121.791 137.296 124.745C137.631 125.116 151.39 140.215 150.511 139.248C153.002 141.987 162.721 152.671 162.1 151.988L163.577 153.599L163.582 153.609Z" fill="white"/>
<path d="M163.582 220.586V232.574C161.512 232.525 159.441 232.422 157.419 232.271C154.211 228.745 169.037 245.05 126.056 197.772H126.008L113.334 183.821C113.334 183.459 113.229 164.049 113.234 165.284C113.563 165.646 133.749 187.854 132.463 186.438H132.51C132.835 186.794 151.185 207.015 150.013 205.726L150.061 205.775H150.109L161.449 218.266H161.497L163.567 220.581L163.582 220.586Z" fill="white"/>
</g>
<path d="M113.09 146.309C113.09 146.357 113.138 146.357 113.191 146.411V146.211C113.159 146.243 113.125 146.278 113.09 146.313V146.309ZM113.09 172.297C113.138 172.345 113.191 172.448 113.286 172.497V172.091C113.186 172.14 113.138 172.243 113.09 172.292V172.297Z" fill="#EDE01D"/>
<path d="M201.012 146.523C212.347 139.838 221.589 145.2 221.627 158.516C221.665 171.842 212.481 188.064 201.146 194.749C189.791 201.444 180.559 196.077 180.521 182.756C180.482 169.44 189.657 153.218 201.012 146.528V146.523Z" fill="white"/>
<path d="M209.45 151.973L199.774 172.243L208.442 167.135L194.739 193.377L201.031 174.684L194.199 178.708L199.095 158.082L209.45 151.973Z" fill="#1D2943"/>
</svg>
