<svg width="80" height="80" viewBox="0 0 80 80" fill="none" xmlns="http://www.w3.org/2000/svg">
<rect width="80" height="80" rx="40" fill="#2FDEA0"/>
<g clip-path="url(#clip0_496_68383)">
<path d="M31.6667 20H26.6667C24.8986 20 23.2029 20.7024 21.9526 21.9526C20.7024 23.2029 20 24.8986 20 26.6667V31.6667C20 33.4348 20.7024 35.1305 21.9526 36.3807C23.2029 37.631 24.8986 38.3333 26.6667 38.3333H31.6667C33.4348 38.3333 35.1305 37.631 36.3807 36.3807C37.631 35.1305 38.3333 33.4348 38.3333 31.6667V26.6667C38.3333 24.8986 37.631 23.2029 36.3807 21.9526C35.1305 20.7024 33.4348 20 31.6667 20ZM35 31.6667C35 32.5507 34.6488 33.3986 34.0237 34.0237C33.3986 34.6488 32.5507 35 31.6667 35H26.6667C25.7826 35 24.9348 34.6488 24.3096 34.0237C23.6845 33.3986 23.3333 32.5507 23.3333 31.6667V26.6667C23.3333 25.7826 23.6845 24.9348 24.3096 24.3096C24.9348 23.6845 25.7826 23.3333 26.6667 23.3333H31.6667C32.5507 23.3333 33.3986 23.6845 34.0237 24.3096C34.6488 24.9348 35 25.7826 35 26.6667V31.6667Z" fill="white"/>
<path d="M53.3337 20H48.3337C46.5655 20 44.8699 20.7024 43.6196 21.9526C42.3694 23.2029 41.667 24.8986 41.667 26.6667V31.6667C41.667 33.4348 42.3694 35.1305 43.6196 36.3807C44.8699 37.631 46.5655 38.3333 48.3337 38.3333H53.3337C55.1018 38.3333 56.7975 37.631 58.0477 36.3807C59.2979 35.1305 60.0003 33.4348 60.0003 31.6667V26.6667C60.0003 24.8986 59.2979 23.2029 58.0477 21.9526C56.7975 20.7024 55.1018 20 53.3337 20ZM56.667 31.6667C56.667 32.5507 56.3158 33.3986 55.6907 34.0237C55.0656 34.6488 54.2177 35 53.3337 35H48.3337C47.4496 35 46.6018 34.6488 45.9766 34.0237C45.3515 33.3986 45.0003 32.5507 45.0003 31.6667V26.6667C45.0003 25.7826 45.3515 24.9348 45.9766 24.3096C46.6018 23.6845 47.4496 23.3333 48.3337 23.3333H53.3337C54.2177 23.3333 55.0656 23.6845 55.6907 24.3096C56.3158 24.9348 56.667 25.7826 56.667 26.6667V31.6667Z" fill="white"/>
<path d="M31.6667 41.6667H26.6667C24.8986 41.6667 23.2029 42.3691 21.9526 43.6193C20.7024 44.8695 20 46.5652 20 48.3333V53.3333C20 55.1014 20.7024 56.7971 21.9526 58.0474C23.2029 59.2976 24.8986 60 26.6667 60H31.6667C33.4348 60 35.1305 59.2976 36.3807 58.0474C37.631 56.7971 38.3333 55.1014 38.3333 53.3333V48.3333C38.3333 46.5652 37.631 44.8695 36.3807 43.6193C35.1305 42.3691 33.4348 41.6667 31.6667 41.6667ZM35 53.3333C35 54.2174 34.6488 55.0652 34.0237 55.6904C33.3986 56.3155 32.5507 56.6667 31.6667 56.6667H26.6667C25.7826 56.6667 24.9348 56.3155 24.3096 55.6904C23.6845 55.0652 23.3333 54.2174 23.3333 53.3333V48.3333C23.3333 47.4493 23.6845 46.6014 24.3096 45.9763C24.9348 45.3512 25.7826 45 26.6667 45H31.6667C32.5507 45 33.3986 45.3512 34.0237 45.9763C34.6488 46.6014 35 47.4493 35 48.3333V53.3333Z" fill="white"/>
<path d="M53.3337 41.6667H48.3337C46.5655 41.6667 44.8699 42.3691 43.6196 43.6193C42.3694 44.8696 41.667 46.5652 41.667 48.3334V53.3334C41.667 55.1015 42.3694 56.7972 43.6196 58.0474C44.8699 59.2976 46.5655 60 48.3337 60H53.3337C55.1018 60 56.7975 59.2976 58.0477 58.0474C59.2979 56.7972 60.0003 55.1015 60.0003 53.3334V48.3334C60.0003 46.5652 59.2979 44.8696 58.0477 43.6193C56.7975 42.3691 55.1018 41.6667 53.3337 41.6667ZM56.667 53.3334C56.667 54.2174 56.3158 55.0653 55.6907 55.6904C55.0656 56.3155 54.2177 56.6667 53.3337 56.6667H48.3337C47.4496 56.6667 46.6018 56.3155 45.9766 55.6904C45.3515 55.0653 45.0003 54.2174 45.0003 53.3334V48.3334C45.0003 47.4493 45.3515 46.6015 45.9766 45.9763C46.6018 45.3512 47.4496 45 48.3337 45H53.3337C54.2177 45 55.0656 45.3512 55.6907 45.9763C56.3158 46.6015 56.667 47.4493 56.667 48.3334V53.3334Z" fill="white"/>
</g>
<defs>
<clipPath id="clip0_496_68383">
<rect width="40" height="40" fill="white" transform="translate(20 20)"/>
</clipPath>
</defs>
</svg>
