<svg width="80" height="80" viewBox="0 0 80 80" fill="none" xmlns="http://www.w3.org/2000/svg">
<rect width="80" height="80" rx="40" fill="#2FDEA0"/>
<g clip-path="url(#clip0_496_68394)">
<path d="M59.727 34.6567C59.3861 33.5715 58.705 32.6249 57.7844 31.9567C56.8638 31.2886 55.7527 30.9345 54.6153 30.9467H47.3337L45.122 24.0533C44.7742 22.9683 44.0908 22.0217 43.1703 21.3501C42.2498 20.6785 41.1398 20.3167 40.0003 20.3167C38.8609 20.3167 37.7509 20.6785 36.8304 21.3501C35.9099 22.0217 35.2265 22.9683 34.8787 24.0533L32.667 30.9467H25.3853C24.2516 30.9483 23.1473 31.3081 22.2303 31.9748C21.3133 32.6415 20.6304 33.581 20.2792 34.659C19.928 35.737 19.9264 36.8984 20.2747 37.9773C20.6231 39.0563 21.3034 39.9975 22.2187 40.6667L28.1453 45L25.892 51.9783C25.5278 53.0607 25.5232 54.2317 25.8788 55.3168C26.2344 56.402 26.9312 57.3431 27.8653 58C28.7834 58.678 29.896 59.0412 31.0372 59.0355C32.1785 59.0298 33.2874 58.6555 34.1987 57.9683L40.0003 53.6983L45.8037 57.9633C46.7201 58.6374 47.8266 59.0036 48.9643 59.0091C50.1019 59.0146 51.212 58.6593 52.1349 57.9942C53.0579 57.3291 53.7462 56.3884 54.1008 55.3075C54.4554 54.2265 54.4582 53.061 54.1087 51.9783L51.8553 45L57.7887 40.6667C58.7143 40.0059 59.4027 39.0647 59.7518 37.9822C60.1009 36.8998 60.0922 35.7338 59.727 34.6567ZM55.822 37.975L48.9153 43.0233C48.6316 43.2303 48.4206 43.5215 48.3122 43.8556C48.2039 44.1896 48.2038 44.5493 48.312 44.8833L50.937 53C51.0698 53.4117 51.0687 53.8549 50.9337 54.2659C50.7988 54.6769 50.537 55.0345 50.186 55.2873C49.835 55.5401 49.4129 55.6751 48.9803 55.6729C48.5478 55.6707 48.127 55.5314 47.7787 55.275L40.987 50.275C40.7009 50.0649 40.3553 49.9516 40.0003 49.9516C39.6454 49.9516 39.2997 50.0649 39.0137 50.275L32.222 55.275C31.8738 55.5349 31.4519 55.6771 31.0174 55.681C30.583 55.685 30.1586 55.5504 29.8057 55.2969C29.4529 55.0434 29.1899 54.6841 29.055 54.2711C28.9201 53.8582 28.9202 53.4129 29.0553 53L31.6887 44.8833C31.7968 44.5493 31.7968 44.1896 31.6884 43.8556C31.5801 43.5215 31.369 43.2303 31.0853 43.0233L24.1787 37.975C23.8308 37.7203 23.5724 37.3623 23.4402 36.9519C23.3081 36.5416 23.309 36.1 23.4428 35.6902C23.5766 35.2804 23.8365 34.9233 24.1854 34.6701C24.5343 34.4168 24.9542 34.2803 25.3853 34.28H33.8853C34.2382 34.28 34.5819 34.168 34.8671 33.9601C35.1522 33.7523 35.364 33.4593 35.472 33.1233L38.0553 25.0717C38.1879 24.6596 38.4478 24.3003 38.7977 24.0454C39.1475 23.7905 39.5692 23.6532 40.002 23.6532C40.4348 23.6532 40.8565 23.7905 41.2063 24.0454C41.5561 24.3003 41.816 24.6596 41.9487 25.0717L44.532 33.1233C44.64 33.4593 44.8518 33.7523 45.1369 33.9601C45.422 34.168 45.7658 34.28 46.1187 34.28H54.6187C55.0497 34.2803 55.4697 34.4168 55.8186 34.6701C56.1674 34.9233 56.4274 35.2804 56.5612 35.6902C56.695 36.1 56.6959 36.5416 56.5638 36.9519C56.4316 37.3623 56.1731 37.7203 55.8253 37.975H55.822Z" fill="white"/>
</g>
<defs>
<clipPath id="clip0_496_68394">
<rect width="40" height="40" fill="white" transform="translate(20 20)"/>
</clipPath>
</defs>
</svg>
