<svg width="335" height="520" viewBox="0 0 335 520" fill="none" xmlns="http://www.w3.org/2000/svg">
<path d="M1.60596 423.752L12.8729 417.256C15.2301 415.895 19.3412 416.064 22.0492 417.635L43.5168 430.038L192.976 343.747L171.129 331.119C168.407 329.548 168.113 327.176 170.47 325.815L181.737 319.319C184.094 317.958 188.205 318.127 190.913 319.698L253.043 355.603C255.765 357.175 256.059 359.546 253.702 360.907L242.435 367.404C240.078 368.765 235.967 368.596 233.259 367.025L203.359 349.753L53.8998 436.044L84.1648 453.54C86.8868 455.112 87.1814 457.483 84.8242 458.844L73.5573 465.341C71.2001 466.702 67.0889 466.533 64.381 464.962L2.25137 429.056C-0.470657 427.485 -0.76532 425.113 1.59192 423.752H1.60596Z" fill="#F2F2F2"/>
<path d="M245.466 358.311L248.343 356.642C249.311 356.081 249.9 354.888 249.914 353.204C249.914 349.78 247.529 345.627 244.568 343.915C243.067 343.046 241.72 342.975 240.738 343.537L237.861 345.206C238.844 344.645 240.191 344.715 241.692 345.585C244.652 347.297 247.052 351.45 247.038 354.874C247.038 356.572 246.434 357.75 245.466 358.311Z" fill="#BFBFBF"/>
<path d="M241.636 357.947C244.596 359.659 247.009 358.284 247.023 354.874C247.023 351.45 244.638 347.297 241.678 345.585C238.703 343.873 236.29 345.248 236.276 348.658C236.276 352.068 238.661 356.221 241.636 357.933V357.947Z" fill="#898989"/>
<path d="M242.618 359.953L245.494 358.283C246.462 357.722 247.051 356.529 247.065 354.846C247.065 351.422 244.68 347.269 241.72 345.557C240.218 344.687 238.871 344.617 237.889 345.178L235.013 346.848C235.995 346.287 237.342 346.357 238.843 347.227C241.804 348.938 244.203 353.092 244.189 356.515C244.189 358.213 243.586 359.392 242.618 359.953Z" fill="#231F20"/>
<path d="M238.801 359.588C241.762 361.3 244.175 359.925 244.189 356.515C244.189 353.092 241.804 348.939 238.843 347.227C235.869 345.515 233.455 346.89 233.441 350.3C233.441 353.709 235.826 357.862 238.801 359.574V359.588Z" fill="#898989"/>
<path d="M239.728 361.637L242.604 359.967C243.572 359.406 244.162 358.213 244.176 356.529C244.176 353.106 241.791 348.952 238.83 347.241C237.329 346.371 235.982 346.301 234.999 346.862L232.123 348.532C233.105 347.957 234.452 348.041 235.954 348.911C238.914 350.622 241.313 354.775 241.299 358.199C241.299 359.897 240.696 361.075 239.728 361.637Z" fill="#BFBFBF"/>
<path d="M235.897 361.258C238.858 362.97 241.271 361.595 241.285 358.185C241.285 354.762 238.9 350.609 235.939 348.897C232.965 347.185 230.551 348.56 230.537 351.969C230.537 355.379 232.923 359.532 235.897 361.244V361.258Z" fill="#898989"/>
<path d="M193.159 328.131L196.035 326.461C197.003 325.9 197.592 324.707 197.606 323.023C197.606 319.599 195.221 315.446 192.261 313.735C190.759 312.865 189.412 312.795 188.43 313.356L185.554 315.025C186.536 314.464 187.883 314.534 189.384 315.404C192.345 317.116 194.744 321.269 194.73 324.693C194.73 326.391 194.127 327.569 193.159 328.131Z" fill="#BFBFBF"/>
<path d="M189.342 327.766C192.303 329.478 194.716 328.103 194.73 324.693C194.73 321.27 192.345 317.116 189.384 315.404C186.41 313.693 183.996 315.068 183.982 318.477C183.982 321.887 186.367 326.04 189.342 327.752V327.766Z" fill="#898989"/>
<path d="M190.31 329.772L193.186 328.102C194.154 327.541 194.744 326.349 194.758 324.665C194.758 321.241 192.373 317.088 189.412 315.376C187.911 314.506 186.564 314.436 185.581 314.997L182.705 316.667C183.687 316.106 185.034 316.176 186.536 317.046C189.496 318.758 191.895 322.911 191.881 326.335C191.881 328.032 191.278 329.211 190.31 329.772Z" fill="#231F20"/>
<path d="M186.493 329.407C189.454 331.119 191.867 329.744 191.881 326.335C191.881 322.911 189.496 318.758 186.536 317.046C183.561 315.334 181.148 316.709 181.134 320.119C181.134 323.528 183.519 327.681 186.493 329.393V329.407Z" fill="#898989"/>
<path d="M187.42 331.442L190.297 329.772C191.265 329.211 191.854 328.018 191.868 326.335C191.868 322.911 189.483 318.758 186.522 317.046C185.021 316.176 183.674 316.106 182.692 316.667L179.815 318.337C180.798 317.762 182.145 317.846 183.646 318.716C186.607 320.428 189.006 324.581 188.992 328.004C188.992 329.702 188.388 330.88 187.42 331.442Z" fill="#BFBFBF"/>
<path d="M183.604 331.077C186.564 332.789 188.978 331.414 188.992 328.004C188.992 324.581 186.606 320.428 183.646 318.716C180.671 317.004 178.258 318.379 178.244 321.789C178.244 325.198 180.629 329.351 183.604 331.063V331.077Z" fill="#898989"/>
<path d="M186.564 319.291L195.263 314.226L195.277 307.744L186.592 312.795L186.564 319.291Z" fill="#D9D9D9"/>
<path d="M203.513 302.945L212.198 297.894L189.454 301.865L180.769 306.916L203.513 302.945Z" fill="#E6E6E6"/>
<path d="M216.703 310.564L225.402 305.512L212.199 297.894L203.513 302.945L216.703 310.564Z" fill="#F2F2F2"/>
<path d="M239.363 340.745L248.048 335.693L225.402 305.512L216.702 310.564L239.363 340.745Z" fill="#E6E6E6"/>
<path d="M239.335 349.752L248.034 344.701L248.048 335.693L239.363 340.745L239.335 349.752Z" fill="#D9D9D9"/>
<path d="M203.513 302.945L180.769 306.916L180.727 315.91L186.564 319.291L186.592 312.795L203.485 309.848L216.689 317.467L233.512 339.889L233.498 346.371L239.335 349.752L239.363 340.745L216.703 310.564L203.513 302.945Z" fill="#A6A6A6"/>
<path d="M208.887 111.323V303.955C208.887 304.769 209.434 305.597 210.501 306.214C212.675 307.477 216.197 307.477 218.372 306.214C219.466 305.583 220.014 304.741 220.014 303.913V111.28C220.014 112.108 219.466 112.95 218.358 113.581C216.183 114.844 212.661 114.844 210.487 113.581C209.406 112.964 208.873 112.136 208.873 111.323H208.887Z" fill="#D9D9D9"/>
<path d="M210.529 109.035C208.354 110.298 208.34 112.333 210.501 113.581C212.675 114.844 216.197 114.844 218.372 113.581C220.561 112.319 220.575 110.284 218.4 109.021C216.239 107.758 212.717 107.758 210.529 109.021V109.035Z" fill="#898989"/>
<path d="M47.4737 313.033L214.303 216.71C215.005 216.303 215.454 215.419 215.454 214.185C215.454 211.673 213.7 208.628 211.525 207.365C210.43 206.734 209.434 206.678 208.719 207.085L41.8893 303.408C42.6049 302.987 43.6011 303.043 44.6955 303.688C46.8703 304.951 48.6382 307.996 48.6242 310.508C48.6242 311.756 48.1752 312.626 47.4737 313.033Z" fill="#F2F2F2"/>
<path d="M44.6814 312.767C46.8562 314.03 48.6242 313.019 48.6382 310.508C48.6382 307.996 46.8843 304.951 44.7095 303.688C42.5206 302.426 40.7527 303.436 40.7387 305.948C40.7387 308.445 42.4926 311.504 44.6814 312.753V312.767Z" fill="#898989"/>
<path d="M74.6801 456.852L77.5564 455.182C78.5246 454.621 79.1139 453.428 79.1279 451.744C79.1279 448.32 76.7427 444.167 73.7821 442.456C72.2808 441.586 70.9338 441.516 69.9516 442.077L67.0752 443.746C68.0574 443.171 69.4044 443.255 70.9057 444.125C73.8663 445.837 76.2656 449.99 76.2516 453.414C76.2516 455.112 75.6482 456.29 74.6801 456.852Z" fill="#BFBFBF"/>
<path d="M70.8635 456.473C73.8241 458.185 76.2374 456.81 76.2515 453.4C76.2515 449.977 73.8662 445.823 70.9056 444.111C67.931 442.4 65.5177 443.775 65.5037 447.184C65.5037 450.594 67.889 454.747 70.8635 456.459V456.473Z" fill="#898989"/>
<path d="M71.8461 458.493L74.7225 456.824C75.6906 456.262 76.2799 455.07 76.2939 453.386C76.2939 449.962 73.9087 445.809 70.9481 444.097C69.4468 443.227 68.0998 443.157 67.1176 443.718L64.2413 445.388C65.2234 444.813 66.5704 444.897 68.0717 445.767C71.0323 447.479 73.4316 451.632 73.4176 455.056C73.4176 456.753 72.8142 457.932 71.8461 458.493Z" fill="#231F20"/>
<path d="M68.0296 458.114C70.9901 459.826 73.4034 458.451 73.4175 455.042C73.4175 451.618 71.0322 447.465 68.0716 445.753C65.0971 444.041 62.6837 445.416 62.6697 448.826C62.6697 452.236 65.055 456.389 68.0296 458.1V458.114Z" fill="#898989"/>
<path d="M68.9418 460.163L71.8182 458.493C72.7863 457.932 73.3756 456.739 73.3896 455.056C73.3896 451.632 71.0043 447.479 68.0438 445.767C66.5425 444.897 65.1955 444.827 64.2133 445.388L61.3369 447.058C62.3191 446.483 63.6661 446.567 65.1674 447.437C68.128 449.149 70.5273 453.302 70.5133 456.725C70.5133 458.423 69.9099 459.602 68.9418 460.163Z" fill="#BFBFBF"/>
<path d="M65.1253 459.784C68.0858 461.496 70.4992 460.121 70.5132 456.711C70.5132 453.288 68.1279 449.135 65.1674 447.423C62.1928 445.711 59.7794 447.086 59.7654 450.496C59.7654 453.905 62.1507 458.059 65.1253 459.77V459.784Z" fill="#898989"/>
<path d="M22.3861 426.657L25.2625 424.987C26.2307 424.426 26.82 423.233 26.834 421.549C26.834 418.126 24.4487 413.973 21.4882 412.261C19.9868 411.391 18.6398 411.321 17.6577 411.882L14.7813 413.552C15.7635 412.976 17.1105 413.06 18.6118 413.93C21.5723 415.642 23.9716 419.796 23.9576 423.219C23.9576 424.917 23.3543 426.095 22.3861 426.657Z" fill="#BFBFBF"/>
<path d="M18.5554 426.292C21.516 428.004 23.9293 426.629 23.9434 423.219C23.9434 419.796 21.5581 415.642 18.5975 413.931C15.6229 412.219 13.2096 413.594 13.1956 417.003C13.1956 420.413 15.5808 424.566 18.5554 426.278V426.292Z" fill="#898989"/>
<path d="M19.5375 428.298L22.4139 426.629C23.382 426.067 23.9713 424.875 23.9854 423.191C23.9854 419.767 21.6001 415.614 18.6395 413.902C17.1382 413.032 15.7912 412.962 14.809 413.523L11.9327 415.193C12.9148 414.618 14.2618 414.702 15.7631 415.572C18.7237 417.284 21.123 421.437 21.109 424.861C21.109 426.558 20.5056 427.737 19.5375 428.298Z" fill="#231F20"/>
<path d="M15.721 427.934C18.6815 429.645 21.0949 428.27 21.1089 424.861C21.1089 421.437 18.7236 417.284 15.7631 415.572C12.7885 413.861 10.3751 415.236 10.3611 418.645C10.3611 422.055 12.7464 426.208 15.721 427.92V427.934Z" fill="#898989"/>
<path d="M16.6479 429.982L19.5242 428.312C20.4924 427.751 21.0817 426.559 21.0957 424.875C21.0957 421.451 18.7104 417.298 15.7499 415.586C14.2485 414.716 12.9015 414.646 11.9194 415.208L9.04302 416.877C10.0252 416.302 11.3722 416.386 12.8735 417.256C15.8341 418.968 18.2334 423.121 18.2193 426.544C18.2193 428.242 17.616 429.421 16.6479 429.982Z" fill="#BFBFBF"/>
<path d="M12.8171 429.604C15.7777 431.315 18.191 429.94 18.2051 426.53C18.2051 423.107 15.8198 418.954 12.8592 417.242C9.88466 415.53 7.47131 416.905 7.45727 420.315C7.45727 423.724 9.84255 427.878 12.8171 429.589V429.604Z" fill="#898989"/>
<path d="M15.7916 417.817L24.4909 412.766L24.5049 406.27L15.8056 411.321L15.7916 417.817Z" fill="#D9D9D9"/>
<path d="M32.727 401.471L41.4263 396.42L18.6819 400.391L9.98266 405.442L32.727 401.471Z" fill="#E6E6E6"/>
<path d="M45.9305 409.09L54.6157 404.039L41.4265 396.42L32.7272 401.471L45.9305 409.09Z" fill="#F2F2F2"/>
<path d="M68.5766 439.271L77.2759 434.219L54.6157 404.039L45.9305 409.09L68.5766 439.271Z" fill="#E6E6E6"/>
<path d="M68.5626 448.279L77.2478 443.228L77.2759 434.219L68.5766 439.271L68.5626 448.279Z" fill="#D9D9D9"/>
<path d="M32.7273 401.471L9.98292 405.442L9.95485 414.45L15.7918 417.817L15.8058 411.321L32.7132 408.374L45.9024 415.993L62.7397 438.415L62.7117 444.911L68.5626 448.279L68.5767 439.271L45.9305 409.09L32.7273 401.471Z" fill="#A6A6A6"/>
<path d="M38.1152 209.863V402.495C38.1152 403.309 38.6624 404.137 39.7428 404.754C41.9176 406.017 45.4394 406.017 47.6142 404.754C48.7087 404.123 49.2559 403.281 49.2559 402.453V209.821C49.2559 210.649 48.7087 211.491 47.6002 212.122C45.4254 213.385 41.9036 213.385 39.7288 212.122C38.6484 211.505 38.1152 210.677 38.1152 209.863Z" fill="#D9D9D9"/>
<path d="M39.7572 207.562C37.5824 208.825 37.5683 210.859 39.7291 212.108C41.9039 213.371 45.4257 213.371 47.6005 212.108C49.7894 210.845 49.8034 208.811 47.6286 207.548C45.4678 206.285 41.946 206.285 39.7572 207.548V207.562Z" fill="#898989"/>
<path d="M11.344 148.757L2.64471 143.706L3.09371 301.458L11.793 306.509L11.344 148.757Z" fill="#A6A6A6"/>
<path d="M260.241 5.06537L251.541 0L2.64432 143.706L11.3436 148.757L260.241 5.06537Z" fill="#F2F2F2"/>
<path d="M11.3437 148.757L11.7927 306.509L260.676 162.817L260.241 5.06537L11.3437 148.757Z" fill="#D9D9D9"/>
<path d="M18.2747 149.15L18.6957 298.132L253.744 162.424L253.323 13.4419L18.2747 149.15Z" fill="#F2F2F2"/>
<path d="M39.939 266.618L89.1459 238.206C91.7698 236.69 93.9165 233 93.9165 229.984V128.707C93.9165 125.69 91.7838 124.47 89.1459 125.985L39.939 154.398C37.3152 155.913 35.1684 159.604 35.1684 162.62V263.897C35.1684 266.913 37.3011 268.134 39.939 266.618ZM89.1459 128.104C90.7595 127.178 92.0644 127.921 92.0644 129.773V231.05C92.0644 232.902 90.7595 235.161 89.1459 236.087L39.939 264.5C38.3254 265.426 37.0205 264.682 37.0205 262.83V161.554C37.0205 159.702 38.3254 157.443 39.939 156.517L89.1459 128.104Z" fill="#4D4D4D"/>
<path d="M183.87 183.527L233.077 155.114C235.7 153.598 237.847 149.908 237.847 146.891V45.6151C237.847 42.5985 235.714 41.3778 233.077 42.8932L183.87 71.3061C181.246 72.8215 179.099 76.5118 179.099 79.5285V180.805C179.099 183.821 181.232 185.042 183.87 183.527ZM233.077 45.0119C234.69 44.0859 235.995 44.8294 235.995 46.6815V147.958C235.995 149.81 234.69 152.069 233.077 152.995L183.87 181.408C182.256 182.334 180.951 181.59 180.951 179.738V78.4621C180.951 76.61 182.256 74.3509 183.87 73.4248L233.077 45.0119Z" fill="#4D4D4D"/>
<path d="M195.431 121.972L222.525 106.328C224.279 105.317 225.696 102.595 225.696 100.266C225.696 97.9229 224.279 96.8566 222.525 97.8668L195.431 113.512C193.677 114.522 192.26 117.244 192.26 119.573C192.26 121.916 193.677 122.983 195.431 121.972Z" fill="#4D4D4D"/>
<path d="M187.756 133.422L230.649 108.657C231.224 108.32 231.688 107.436 231.688 106.664C231.688 105.893 231.224 105.542 230.649 105.879L187.756 130.644C187.181 130.98 186.718 131.864 186.718 132.636C186.718 133.408 187.181 133.758 187.756 133.422Z" fill="#4D4D4D"/>
<path d="M187.756 139.062L230.649 114.297C231.224 113.96 231.688 113.077 231.688 112.305C231.688 111.533 231.224 111.182 230.649 111.519L187.756 136.284C187.181 136.621 186.718 137.505 186.718 138.276C186.718 139.048 187.181 139.399 187.756 139.062Z" fill="#4D4D4D"/>
<path d="M187.756 144.703L230.649 119.938C231.224 119.601 231.688 118.717 231.688 117.945C231.688 117.174 231.224 116.823 230.649 117.16L187.756 141.925C187.181 142.261 186.718 143.145 186.718 143.917C186.718 144.689 187.181 145.039 187.756 144.703Z" fill="#4D4D4D"/>
<path d="M187.756 150.357L230.649 125.592C231.224 125.255 231.688 124.372 231.688 123.6C231.688 122.828 231.224 122.477 230.649 122.814L187.756 147.579C187.181 147.916 186.718 148.8 186.718 149.571C186.718 150.343 187.181 150.694 187.756 150.357Z" fill="#4D4D4D"/>
<path d="M216.169 156.138C216.169 157.204 216.927 157.639 217.867 157.106C218.807 156.573 219.564 155.254 219.564 154.188C219.564 153.121 218.807 152.686 217.867 153.219C216.927 153.752 216.169 155.071 216.169 156.138Z" fill="#4D4D4D"/>
<path d="M210.318 159.519C210.318 160.586 211.076 161.021 212.016 160.488C212.956 159.954 213.713 158.635 213.713 157.569C213.713 156.503 212.956 156.068 212.016 156.601C211.076 157.134 210.318 158.453 210.318 159.519Z" fill="#4D4D4D"/>
<path d="M204.481 162.887C204.481 163.953 205.239 164.388 206.179 163.855C207.119 163.322 207.877 162.003 207.877 160.936C207.877 159.87 207.119 159.435 206.179 159.968C205.239 160.501 204.481 161.82 204.481 162.887Z" fill="#4D4D4D"/>
<path d="M198.63 166.268C198.63 167.335 199.388 167.769 200.328 167.236C201.268 166.703 202.025 165.384 202.025 164.318C202.025 163.252 201.268 162.817 200.328 163.35C199.388 163.883 198.63 165.202 198.63 166.268Z" fill="#4D4D4D"/>
<path d="M111.904 225.073L161.111 196.66C163.735 195.144 165.882 191.454 165.882 188.437V87.1613C165.882 84.1446 163.749 82.924 161.111 84.4393L111.904 112.852C109.281 114.368 107.134 118.058 107.134 121.074V222.35C107.134 225.367 109.266 226.588 111.904 225.073ZM161.111 86.5577C162.725 85.6317 164.03 86.3756 164.03 88.2277V189.504C164.03 191.356 162.725 193.615 161.111 194.541L111.904 222.954C110.291 223.88 108.986 223.136 108.986 221.284V120.008C108.986 118.156 110.291 115.897 111.904 114.971L161.111 86.5577Z" fill="#4D4D4D"/>
<path d="M139.658 130.489L157.814 120.008V99.1855L139.658 109.667V130.489Z" fill="#4D4D4D"/>
<path d="M115.215 144.604L133.357 134.123V113.301L115.215 123.782V144.604Z" fill="#2FDEA0"/>
<path d="M138.858 160.992L158.614 149.585V126.911L138.858 138.318V160.992ZM157 148.659L140.458 158.214V139.244L157 129.689V148.659Z" fill="#4D4D4D"/>
<path d="M114.416 175.108L134.172 163.701V141.026L114.416 152.434V175.108ZM132.558 162.774L116.016 172.33V153.36L132.558 143.804V162.774Z" fill="#4D4D4D"/>
<path d="M138.858 190.107L158.614 178.7V156.025L138.858 167.433V190.107ZM157 177.774L140.458 187.329V168.359L157 158.804V177.774Z" fill="#4D4D4D"/>
<path d="M114.416 204.222L134.172 192.815V170.141L114.416 181.548V204.222ZM132.558 191.889L116.016 201.444V182.474L132.558 172.919V191.889Z" fill="#4D4D4D"/>
<path d="M139.658 197.01V209.063L157.814 198.582V186.529L139.658 197.01Z" fill="#4D4D4D"/>
<path d="M115.229 211.111V223.164L133.357 212.697V200.644L115.229 211.111Z" fill="#4D4D4D"/>
<path d="M139.658 96.8424V103.479L157.814 92.9979V86.3613L139.658 96.8424Z" fill="#4D4D4D"/>
<path d="M115.229 110.944V117.594L133.357 107.113V100.477L115.229 110.944Z" fill="#4D4D4D"/>
<path d="M184.46 485.063C184.356 465.768 211.365 449.98 244.786 449.799C278.208 449.618 305.386 465.113 305.49 484.408C305.595 503.703 278.586 519.492 245.164 519.673C211.743 519.853 184.564 504.358 184.46 485.063Z" fill="#F2F2F2"/>
<path d="M278.776 267.474C279.309 263.279 280.375 258.803 283.602 256.081C284.599 255.239 285.805 254.594 287.11 254.594C287.994 254.594 288.836 254.889 289.622 255.267C296.749 249.403 303.975 243.369 308.269 235.259C309.083 233.702 309.798 232.088 310.795 230.643C310.977 230.39 311.173 230.152 311.37 229.913C308.914 227.682 306.459 225.451 304.004 223.206C303.793 223.01 303.569 222.799 303.442 222.547C303.176 222.014 303.344 221.382 303.526 220.807C304.705 217.075 306.403 213.188 309.728 211.125C311.019 210.326 312.506 209.877 314.022 209.764C315.032 209.694 316.674 210.34 317.249 209.316C320.013 210.971 322.454 213.777 324.531 216.205C326.65 218.646 328.544 221.27 330.354 223.95C331.743 226.027 333.413 228.075 334.156 230.502C335.012 233.281 333.693 235.68 332.206 237.939C330.059 241.194 327.604 244.239 324.896 247.045C323.338 248.645 321.711 250.16 319.999 251.577C315.172 255.576 309.784 258.831 304.41 262.058C301.871 263.588 291.628 269.551 291.151 270.028C290.197 270.996 289.832 272.483 289.369 273.704C288.443 276.103 287.503 278.531 285.946 280.579C285.3 281.421 284.528 282.221 283.532 282.6C283.322 282.684 283.097 282.74 282.887 282.656C282.704 282.586 282.592 282.418 282.48 282.249C280.614 279.457 279 276.384 278.607 273.045C278.397 271.193 278.565 269.327 278.79 267.474H278.776Z" fill="#FFB78C"/>
<path d="M297.002 188.101C297.269 188.311 297.535 188.536 297.802 188.76C306.571 196.239 313.839 205.261 322.23 213.132C322.847 213.721 323.493 214.311 323.9 215.068C324.952 217.033 323.128 219.348 321.865 220.835C318.259 225.143 313.082 228.103 307.539 229.029C304.817 229.492 302.025 229.464 299.261 229.45C297.732 229.45 296.188 229.422 294.687 229.127C294.743 228.117 294.49 227.247 294.336 226.265C294.154 225.157 294.196 223.978 294.084 222.856C293.845 220.54 293.466 218.239 293.003 215.966C292.091 211.434 290.842 206.986 289.65 202.525C288.976 200.013 288.317 197.473 287.98 194.892C287.84 193.811 287.756 192.731 287.854 191.65C287.98 190.388 288.303 189.251 288.008 187.96C287.854 187.287 286.942 184.775 286.016 184.761C289.944 184.803 293.901 185.589 296.988 188.072L297.002 188.101Z" fill="#F2F2F2"/>
<path d="M293.326 480.831C293.592 484.002 293.101 487.257 290.66 489.222C288.864 490.667 286.268 490.372 284.177 489.881C282.283 489.432 280.529 488.155 279.337 486.626C278.214 485.195 277.737 483.287 276.545 481.869C275.562 480.705 274.075 480.115 272.658 479.54C267.031 477.295 261.321 474.489 257.715 469.62C256.382 467.824 254.768 465.397 256.466 463.208C256.943 462.605 257.631 462.212 258.36 461.945C259.497 461.538 260.718 461.426 261.924 461.398C265.502 461.286 269.108 461.693 272.602 462.521C274.889 463.054 277.134 463.755 279.253 464.737C280.74 465.425 282.157 466.225 283.574 467.038C284.598 467.628 285.889 468.133 286.759 468.918C287.194 469.297 288.106 470.602 288.667 469.592C288.836 469.298 288.85 468.932 288.864 468.582C290.267 470.911 291.684 473.268 292.4 475.892C292.793 477.351 293.171 479.077 293.326 480.831Z" fill="#00A1D4"/>
<path d="M251.415 334.417C251.513 332.985 251.948 331.582 252.397 330.221C256.102 318.772 261.097 306.958 270.89 299.97C273.346 298.216 276.25 296.729 279.323 296.659C280.291 296.631 281.133 297.038 281.989 296.463C282.592 296.07 283.715 293.698 283.336 293.011C287.377 300.391 289.566 308.754 289.762 317.158C289.846 320.456 290.029 324.805 288.906 328.103C288.78 328.467 288.64 328.818 288.485 329.155C286.886 332.55 285.146 335.651 284.206 339.384C283.434 342.442 284.15 344.772 284.108 347.802C284.065 351.717 283.967 355.631 283.939 359.56C283.897 367.516 284.023 375.485 284.585 383.413C284.921 388.099 285.426 392.8 286.577 397.36C288.05 403.155 291.39 408.192 292.414 414.099C293.298 419.291 293.087 424.594 292.863 429.842C292.33 442.484 291.811 455.14 291.277 467.782C291.235 468.933 291.179 470.069 291.137 471.22C291.081 472.426 291.334 473.1 290.155 473.647C288.359 474.489 286.31 474.531 284.374 474.433C279.758 474.194 275.17 473.198 270.876 471.458C269.192 470.77 269.852 469.157 269.81 467.656C269.768 466.449 267.775 441.319 267.004 434.304C266.176 426.769 265.278 419.248 264.338 411.728C263.51 405.077 262.64 398.44 261.728 391.804C261.125 387.426 260.521 383.048 259.848 378.685C259.707 377.745 259.609 376.762 259.357 375.85C257.294 368.54 254.306 361.454 253.267 353.934C252.622 349.261 252.748 344.505 252.004 339.846C251.71 338.036 251.289 336.241 251.415 334.417Z" fill="#333333"/>
<path d="M247.136 485.573C247.206 488.113 246.827 490.625 245.564 492.631C244.007 495.114 240.695 496.083 237.833 495.479C235.476 494.974 233.343 493.557 230.944 493.403C229.513 493.305 228.095 493.655 226.706 494.006C220.392 495.577 214.022 496.967 207.582 497.865C205.225 498.187 202.643 498.131 200.356 497.444C195.992 496.125 188.78 490.246 193.481 485.517C194.575 484.409 196.076 483.791 197.536 483.23C202.924 481.154 208.41 479.385 213.938 477.702C218.933 476.186 223.956 474.741 229.106 473.829C231.659 473.38 234.241 473.058 236.837 472.931C238.422 472.861 241.186 473.689 241.944 471.991C244.385 473.156 245.48 476.439 246.097 478.852C246.616 480.859 247.065 483.23 247.136 485.587V485.573Z" fill="#00A1D4"/>
<path d="M223.69 470.714C223.971 466.954 225.949 393.866 223.522 361.23C223.199 356.922 223.016 352.601 223.059 348.265C223.199 334.445 225.388 320.582 227.17 306.888C227.492 304.46 227.871 301.865 229.527 300.055C228.124 301.584 233.876 308.192 235.083 309.034C237.454 310.718 240.555 311.729 243.474 311.729C248.371 311.869 253.127 310.073 257.505 307.884C261.139 306.06 264.605 303.941 268.323 302.285C269.866 301.598 271.578 301.5 273.037 300.91C273.935 300.517 274.609 299.493 275.436 298.96C276.517 298.273 277.85 297.767 278.986 297.178C279.337 296.996 279.758 296.799 280.137 296.968C280.446 297.108 280.6 297.431 280.726 297.739C283.154 303.548 283.546 310.073 282.466 316.261C281.049 324.328 277.738 332.158 271.522 337.503C268.491 340.113 265.25 342.639 263.173 346.119C261.391 349.093 260.606 352.545 259.876 355.926C257.491 367.179 255.653 378.544 254.193 389.952C252.79 400.91 253.436 411.896 252.285 422.869C251.401 431.385 249.956 439.832 248.763 448.307C247.936 454.158 247.234 460.009 246.659 465.888C246.364 468.862 246.112 471.837 245.887 474.826C245.733 476.902 245.354 478.137 243.474 479.301C241.86 480.298 239.826 480.536 237.96 480.564C233.189 480.62 228.32 479.624 224.251 477.155C223.073 476.439 223.073 475.934 223.311 474.826C223.592 473.507 223.592 472.089 223.69 470.742V470.714Z" fill="#424242"/>
<path d="M288.078 184.916C291.712 185.547 294.996 187.133 297.325 190.711C298.672 192.773 299.472 195.144 300.103 197.53C302.446 206.523 302.025 215.391 299.878 224.315C298.405 230.432 296.034 236.283 293.957 242.205C292.33 246.835 290.885 251.535 289.439 256.236C287.503 262.522 285.553 268.892 285.09 275.444C284.599 282.46 285.819 289.419 286.97 296.308C287.545 299.774 288.12 303.24 288.471 306.733C288.612 308.179 289.201 309.947 289.117 311.378C289.032 312.935 287.714 314.549 286.731 315.671C284.388 318.309 281.161 320.091 277.92 321.368C272.981 323.304 267.719 324.399 262.416 324.637C257.519 324.862 252.622 324.37 247.767 323.781C240.892 322.953 233.862 321.887 227.829 318.505C226.51 317.776 225.78 317.144 225.893 315.615C227.057 300.952 226.454 286.22 225.472 271.571C224.461 256.811 223.044 242.064 222.567 227.261C222.427 222.799 222.301 218.324 222.343 213.848C222.371 211.631 222.651 209.358 222.567 207.141C222.497 205.289 222.736 203.886 224.461 202.791C225.766 201.963 227.338 201.655 228.825 201.22C234.059 199.69 238.549 196.379 243.488 194.05C246.995 192.394 250.7 191.244 254.404 190.135C262.331 187.736 270.399 185.435 278.706 184.789C281.863 184.551 285.118 184.396 288.12 184.916H288.078Z" fill="#2FDEA0"/>
<path d="M242.674 140.788C241.327 143.608 240.387 146.653 238.619 149.235C237.637 150.652 236.43 151.901 235.181 153.093C234.845 153.416 234.48 153.767 234.368 154.216C234.115 155.198 235.041 156.026 235.602 156.882C236.991 158.986 236.135 161.764 235.462 164.206C234.971 166.03 234.606 167.882 234.396 169.762C234.255 170.983 234.199 172.288 234.817 173.34C236.079 175.459 239.138 175.276 241.411 176.202C245.087 177.718 246.504 182.067 247.501 185.912C248.048 188.03 248.595 190.149 249.142 192.268C254.025 191.917 258.922 193.166 263.819 192.885C267.747 192.661 271.606 191.44 274.945 189.377C275.928 188.76 276.994 187.764 276.685 186.655C276.601 186.319 276.391 186.038 276.208 185.744C273.57 181.576 275.1 175.964 277.808 171.839C280.516 167.713 284.29 164.304 286.577 159.926C291.853 149.796 287.447 136.985 277.415 131.836C274.019 130.096 270.273 129.128 266.527 128.412C263.201 127.781 259.792 127.346 256.438 127.795C253.744 128.16 250.587 128.876 248.707 130.994C246.238 133.787 244.273 137.435 242.674 140.788Z" fill="#FFB78C"/>
<path d="M246.013 145.867C250.7 149.332 252.552 155.619 252.215 161.441C253.997 160.642 255.807 159.828 257.757 159.645C259.694 159.463 261.812 160.038 263.033 161.568C264.127 162.957 264.282 164.851 264.506 166.605C264.787 168.822 265.25 171.039 266.218 173.059C267.186 175.08 268.688 176.89 270.666 177.914C273.177 179.219 275.184 176.89 276.699 175.262C278.411 173.41 280.151 171.586 281.54 169.481C283.364 166.745 284.767 163.742 286.058 160.726C286.872 158.832 287.868 156.601 288.289 154.58C288.724 152.504 289.327 150.399 289.243 148.252C289.173 146.176 288.513 144.085 287.138 142.528C286.577 141.882 285.497 141.924 284.711 141.672C283.013 141.138 281.315 141.223 279.562 141.237C275.521 141.279 271.48 140.507 267.747 138.964C265.376 137.981 263.117 136.705 260.676 135.891C259.609 135.54 258.473 135.259 257.364 135.47C255.119 135.891 253.45 138.178 252.243 139.974C250.587 142.415 248.651 144.478 245.999 145.853L246.013 145.867Z" fill="#733118"/>
<path d="M284.809 146.372C284.135 146.134 283.476 145.839 282.845 145.488C282.536 145.32 282.227 145.138 281.876 145.096C281.54 145.053 281.161 145.137 280.81 145.165C272.349 145.979 263.664 144.436 255.989 140.788C252.565 139.16 249.24 137.028 247.093 133.899C246.083 132.44 245.353 130.517 246.097 128.904C246.434 128.174 247.023 127.613 247.641 127.108C250.377 124.905 253.856 123.782 257.364 123.487C260.858 123.207 264.38 123.712 267.789 124.526C274.524 126.125 281.175 129.296 284.795 135.484C285.019 135.877 285.244 136.27 285.567 136.579C285.903 136.901 286.338 137.112 286.731 137.364C288.429 138.431 289.383 140.381 289.804 142.289C290.239 144.254 290.197 146.414 289.481 148.294C289.411 148.477 289.313 148.645 289.243 148.828C289.074 148.098 288.443 147.551 287.769 147.242C287.096 146.933 286.352 146.807 285.623 146.611C285.342 146.541 285.061 146.456 284.795 146.358L284.809 146.372Z" fill="#8C3C1D"/>
<path d="M134.143 137L136.669 132.622L126.847 126.953C125.641 126.252 124.097 126.673 123.396 127.879C122.694 129.086 123.115 130.629 124.322 131.331L134.143 137Z" fill="white"/>
<path d="M164.184 146.021L133.427 128.384C132.838 128.048 132.024 128.09 131.126 128.609C129.316 129.647 127.857 132.173 127.857 134.263C127.857 135.316 128.222 136.059 128.825 136.396L159.581 154.033C158.978 153.696 158.613 152.953 158.613 151.9C158.613 149.81 160.072 147.284 161.882 146.246C162.78 145.727 163.594 145.685 164.184 146.021Z" fill="#80C5FF"/>
<path d="M165.152 148.154C165.152 146.063 163.693 145.207 161.883 146.246C160.073 147.284 158.613 149.81 158.613 151.9C158.613 153.991 160.073 154.847 161.883 153.809C163.693 152.77 165.152 150.245 165.152 148.154Z" fill="#00A1D4"/>
<path d="M132.446 147.902C132.699 146.849 132.993 145.783 133.582 144.885C134.172 143.973 135.112 143.243 136.192 143.145C136.473 141.489 138.297 140.283 139.925 140.648C140.037 139.581 140.724 138.599 141.692 138.136C141.917 138.024 142.169 137.926 142.31 137.715C142.478 137.449 142.408 137.098 142.324 136.803C142.198 136.284 142.085 135.751 142.198 135.218C142.31 134.699 142.689 134.193 143.222 134.123C143.657 134.053 144.064 134.278 144.443 134.488C146.07 135.386 147.684 136.284 149.311 137.196C149.578 137.35 149.858 137.505 150.069 137.729C150.307 137.982 150.434 138.318 150.56 138.641C151.304 140.521 152.033 142.402 152.777 144.282C153.184 145.32 153.605 146.386 153.591 147.509C153.591 148.435 153.282 149.347 152.987 150.231C152.44 151.858 151.893 153.486 151.36 155.114C150.883 156.559 150.392 157.99 149.915 159.435C148.946 162.312 151.907 171.572 152.665 173.452C156.144 182.081 160.326 190.43 165.152 198.372C167.762 202.665 170.582 206.846 173.571 210.901C174.553 210.761 175.535 210.691 176.532 210.621C184.501 210.087 192.443 209.246 200.342 208.095L202.98 208.123C204.018 208.628 205.225 208.586 206.376 208.74C207.526 208.895 208.775 209.33 209.266 210.382C209.589 211.055 209.519 211.855 209.434 212.599C209.21 214.493 208.873 216.373 208.41 218.211C208.312 218.618 208.2 219.039 208.27 219.446C208.354 219.937 208.677 220.344 208.985 220.737C211.511 223.838 214.429 226.644 217.643 229.029C213.419 230.909 208.733 231.471 204.117 231.807C192.822 232.635 181.428 232.271 170.204 230.713C167.636 230.362 165.068 229.927 162.669 228.959C162.023 228.693 161.406 228.328 160.929 227.837C160.354 227.374 159.849 226.784 159.386 226.209C153.899 219.151 150.532 210.705 147.249 202.398C144.765 196.112 142.268 189.813 140.43 183.316C139.391 179.626 134.986 165.426 134.733 164.837C134.186 163.616 133.905 162.255 133.33 161.063C132.755 159.856 132.221 158.706 131.941 157.373C131.295 154.244 131.702 150.989 132.432 147.916L132.446 147.902Z" fill="#FFB78C"/>
<path d="M243.151 223.248C238.689 230.39 231.028 235.385 222.736 236.859C219.831 237.378 216.829 237.49 213.938 236.859C209.027 235.82 205.267 231.821 202.391 227.935C200.412 225.269 198.687 222.364 197.718 219.179C197.087 217.131 196.722 214.858 196.834 212.669C196.933 210.733 197.003 208.389 199.248 207.997C202.096 207.491 204.888 206.748 207.652 205.878C213.938 203.885 220 201.234 226.3 199.241C229.401 198.259 232.572 197.445 235.785 196.968C238.773 196.533 241.692 196.477 244.147 198.554C246.547 200.588 247.108 203.156 247.332 206.145C247.627 209.975 247.122 213.862 245.873 217.496C245.186 219.502 244.274 221.438 243.151 223.248Z" fill="#F2F2F2"/>
</svg>
