<svg width="80" height="80" viewBox="0 0 80 80" fill="none" xmlns="http://www.w3.org/2000/svg">
<rect width="80" height="80" rx="40" fill="#2FDEA0"/>
<g clip-path="url(#clip0_496_68375)">
<path d="M41.6667 38.3333H55C57.7567 38.3333 60 36.09 60 33.3333V28.3333C60 25.5767 57.7567 23.3333 55 23.3333H50.69L48.3333 20.9767C47.7033 20.3467 46.8667 20 45.9767 20H41.6667C38.91 20 36.6667 22.2433 36.6667 25V28.3333H23.3333V21.6667C23.3333 20.745 22.5867 20 21.6667 20C20.7467 20 20 20.745 20 21.6667V45C20 49.595 23.7383 53.3333 28.3333 53.3333H36.6667V55C36.6667 57.7567 38.91 60 41.6667 60H55C57.7567 60 60 57.7567 60 55V50C60 47.2433 57.7567 45 55 45H50.69L48.3333 42.6433C47.7033 42.0133 46.8667 41.6667 45.9767 41.6667H41.6667C38.91 41.6667 36.6667 43.91 36.6667 46.6667V50H28.3333C25.5767 50 23.3333 47.7567 23.3333 45V31.6667H36.6667V33.3333C36.6667 36.09 38.91 38.3333 41.6667 38.3333ZM40 46.6667C40 45.7467 40.7483 45 41.6667 45H45.9767L48.3333 47.3567C48.9633 47.9867 49.8 48.3333 50.69 48.3333H55C55.9183 48.3333 56.6667 49.08 56.6667 50V55C56.6667 55.92 55.9183 56.6667 55 56.6667H41.6667C40.7483 56.6667 40 55.92 40 55V46.6667ZM40 25C40 24.08 40.7483 23.3333 41.6667 23.3333H45.9767L48.3333 25.69C48.9633 26.32 49.8 26.6667 50.69 26.6667H55C55.9183 26.6667 56.6667 27.4133 56.6667 28.3333V33.3333C56.6667 34.2533 55.9183 35 55 35H41.6667C40.7483 35 40 34.2533 40 33.3333V25Z" fill="white"/>
</g>
<defs>
<clipPath id="clip0_496_68375">
<rect width="40" height="40" fill="white" transform="translate(20 20)"/>
</clipPath>
</defs>
</svg>
