<svg width="80" height="80" viewBox="0 0 80 80" fill="none" xmlns="http://www.w3.org/2000/svg">
<rect width="80" height="80" rx="40" fill="#2FDEA0"/>
<path d="M39.9997 33.3333C38.6811 33.3333 37.3922 33.7243 36.2959 34.4568C35.1995 35.1894 34.3451 36.2306 33.8405 37.4488C33.3359 38.6669 33.2039 40.0074 33.4611 41.3006C33.7183 42.5938 34.3533 43.7817 35.2856 44.714C36.218 45.6464 37.4059 46.2813 38.6991 46.5385C39.9923 46.7958 41.3327 46.6638 42.5509 46.1592C43.7691 45.6546 44.8103 44.8001 45.5428 43.7038C46.2754 42.6075 46.6663 41.3185 46.6663 40C46.6663 38.2319 45.964 36.5362 44.7137 35.2859C43.4635 34.0357 41.7678 33.3333 39.9997 33.3333ZM39.9997 43.3333C39.3404 43.3333 38.6959 43.1378 38.1478 42.7715C37.5996 42.4053 37.1724 41.8847 36.9201 41.2756C36.6678 40.6665 36.6018 39.9963 36.7304 39.3497C36.859 38.7031 37.1765 38.1091 37.6427 37.643C38.1088 37.1768 38.7028 36.8593 39.3494 36.7307C39.996 36.6021 40.6662 36.6681 41.2753 36.9204C41.8844 37.1727 42.405 37.5999 42.7712 38.1481C43.1375 38.6962 43.333 39.3407 43.333 40C43.333 40.884 42.9818 41.7319 42.3567 42.357C41.7316 42.9821 40.8837 43.3333 39.9997 43.3333Z" fill="white"/>
<path d="M55.4903 43.1667L54.7503 42.74C55.0835 40.9274 55.0835 39.0693 54.7503 37.2567L55.4903 36.83C56.0594 36.5017 56.5582 36.0645 56.9583 35.5434C57.3584 35.0224 57.652 34.4276 57.8222 33.793C57.9925 33.1585 58.036 32.4966 57.9505 31.8453C57.865 31.1939 57.652 30.5657 57.3237 29.9967C56.9953 29.4276 56.5582 28.9288 56.0371 28.5287C55.516 28.1286 54.9212 27.835 54.2867 27.6648C53.6521 27.4945 52.9903 27.4509 52.3389 27.5365C51.6875 27.622 51.0594 27.835 50.4903 28.1633L49.7487 28.5917C48.3479 27.3949 46.7381 26.4671 45.0003 25.855V25C45.0003 23.6739 44.4735 22.4021 43.5359 21.4645C42.5982 20.5268 41.3264 20 40.0003 20C38.6742 20 37.4025 20.5268 36.4648 21.4645C35.5271 22.4021 35.0003 23.6739 35.0003 25V25.855C33.2626 26.4693 31.6534 27.3993 30.2536 28.5983L29.5086 28.1667C28.3594 27.5036 26.9938 27.3243 25.7123 27.6681C24.4308 28.0119 23.3384 28.8507 22.6753 30C22.0123 31.1493 21.8329 32.5149 22.1768 33.7964C22.5206 35.0779 23.3594 36.1703 24.5086 36.8333L25.2486 37.26C24.9155 39.0726 24.9155 40.9307 25.2486 42.7433L24.5086 43.17C23.3594 43.833 22.5206 44.9255 22.1768 46.207C21.8329 47.4885 22.0123 48.8541 22.6753 50.0033C23.3384 51.1526 24.4308 51.9914 25.7123 52.3352C26.9938 52.679 28.3594 52.4997 29.5086 51.8367L30.2503 51.4083C31.6516 52.6053 33.262 53.5331 35.0003 54.145V55C35.0003 56.3261 35.5271 57.5979 36.4648 58.5355C37.4025 59.4732 38.6742 60 40.0003 60C41.3264 60 42.5982 59.4732 43.5359 58.5355C44.4735 57.5979 45.0003 56.3261 45.0003 55V54.145C46.738 53.5307 48.3472 52.6007 49.747 51.4017L50.492 51.8317C51.6413 52.4947 53.0068 52.674 54.2883 52.3302C55.5698 51.9864 56.6623 51.1476 57.3253 49.9983C57.9884 48.8491 58.1677 47.4835 57.8239 46.202C57.4801 44.9205 56.6413 43.828 55.492 43.165L55.4903 43.1667ZM51.2437 36.8733C51.8081 38.9184 51.8081 41.0782 51.2437 43.1233C51.1451 43.4793 51.1676 43.8579 51.3076 44.1997C51.4475 44.5415 51.6971 44.8271 52.017 45.0117L53.8237 46.055C54.2067 46.276 54.4862 46.6401 54.6008 47.0672C54.7153 47.4944 54.6555 47.9495 54.4345 48.3325C54.2135 48.7155 53.8494 48.995 53.4222 49.1096C52.9951 49.2242 52.54 49.1643 52.157 48.9433L50.347 47.8967C50.0268 47.7112 49.654 47.6376 49.2874 47.6874C48.9208 47.7372 48.5811 47.9076 48.322 48.1717C46.8385 49.6861 44.9696 50.7666 42.917 51.2967C42.5587 51.3888 42.2413 51.5975 42.0146 51.8899C41.788 52.1823 41.6651 52.5417 41.6653 52.9117V55C41.6653 55.442 41.4897 55.866 41.1772 56.1785C40.8646 56.4911 40.4407 56.6667 39.9986 56.6667C39.5566 56.6667 39.1327 56.4911 38.8201 56.1785C38.5076 55.866 38.332 55.442 38.332 55V52.9133C38.3322 52.5434 38.2093 52.1839 37.9827 51.8915C37.756 51.5991 37.4386 51.3904 37.0803 51.2983C35.0276 50.7661 33.1592 49.6833 31.677 48.1667C31.4179 47.9026 31.0782 47.7322 30.7116 47.6824C30.3449 47.6326 29.9722 47.7062 29.652 47.8917L27.8453 48.9367C27.6557 49.0478 27.446 49.1204 27.2282 49.1502C27.0104 49.1799 26.7889 49.1663 26.5764 49.1102C26.3639 49.054 26.1646 48.9563 25.99 48.8228C25.8154 48.6893 25.6689 48.5226 25.559 48.3322C25.4491 48.1419 25.378 47.9317 25.3496 47.7137C25.3213 47.4957 25.3364 47.2743 25.394 47.0622C25.4516 46.8501 25.5505 46.6514 25.6852 46.4777C25.8199 46.304 25.9876 46.1586 26.1786 46.05L27.9853 45.0067C28.3052 44.8221 28.5548 44.5365 28.6947 44.1947C28.8347 43.8529 28.8572 43.4743 28.7586 43.1183C28.1942 41.0732 28.1942 38.9134 28.7586 36.8683C28.8554 36.5131 28.8319 36.1359 28.6917 35.7955C28.5515 35.4551 28.3025 35.1707 27.9836 34.9867L26.177 33.9433C25.794 33.7223 25.5144 33.3582 25.3999 32.9311C25.2853 32.504 25.3451 32.0488 25.5661 31.6658C25.7872 31.2828 26.1513 31.0033 26.5784 30.8887C27.0055 30.7742 27.4606 30.834 27.8436 31.055L29.6536 32.1017C29.9729 32.2875 30.345 32.362 30.7112 32.3134C31.0774 32.2649 31.4172 32.096 31.677 31.8333C33.1605 30.3189 35.0294 29.2384 37.082 28.7083C37.4414 28.6159 37.7596 28.4063 37.9864 28.1125C38.2131 27.8188 38.3353 27.4577 38.3337 27.0867V25C38.3337 24.558 38.5092 24.134 38.8218 23.8215C39.1344 23.5089 39.5583 23.3333 40.0003 23.3333C40.4423 23.3333 40.8663 23.5089 41.1788 23.8215C41.4914 24.134 41.667 24.558 41.667 25V27.0867C41.6668 27.4566 41.7897 27.8161 42.0163 28.1085C42.2429 28.4009 42.5604 28.6096 42.9187 28.7017C44.972 29.2336 46.841 30.3165 48.3236 31.8333C48.5828 32.0974 48.9224 32.2678 49.2891 32.3176C49.6557 32.3674 50.0285 32.2938 50.3487 32.1083L52.1553 31.0633C52.3449 30.9522 52.5547 30.8796 52.7724 30.8498C52.9902 30.8201 53.2117 30.8337 53.4242 30.8898C53.6367 30.946 53.836 31.0437 54.0106 31.1772C54.1852 31.3107 54.3317 31.4774 54.4416 31.6678C54.5515 31.8581 54.6227 32.0683 54.651 32.2863C54.6793 32.5043 54.6643 32.7257 54.6067 32.9378C54.5491 33.1499 54.4501 33.3486 54.3154 33.5223C54.1808 33.696 54.0131 33.8414 53.822 33.95L52.0153 34.9933C51.6971 35.1778 51.4488 35.4625 51.3092 35.8028C51.1696 36.1432 51.1466 36.5202 51.2437 36.875V36.8733Z" fill="white"/>
</svg>
