<svg width="240" height="240" viewBox="0 0 240 240" fill="none" xmlns="http://www.w3.org/2000/svg">
<path d="M121.378 208.677C120.386 208.677 119.404 208.572 118.464 208.362C118.336 208.333 118.254 208.204 118.283 208.076C118.312 207.948 118.441 207.866 118.569 207.895C119.474 208.093 120.421 208.198 121.378 208.198C121.513 208.198 121.618 208.304 121.618 208.438C121.618 208.572 121.513 208.677 121.378 208.677ZM122.424 208.642C122.301 208.642 122.196 208.549 122.184 208.42C122.173 208.286 122.272 208.175 122.406 208.163C123.37 208.088 124.304 207.913 125.18 207.633C125.309 207.592 125.443 207.662 125.484 207.79C125.525 207.918 125.455 208.053 125.326 208.094C124.415 208.379 123.446 208.566 122.447 208.642C122.441 208.642 122.435 208.642 122.43 208.642H122.424ZM115.807 207.399C115.772 207.399 115.731 207.387 115.696 207.37C115.579 207.312 115.468 207.247 115.357 207.183L113.191 205.929C113.074 205.865 113.039 205.713 113.103 205.602C113.167 205.485 113.319 205.45 113.43 205.514L115.597 206.769C115.702 206.827 115.807 206.891 115.918 206.944C116.035 207.008 116.082 207.148 116.017 207.271C115.976 207.352 115.889 207.399 115.807 207.399ZM127.855 206.88C127.773 206.88 127.691 206.839 127.645 206.763C127.58 206.646 127.615 206.5 127.732 206.436L130.226 204.983C130.343 204.913 130.489 204.954 130.553 205.071C130.617 205.188 130.582 205.333 130.465 205.398L127.972 206.85C127.931 206.874 127.89 206.885 127.849 206.885L127.855 206.88ZM110.814 204.516C110.773 204.516 110.732 204.505 110.691 204.482L108.198 203.035C108.081 202.97 108.046 202.819 108.11 202.708C108.174 202.591 108.326 202.556 108.437 202.62L110.931 204.067C111.048 204.132 111.082 204.283 111.018 204.394C110.972 204.47 110.896 204.516 110.808 204.516H110.814ZM132.836 203.974C132.755 203.974 132.673 203.933 132.626 203.857C132.562 203.74 132.597 203.594 132.714 203.53L135.207 202.077C135.318 202.007 135.47 202.048 135.534 202.165C135.599 202.282 135.564 202.428 135.447 202.492L132.953 203.945C132.912 203.968 132.871 203.98 132.831 203.98L132.836 203.974ZM105.821 201.622C105.78 201.622 105.739 201.611 105.698 201.587L103.204 200.14C103.088 200.076 103.053 199.924 103.117 199.814C103.181 199.697 103.333 199.662 103.444 199.726L105.938 201.173C106.054 201.237 106.089 201.389 106.025 201.5C105.978 201.576 105.903 201.622 105.815 201.622H105.821ZM137.824 201.068C137.742 201.068 137.66 201.027 137.613 200.951C137.549 200.835 137.584 200.689 137.701 200.624L140.195 199.172C140.311 199.102 140.457 199.142 140.522 199.259C140.586 199.376 140.551 199.522 140.434 199.586L137.94 201.039C137.9 201.062 137.859 201.074 137.818 201.074L137.824 201.068ZM100.833 198.728C100.793 198.728 100.752 198.716 100.711 198.693L98.2171 197.246C98.1003 197.182 98.0652 197.03 98.1294 196.919C98.1937 196.803 98.3397 196.767 98.4565 196.832L100.95 198.279C101.067 198.343 101.102 198.495 101.038 198.605C100.991 198.681 100.915 198.728 100.828 198.728H100.833ZM142.805 198.162C142.723 198.162 142.642 198.121 142.595 198.045C142.531 197.929 142.566 197.783 142.682 197.719L145.176 196.266C145.287 196.202 145.439 196.236 145.503 196.353C145.567 196.47 145.532 196.616 145.415 196.68L142.922 198.133C142.881 198.156 142.84 198.168 142.799 198.168L142.805 198.162ZM95.8402 195.84C95.7994 195.84 95.7585 195.828 95.7176 195.805L93.2239 194.358C93.1072 194.293 93.072 194.142 93.1363 194.031C93.2005 193.914 93.3465 193.879 93.4633 193.943L95.957 195.39C96.0738 195.455 96.1089 195.606 96.0447 195.717C95.998 195.793 95.922 195.84 95.8344 195.84H95.8402ZM147.787 195.256C147.705 195.256 147.623 195.215 147.576 195.139C147.512 195.023 147.547 194.877 147.664 194.813L150.158 193.36C150.274 193.29 150.42 193.331 150.485 193.447C150.549 193.564 150.514 193.71 150.397 193.774L147.903 195.227C147.862 195.25 147.822 195.262 147.781 195.262L147.787 195.256ZM90.847 192.946C90.8062 192.946 90.7653 192.934 90.7244 192.911L88.2308 191.463C88.114 191.399 88.079 191.247 88.1432 191.137C88.2075 191.02 88.3534 190.985 88.4702 191.049L90.9638 192.496C91.0806 192.56 91.1157 192.712 91.0515 192.823C91.0048 192.899 90.9288 192.946 90.8412 192.946H90.847ZM152.768 192.35C152.686 192.35 152.604 192.309 152.558 192.234C152.493 192.117 152.529 191.971 152.645 191.907L155.139 190.454C155.256 190.384 155.402 190.425 155.466 190.541C155.53 190.658 155.495 190.804 155.378 190.868L152.885 192.321C152.844 192.344 152.803 192.356 152.762 192.356L152.768 192.35ZM85.8597 190.057C85.8188 190.057 85.778 190.045 85.7371 190.022L83.2434 188.575C83.1266 188.511 83.0916 188.359 83.1559 188.248C83.226 188.137 83.3662 188.096 83.483 188.161L85.9766 189.608C86.0934 189.672 86.1284 189.824 86.0642 189.935C86.0174 190.01 85.9415 190.057 85.8539 190.057H85.8597ZM157.75 189.45C157.668 189.45 157.586 189.41 157.539 189.334C157.475 189.217 157.51 189.071 157.627 189.007L160.121 187.554C160.237 187.484 160.383 187.525 160.447 187.641C160.512 187.758 160.477 187.904 160.36 187.968L157.866 189.421C157.825 189.444 157.785 189.456 157.744 189.456L157.75 189.45ZM80.8667 187.163C80.8258 187.163 80.7848 187.151 80.7439 187.128L78.2502 185.681C78.1334 185.617 78.0985 185.465 78.1627 185.354C78.2269 185.237 78.373 185.202 78.4898 185.266L80.9834 186.714C81.1002 186.778 81.1352 186.929 81.071 187.04C81.0243 187.116 80.9484 187.163 80.8608 187.163H80.8667ZM162.737 186.544C162.655 186.544 162.573 186.503 162.527 186.427C162.462 186.311 162.497 186.165 162.614 186.101L165.108 184.648C165.225 184.578 165.371 184.619 165.435 184.735C165.499 184.852 165.464 184.998 165.347 185.062L162.854 186.515C162.813 186.539 162.772 186.55 162.731 186.55L162.737 186.544ZM75.8793 184.274C75.8385 184.274 75.7976 184.263 75.7567 184.239L73.2631 182.792C73.1463 182.728 73.1111 182.577 73.1754 182.466C73.2396 182.349 73.3915 182.314 73.5024 182.378L75.9961 183.825C76.1129 183.889 76.1479 184.041 76.0836 184.152C76.0369 184.228 75.9611 184.274 75.8735 184.274H75.8793ZM167.718 183.638C167.637 183.638 167.555 183.597 167.508 183.522C167.444 183.405 167.479 183.259 167.596 183.195L170.089 181.742C170.206 181.672 170.352 181.713 170.416 181.829C170.481 181.946 170.446 182.092 170.329 182.156L167.835 183.609C167.794 183.633 167.753 183.644 167.713 183.644L167.718 183.638ZM70.8862 181.38C70.8453 181.38 70.8044 181.368 70.7635 181.345L68.2699 179.898C68.1531 179.834 68.1179 179.682 68.1822 179.571C68.2464 179.46 68.3983 179.42 68.5093 179.484L71.0029 180.931C71.1197 180.995 71.1547 181.147 71.0905 181.258C71.0437 181.333 70.9679 181.38 70.8803 181.38H70.8862ZM172.7 180.733C172.618 180.733 172.536 180.692 172.49 180.616C172.425 180.499 172.46 180.353 172.577 180.289L175.071 178.836C175.188 178.766 175.334 178.807 175.398 178.924C175.462 179.04 175.427 179.186 175.31 179.25L172.817 180.703C172.776 180.727 172.735 180.738 172.694 180.738L172.7 180.733ZM65.893 178.492C65.8521 178.492 65.8112 178.48 65.7704 178.457L63.2767 177.01C63.1599 176.946 63.1249 176.794 63.1891 176.683C63.2534 176.566 63.4051 176.531 63.5161 176.596L66.0097 178.043C66.1265 178.107 66.1617 178.259 66.0974 178.369C66.0507 178.445 65.9747 178.492 65.8871 178.492H65.893ZM177.681 177.827C177.599 177.827 177.518 177.786 177.471 177.71C177.407 177.593 177.442 177.447 177.559 177.383L180.052 175.93C180.169 175.86 180.315 175.901 180.379 176.018C180.444 176.134 180.409 176.28 180.292 176.344L177.798 177.798C177.757 177.821 177.716 177.832 177.675 177.832L177.681 177.827ZM60.9056 175.598C60.8648 175.598 60.8239 175.586 60.783 175.563L58.2893 174.116C58.1725 174.051 58.1376 173.9 58.2018 173.789C58.266 173.672 58.4179 173.637 58.5289 173.701L61.0224 175.148C61.1392 175.213 61.1743 175.364 61.1101 175.475C61.0634 175.551 60.9874 175.598 60.8998 175.598H60.9056ZM182.669 174.921C182.587 174.921 182.505 174.88 182.458 174.804C182.394 174.687 182.429 174.541 182.546 174.477L185.04 173.024C185.156 172.954 185.302 172.995 185.367 173.112C185.431 173.229 185.396 173.374 185.279 173.439L182.785 174.892C182.744 174.915 182.704 174.926 182.663 174.926L182.669 174.921ZM55.9124 172.709C55.8716 172.709 55.8307 172.698 55.7898 172.674L54.3006 171.811C53.9502 171.606 53.6174 171.385 53.3137 171.145C53.2086 171.064 53.1912 170.912 53.2729 170.807C53.3547 170.702 53.5064 170.684 53.6115 170.766C53.8977 170.994 54.2131 171.204 54.546 171.396L56.0352 172.26C56.152 172.324 56.187 172.476 56.1228 172.587C56.076 172.663 56 172.709 55.9124 172.709ZM187.65 172.015C187.568 172.015 187.487 171.974 187.44 171.892C187.376 171.776 187.411 171.63 187.527 171.566L187.814 171.396C188.561 170.959 189.203 170.434 189.717 169.838C189.805 169.739 189.957 169.727 190.056 169.815C190.155 169.903 190.167 170.054 190.079 170.153C189.53 170.79 188.847 171.35 188.053 171.811L187.767 171.98C187.732 172.003 187.685 172.015 187.644 172.015H187.65ZM51.6143 169.01C51.5267 169.01 51.4449 168.963 51.3982 168.881C50.9777 168.059 50.7617 167.177 50.7617 166.267C50.7617 166.168 50.7617 166.069 50.7676 165.97C50.7734 165.836 50.8785 165.742 51.0186 165.742C51.153 165.748 51.2522 165.865 51.2463 165.993C51.2463 166.081 51.2405 166.174 51.2405 166.262C51.2405 167.096 51.439 167.901 51.8245 168.654C51.8829 168.77 51.8362 168.916 51.7194 168.975C51.6844 168.992 51.6494 169.004 51.6085 169.004L51.6143 169.01ZM191.201 167.697C191.201 167.697 191.166 167.697 191.148 167.691C191.02 167.662 190.938 167.534 190.967 167.405C191.049 167.032 191.09 166.652 191.09 166.267C191.09 165.73 191.002 165.199 190.839 164.686C190.798 164.558 190.868 164.423 190.996 164.382C191.125 164.342 191.259 164.412 191.3 164.54C191.481 165.1 191.569 165.678 191.574 166.267C191.574 166.687 191.528 167.102 191.434 167.51C191.411 167.621 191.312 167.697 191.201 167.697ZM51.8888 163.513C51.8421 163.513 51.8012 163.501 51.7603 163.478C51.6494 163.408 51.6143 163.256 51.6843 163.145C52.1924 162.34 52.8932 161.634 53.7692 161.039C53.8802 160.963 54.0262 160.992 54.1022 161.103C54.1781 161.214 54.1488 161.36 54.0378 161.436C53.2203 161.99 52.5663 162.649 52.0932 163.402C52.0465 163.472 51.9705 163.513 51.8888 163.513ZM189.56 162.428C189.495 162.428 189.437 162.404 189.39 162.358C188.935 161.897 188.398 161.488 187.79 161.138L187.095 160.736C186.978 160.671 186.943 160.52 187.008 160.409C187.072 160.292 187.224 160.257 187.335 160.321L188.03 160.724C188.672 161.097 189.244 161.529 189.729 162.019C189.823 162.113 189.823 162.264 189.729 162.358C189.682 162.404 189.618 162.428 189.56 162.428ZM56.3855 160.012C56.3038 160.012 56.2221 159.971 56.1754 159.895C56.1111 159.779 56.1461 159.633 56.2629 159.568L58.7566 158.116C58.8675 158.046 59.0194 158.086 59.0836 158.203C59.1479 158.32 59.1128 158.466 58.996 158.53L56.5023 159.983C56.4614 160.006 56.4206 160.018 56.3797 160.018L56.3855 160.012ZM184.724 159.323C184.683 159.323 184.642 159.312 184.602 159.288L182.108 157.841C181.991 157.777 181.956 157.625 182.02 157.514C182.085 157.398 182.236 157.363 182.347 157.427L184.841 158.874C184.958 158.938 184.993 159.09 184.929 159.201C184.882 159.277 184.806 159.323 184.718 159.323H184.724ZM61.367 157.106C61.2853 157.106 61.2036 157.065 61.1569 156.989C61.0926 156.873 61.1276 156.727 61.2444 156.663L63.7381 155.21C63.8549 155.139 64.0009 155.181 64.0651 155.297C64.1294 155.414 64.0942 155.56 63.9775 155.624L61.4838 157.077C61.4429 157.1 61.402 157.112 61.3612 157.112L61.367 157.106ZM179.731 156.429C179.69 156.429 179.649 156.418 179.608 156.394L177.115 154.947C176.998 154.883 176.963 154.731 177.027 154.62C177.091 154.504 177.237 154.469 177.354 154.533L179.848 155.98C179.965 156.044 180 156.196 179.935 156.307C179.889 156.383 179.813 156.429 179.725 156.429H179.731ZM66.3485 154.2C66.2667 154.2 66.1849 154.159 66.1382 154.084C66.074 153.967 66.1091 153.821 66.2259 153.757L68.7196 152.304C68.8364 152.234 68.9822 152.275 69.0465 152.391C69.1107 152.508 69.0757 152.654 68.9589 152.718L66.4653 154.171C66.4244 154.194 66.3835 154.206 66.3427 154.206L66.3485 154.2ZM174.738 153.541C174.697 153.541 174.656 153.529 174.615 153.506L172.122 152.059C172.005 151.994 171.97 151.843 172.034 151.732C172.098 151.615 172.25 151.58 172.361 151.644L174.855 153.091C174.972 153.156 175.007 153.307 174.942 153.418C174.896 153.494 174.82 153.541 174.732 153.541H174.738ZM71.33 151.294C71.2482 151.294 71.1664 151.253 71.1197 151.178C71.0555 151.061 71.0906 150.915 71.2074 150.851L73.701 149.398C73.8178 149.328 73.9637 149.369 74.028 149.485C74.0922 149.602 74.0572 149.748 73.9404 149.812L71.4468 151.265C71.4059 151.288 71.365 151.3 71.3241 151.3L71.33 151.294ZM169.751 150.647C169.71 150.647 169.669 150.635 169.628 150.611L167.134 149.164C167.018 149.1 166.982 148.948 167.047 148.838C167.117 148.721 167.257 148.686 167.374 148.75L169.867 150.197C169.984 150.261 170.019 150.413 169.955 150.524C169.908 150.6 169.832 150.647 169.745 150.647H169.751ZM76.3173 148.388C76.2356 148.388 76.1538 148.348 76.107 148.272C76.0428 148.155 76.0779 148.009 76.1947 147.945L78.6882 146.492C78.805 146.422 78.9511 146.463 79.0153 146.58C79.0796 146.696 79.0446 146.842 78.9278 146.906L76.4341 148.359C76.3932 148.383 76.3524 148.394 76.3115 148.394L76.3173 148.388ZM164.757 147.752C164.717 147.752 164.676 147.741 164.635 147.717L162.141 146.27C162.024 146.206 161.989 146.054 162.053 145.943C162.118 145.827 162.27 145.792 162.381 145.856L164.874 147.303C164.991 147.367 165.026 147.519 164.962 147.63C164.915 147.706 164.839 147.752 164.752 147.752H164.757ZM81.2988 145.482C81.2171 145.482 81.1352 145.442 81.0885 145.366C81.0243 145.249 81.0593 145.103 81.1761 145.039L83.6697 143.586C83.7865 143.516 83.9326 143.557 83.9968 143.674C84.061 143.79 84.0261 143.936 83.9093 144L81.4156 145.453C81.3747 145.477 81.3339 145.488 81.293 145.488L81.2988 145.482ZM159.764 144.864C159.723 144.864 159.683 144.852 159.642 144.829L157.148 143.382C157.031 143.318 156.996 143.166 157.06 143.055C157.125 142.938 157.271 142.903 157.387 142.967L159.881 144.415C159.998 144.479 160.033 144.63 159.969 144.741C159.922 144.817 159.846 144.864 159.758 144.864H159.764ZM86.2802 142.576C86.1984 142.576 86.1167 142.536 86.07 142.46C86.0058 142.343 86.0408 142.197 86.1576 142.133L88.6512 140.68C88.768 140.61 88.9141 140.651 88.9783 140.768C89.0425 140.884 89.0076 141.03 88.8908 141.094L86.3971 142.547C86.3562 142.571 86.3152 142.582 86.2743 142.582L86.2802 142.576ZM154.777 141.97C154.736 141.97 154.695 141.958 154.654 141.935L152.161 140.487C152.044 140.423 152.009 140.272 152.073 140.161C152.137 140.044 152.283 140.009 152.4 140.073L154.894 141.52C155.011 141.584 155.046 141.736 154.981 141.847C154.935 141.923 154.859 141.97 154.771 141.97H154.777ZM91.2617 139.671C91.1799 139.671 91.0982 139.63 91.0515 139.554C90.9873 139.437 91.0223 139.291 91.139 139.227L93.6327 137.774C93.7495 137.704 93.8955 137.745 93.9598 137.862C94.024 137.978 93.9889 138.124 93.8721 138.188L91.3786 139.642C91.3377 139.665 91.2967 139.677 91.2558 139.677L91.2617 139.671ZM149.784 139.081C149.743 139.081 149.702 139.07 149.661 139.046L147.167 137.599C147.051 137.535 147.016 137.383 147.08 137.272C147.15 137.156 147.29 137.121 147.407 137.185L149.901 138.632C150.017 138.696 150.052 138.848 149.988 138.959C149.941 139.035 149.866 139.081 149.778 139.081H149.784ZM96.2432 136.765C96.1614 136.765 96.0797 136.724 96.033 136.648C95.9688 136.531 96.0037 136.386 96.1205 136.321L98.6142 134.868C98.731 134.798 98.877 134.839 98.9413 134.956C99.0055 135.072 98.9704 135.218 98.8536 135.283L96.3599 136.736C96.319 136.759 96.2782 136.771 96.2373 136.771L96.2432 136.765ZM144.797 136.187C144.756 136.187 144.715 136.175 144.674 136.152L142.18 134.705C142.063 134.641 142.028 134.489 142.093 134.378C142.157 134.262 142.303 134.227 142.42 134.291L144.913 135.738C145.03 135.802 145.065 135.954 145.001 136.065C144.954 136.141 144.878 136.187 144.791 136.187H144.797ZM101.23 133.859C101.149 133.859 101.067 133.818 101.02 133.742C100.956 133.626 100.991 133.48 101.108 133.415L103.602 131.962C103.718 131.898 103.864 131.933 103.929 132.05C103.993 132.167 103.958 132.312 103.841 132.377L101.347 133.83C101.306 133.853 101.266 133.865 101.225 133.865L101.23 133.859ZM139.803 133.299C139.762 133.299 139.722 133.287 139.681 133.264L137.187 131.817C137.07 131.752 137.035 131.601 137.099 131.49C137.164 131.373 137.31 131.338 137.426 131.402L139.92 132.849C140.037 132.914 140.072 133.065 140.008 133.176C139.961 133.252 139.885 133.299 139.798 133.299H139.803ZM106.212 130.953C106.13 130.953 106.048 130.912 106.002 130.836C105.937 130.72 105.973 130.574 106.089 130.51L108.583 129.057C108.7 128.987 108.846 129.027 108.91 129.144C108.974 129.261 108.939 129.407 108.822 129.471L106.329 130.924C106.288 130.947 106.247 130.959 106.206 130.959L106.212 130.953ZM134.81 130.404C134.769 130.404 134.728 130.393 134.688 130.369L132.194 128.922C132.077 128.858 132.042 128.706 132.106 128.596C132.171 128.479 132.322 128.444 132.433 128.508L134.927 129.955C135.044 130.019 135.079 130.171 135.015 130.282C134.968 130.358 134.892 130.404 134.804 130.404H134.81ZM111.193 128.047C111.112 128.047 111.03 128.006 110.983 127.93C110.919 127.814 110.954 127.668 111.071 127.604L113.565 126.151C113.681 126.086 113.827 126.121 113.891 126.238C113.956 126.355 113.921 126.501 113.804 126.565L111.31 128.018C111.269 128.041 111.229 128.053 111.188 128.053L111.193 128.047ZM129.823 127.516C129.782 127.516 129.741 127.505 129.7 127.481L127.207 126.034C127.09 125.97 127.055 125.818 127.119 125.707C127.183 125.591 127.335 125.555 127.446 125.62L129.94 127.067C130.056 127.131 130.092 127.283 130.027 127.393C129.981 127.469 129.905 127.516 129.817 127.516H129.823ZM116.222 125.223C116.128 125.223 116.035 125.164 116 125.071C115.947 124.949 116.006 124.808 116.128 124.756C117.004 124.394 117.956 124.137 118.961 123.992C119.095 123.974 119.212 124.062 119.235 124.196C119.253 124.33 119.165 124.447 119.031 124.47C118.061 124.61 117.15 124.861 116.309 125.205C116.28 125.217 116.251 125.223 116.216 125.223H116.222ZM124.707 124.878C124.707 124.878 124.66 124.878 124.637 124.867C123.761 124.598 122.821 124.429 121.857 124.365C121.723 124.353 121.624 124.243 121.635 124.108C121.641 123.974 121.758 123.869 121.892 123.887C122.897 123.957 123.866 124.132 124.777 124.406C124.906 124.447 124.976 124.581 124.935 124.704C124.906 124.809 124.806 124.873 124.707 124.873V124.878Z" fill="#2FDEA0"/>
<path d="M121.378 205.287C119.813 205.287 118.254 204.942 117.057 204.248L56.0003 168.876C54.809 168.187 54.1548 167.259 54.1548 166.256C54.1548 165.258 54.8031 164.33 55.9886 163.641L116.625 128.286C119.008 126.898 122.891 126.892 125.28 128.28L186.336 163.653C187.528 164.342 188.182 165.27 188.182 166.273C188.182 167.271 187.533 168.199 186.348 168.887L125.712 204.242C124.52 204.937 122.949 205.287 121.378 205.287ZM120.958 127.72C119.475 127.72 117.991 128.047 116.864 128.706L56.228 164.062C55.2002 164.663 54.6337 165.445 54.6337 166.261C54.6337 167.084 55.206 167.866 56.2397 168.461L117.296 203.834C119.551 205.141 123.218 205.141 125.466 203.828L186.097 168.473C187.125 167.872 187.691 167.09 187.691 166.273C187.691 165.45 187.119 164.669 186.085 164.073L125.028 128.701C123.901 128.047 122.424 127.72 120.952 127.72H120.958Z" fill="#2FDEA0"/>
<path d="M172.533 131.608L151.859 143.549L152.099 143.963L172.773 132.023L172.533 131.608Z" fill="#2FDEA0"/>
<path d="M174.895 130.381C173.961 129.839 172.443 129.839 171.508 130.381C170.574 130.924 170.574 131.799 171.508 132.336C172.443 132.879 173.961 132.879 174.895 132.336C175.83 131.793 175.83 130.918 174.895 130.381Z" fill="#2FDEA0"/>
<path d="M153.589 187.53L153.35 187.945L174.03 199.875L174.269 199.46L153.589 187.53Z" fill="#2FDEA0"/>
<path d="M65.0387 138.745L64.7993 139.159L85.4794 151.089L85.7188 150.675L65.0387 138.745Z" fill="#2FDEA0"/>
<path d="M172.133 198.547C173.114 197.981 174.697 197.981 175.678 198.547C176.659 199.113 176.659 200.029 175.678 200.589C174.697 201.155 173.114 201.155 172.133 200.589C171.152 200.023 171.152 199.107 172.133 198.547Z" fill="#2FDEA0"/>
<path d="M63.0024 137.786C63.9835 137.22 65.5662 137.22 66.5473 137.786C67.5284 138.352 67.5284 139.268 66.5473 139.828C65.5662 140.394 63.9835 140.394 63.0024 139.828C62.0213 139.262 62.0213 138.346 63.0024 137.786Z" fill="#2FDEA0"/>
<path d="M85.1789 185.657L64.5049 197.598L64.7445 198.012L85.4185 186.072L85.1789 185.657Z" fill="#2FDEA0"/>
<path d="M176.988 138.197L156.313 150.137L156.553 150.552L177.227 138.611L176.988 138.197Z" fill="#2FDEA0"/>
<path d="M66.769 196.412C65.7879 195.846 64.2052 195.846 63.2241 196.412C62.243 196.978 62.243 197.894 63.2241 198.454C64.2052 199.02 65.7879 199.02 66.769 198.454C67.7501 197.888 67.7501 196.972 66.769 196.412Z" fill="#2FDEA0"/>
<path d="M178.698 137.354C177.716 136.788 176.134 136.788 175.153 137.354C174.172 137.92 174.172 138.836 175.153 139.396C176.134 139.962 177.716 139.962 178.698 139.396C179.679 138.83 179.679 137.914 178.698 137.354Z" fill="#2FDEA0"/>
<path d="M50.1016 237.911C49.43 237.917 48.7526 237.771 48.2387 237.473L21.521 221.958C21.0246 221.672 20.7734 221.292 20.7734 220.913L20.8144 206.139C20.8144 206.518 21.0655 206.897 21.5619 207.183L48.2796 222.699C48.7936 222.996 49.4651 223.142 50.1426 223.136L50.1016 237.911Z" fill="#E7E6F1"/>
<path d="M50.1425 223.136C50.7849 223.13 51.4215 222.985 51.9178 222.699L75.7566 209.004C76.2646 208.712 76.5156 208.327 76.5156 207.948L76.4749 222.722C76.4749 223.107 76.2237 223.486 75.7156 223.778L51.8769 237.473C51.3864 237.759 50.744 237.899 50.1016 237.911L50.1425 223.136Z" fill="#CFCDE2"/>
<path d="M21.5734 205.083C20.569 205.66 20.5631 206.606 21.5617 207.183L48.2795 222.699C49.2781 223.282 50.9075 223.282 51.9119 222.699L75.7506 209.004C76.7551 208.426 76.7608 207.481 75.7622 206.903L49.0444 191.387C48.0458 190.804 46.4165 190.81 45.412 191.387L21.5734 205.083Z" fill="#F4F4FB"/>
<path d="M28.5522 206.226L30.0705 207.107L50.125 218.754L67.3119 208.881L68.8245 208.018L47.2518 195.484L28.5522 206.226Z" fill="#02A3A3"/>
<path d="M30.0703 207.107L50.1247 218.754L67.3117 208.881L47.2515 197.234L30.0703 207.107Z" fill="#00A1D4"/>
<path d="M47.9988 224.117L22.0928 209.173V221.211L47.9988 236.155V224.117Z" fill="#2AC489"/>
<path d="M46.4048 224.607L47.0471 224.98V224.233L46.4048 223.866V224.607Z" fill="#2FDEA0"/>
<path d="M44.8452 223.708L45.4935 224.081V223.334L44.8452 222.967V223.708Z" fill="#2FDEA0"/>
<path d="M43.292 222.809L43.9343 223.183V222.436L43.292 222.068V222.809Z" fill="#2FDEA0"/>
<path d="M41.7324 221.911L42.3747 222.284V221.538L41.7324 221.17V221.911Z" fill="#2FDEA0"/>
<path d="M40.1733 221.012L40.8216 221.386V220.639L40.1733 220.271V221.012Z" fill="#2FDEA0"/>
<path d="M38.6201 220.114L39.2624 220.487V219.74L38.6201 219.373V220.114Z" fill="#2FDEA0"/>
<path d="M37.061 219.215L37.7033 219.589V218.842L37.061 218.474V219.215Z" fill="#2FDEA0"/>
<path d="M35.5015 218.316L36.1498 218.69V217.943L35.5015 217.575V218.316Z" fill="#2FDEA0"/>
<path d="M33.9424 217.418L34.5905 217.791V217.044L33.9424 216.677V217.418Z" fill="#2FDEA0"/>
<path d="M32.3887 216.519L33.031 216.893V216.152L32.3887 215.778V216.519Z" fill="#2FDEA0"/>
<path d="M30.8296 215.621L31.472 215.994V215.253L30.8296 214.88V215.621Z" fill="#2FDEA0"/>
<path d="M29.27 214.722L29.9182 215.095V214.354L29.27 213.981V214.722Z" fill="#2FDEA0"/>
<path d="M27.7168 213.823L28.3591 214.197V213.456L27.7168 213.082V213.823Z" fill="#2FDEA0"/>
<path d="M26.1572 212.925L26.7997 213.298V212.557L26.1572 212.184V212.925Z" fill="#2FDEA0"/>
<path d="M24.5986 212.026L25.2468 212.4V211.659L24.5986 211.285V212.026Z" fill="#2FDEA0"/>
<path d="M23.0449 211.128L23.6872 211.501V210.76L23.0449 210.386V211.128Z" fill="#2FDEA0"/>
<path d="M46.4048 226.533L47.0471 226.906V226.159L46.4048 225.792V226.533Z" fill="#2FDEA0"/>
<path d="M44.8452 225.634L45.4935 226.007V225.26L44.8452 224.893V225.634Z" fill="#2FDEA0"/>
<path d="M43.292 224.735L43.9343 225.108V224.362L43.292 223.994V224.735Z" fill="#2FDEA0"/>
<path d="M41.7324 223.837L42.3747 224.21V223.469L41.7324 223.095V223.837Z" fill="#2FDEA0"/>
<path d="M40.1733 222.938L40.8216 223.312V222.565L40.1733 222.197V222.938Z" fill="#2FDEA0"/>
<path d="M38.6201 222.039L39.2624 222.413V221.672L38.6201 221.298V222.039Z" fill="#2FDEA0"/>
<path d="M37.061 221.141L37.7033 221.514V220.773L37.061 220.4V221.141Z" fill="#2FDEA0"/>
<path d="M35.5015 220.242L36.1498 220.616V219.875L35.5015 219.501V220.242Z" fill="#2FDEA0"/>
<path d="M33.9424 219.343L34.5905 219.717V218.976L33.9424 218.602V219.343Z" fill="#2FDEA0"/>
<path d="M32.3887 218.445L33.031 218.818V218.077L32.3887 217.704V218.445Z" fill="#2FDEA0"/>
<path d="M30.8296 217.546L31.472 217.92V217.179L30.8296 216.805V217.546Z" fill="#2FDEA0"/>
<path d="M29.27 216.648L29.9182 217.021V216.28L29.27 215.906V216.648Z" fill="#2FDEA0"/>
<path d="M27.7168 215.749L28.3591 216.122V215.381L27.7168 215.008V215.749Z" fill="#2FDEA0"/>
<path d="M26.1572 214.851L26.7997 215.224V214.483L26.1572 214.109V214.851Z" fill="#2FDEA0"/>
<path d="M24.5986 213.952L25.2468 214.325V213.584L24.5986 213.211V213.952Z" fill="#2FDEA0"/>
<path d="M23.0449 213.053L23.6872 213.426V212.685L23.0449 212.312V213.053Z" fill="#2FDEA0"/>
<path d="M46.4048 228.458L47.0471 228.831V228.09L46.4048 227.717V228.458Z" fill="#2FDEA0"/>
<path d="M44.8452 227.559L45.4935 227.933V227.192L44.8452 226.818V227.559Z" fill="#2FDEA0"/>
<path d="M43.292 226.661L43.9343 227.034V226.293L43.292 225.92V226.661Z" fill="#2FDEA0"/>
<path d="M41.7324 225.762L42.3747 226.135V225.394L41.7324 225.021V225.762Z" fill="#2FDEA0"/>
<path d="M40.1733 224.863L40.8216 225.237V224.496L40.1733 224.122V224.863Z" fill="#2FDEA0"/>
<path d="M38.6201 223.965L39.2624 224.338V223.597L38.6201 223.224V223.965Z" fill="#2FDEA0"/>
<path d="M37.061 223.066L37.7033 223.44V222.699L37.061 222.325V223.066Z" fill="#2FDEA0"/>
<path d="M35.5015 222.168L36.1498 222.541V221.8L35.5015 221.427V222.168Z" fill="#2FDEA0"/>
<path d="M33.9424 221.269L34.5905 221.642V220.901L33.9424 220.528V221.269Z" fill="#2FDEA0"/>
<path d="M32.3887 220.37L33.031 220.744V220.003L32.3887 219.629V220.37Z" fill="#2FDEA0"/>
<path d="M30.8296 219.472L31.472 219.845V219.104L30.8296 218.731V219.472Z" fill="#2FDEA0"/>
<path d="M29.27 218.579L29.9182 218.947V218.206L29.27 217.832V218.579Z" fill="#2FDEA0"/>
<path d="M27.7168 217.68L28.3591 218.048V217.307L27.7168 216.934V217.68Z" fill="#2FDEA0"/>
<path d="M26.1572 216.782L26.7997 217.15V216.408L26.1572 216.035V216.782Z" fill="#2FDEA0"/>
<path d="M24.5986 215.883L25.2468 216.251V215.51L24.5986 215.136V215.883Z" fill="#2FDEA0"/>
<path d="M23.0449 214.985L23.6872 215.352V214.611L23.0449 214.238V214.985Z" fill="#2FDEA0"/>
<path d="M46.4048 230.383L47.0471 230.757V230.016L46.4048 229.642V230.383Z" fill="#2FDEA0"/>
<path d="M44.8452 229.485L45.4935 229.858V229.117L44.8452 228.744V229.485Z" fill="#2FDEA0"/>
<path d="M43.292 228.586L43.9343 228.96V228.219L43.292 227.845V228.586Z" fill="#2FDEA0"/>
<path d="M41.7324 227.688L42.3747 228.061V227.32L41.7324 226.947V227.688Z" fill="#2FDEA0"/>
<path d="M40.1733 226.795L40.8216 227.162V226.421L40.1733 226.048V226.795Z" fill="#2FDEA0"/>
<path d="M38.6201 225.896L39.2624 226.264V225.523L38.6201 225.15V225.896Z" fill="#2FDEA0"/>
<path d="M37.061 224.992L37.7033 225.365V224.624L37.061 224.251V224.992Z" fill="#2FDEA0"/>
<path d="M35.5015 224.099L36.1498 224.467V223.726L35.5015 223.352V224.099Z" fill="#2FDEA0"/>
<path d="M33.9424 223.2L34.5905 223.568V222.827L33.9424 222.453V223.2Z" fill="#2FDEA0"/>
<path d="M32.3887 222.302L33.031 222.67V221.928L32.3887 221.555V222.302Z" fill="#2FDEA0"/>
<path d="M30.8296 221.403L31.472 221.771V221.03L30.8296 220.656V221.403Z" fill="#2FDEA0"/>
<path d="M29.27 220.505L29.9182 220.872V220.131L29.27 219.758V220.505Z" fill="#2FDEA0"/>
<path d="M27.7168 219.606L28.3591 219.974V219.233L27.7168 218.859V219.606Z" fill="#2FDEA0"/>
<path d="M26.1572 218.708L26.7997 219.075V218.334L26.1572 217.96V218.708Z" fill="#2FDEA0"/>
<path d="M24.5986 217.809L25.2468 218.176V217.435L24.5986 217.062V217.809Z" fill="#2FDEA0"/>
<path d="M23.0449 216.91L23.6872 217.278V216.537L23.0449 216.163V216.91Z" fill="#2FDEA0"/>
<path d="M46.4048 232.315L47.0471 232.682V231.941L46.4048 231.568V232.315Z" fill="#2FDEA0"/>
<path d="M44.8452 231.416L45.4935 231.784V231.043L44.8452 230.67V231.416Z" fill="#2FDEA0"/>
<path d="M43.292 230.518L43.9343 230.885V230.144L43.292 229.771V230.518Z" fill="#2FDEA0"/>
<path d="M41.7324 229.619L42.3747 229.987V229.246L41.7324 228.872V229.619Z" fill="#2FDEA0"/>
<path d="M40.1733 228.721L40.8216 229.088V228.347L40.1733 227.974V228.721Z" fill="#2FDEA0"/>
<path d="M38.6201 227.822L39.2624 228.19V227.448L38.6201 227.075V227.822Z" fill="#2FDEA0"/>
<path d="M37.061 226.923L37.7033 227.291V226.55L37.061 226.176V226.923Z" fill="#2FDEA0"/>
<path d="M35.5015 226.025L36.1498 226.392V225.651L35.5015 225.278V226.025Z" fill="#2FDEA0"/>
<path d="M33.9424 225.126L34.5905 225.494V224.753L33.9424 224.379V225.126Z" fill="#2FDEA0"/>
<path d="M32.3887 224.227L33.031 224.595V223.854L32.3887 223.48V224.227Z" fill="#2FDEA0"/>
<path d="M30.8296 223.329L31.472 223.696V222.955L30.8296 222.582V223.329Z" fill="#2FDEA0"/>
<path d="M29.27 222.43L29.9182 222.798V222.057L29.27 221.683V222.43Z" fill="#2FDEA0"/>
<path d="M27.7168 221.532L28.3591 221.905V221.158L27.7168 220.785V221.532Z" fill="#2FDEA0"/>
<path d="M26.1572 220.633L26.7997 221.006V220.26L26.1572 219.886V220.633Z" fill="#2FDEA0"/>
<path d="M24.5986 219.734L25.2468 220.108V219.361L24.5986 218.988V219.734Z" fill="#2FDEA0"/>
<path d="M23.0449 218.836L23.6872 219.209V218.462L23.0449 218.089V218.836Z" fill="#2FDEA0"/>
<path d="M46.4048 234.241L47.0471 234.608V233.867L46.4048 233.494V234.241Z" fill="#2FDEA0"/>
<path d="M44.8452 233.342L45.4935 233.709V232.968L44.8452 232.595V233.342Z" fill="#2FDEA0"/>
<path d="M43.292 232.443L43.9343 232.811V232.07L43.292 231.696V232.443Z" fill="#2FDEA0"/>
<path d="M41.7324 231.545L42.3747 231.912V231.171L41.7324 230.798V231.545Z" fill="#2FDEA0"/>
<path d="M40.1733 230.646L40.8216 231.014V230.273L40.1733 229.899V230.646Z" fill="#2FDEA0"/>
<path d="M38.6201 229.748L39.2624 230.121V229.374L38.6201 229.001V229.748Z" fill="#2FDEA0"/>
<path d="M37.061 228.849L37.7033 229.222V228.475L37.061 228.102V228.849Z" fill="#2FDEA0"/>
<path d="M35.5015 227.95L36.1498 228.324V227.577L35.5015 227.203V227.95Z" fill="#2FDEA0"/>
<path d="M33.9424 227.052L34.5905 227.425V226.678L33.9424 226.305V227.052Z" fill="#2FDEA0"/>
<path d="M32.3887 226.153L33.031 226.526V225.78L32.3887 225.406V226.153Z" fill="#2FDEA0"/>
<path d="M30.8296 225.254L31.472 225.628V224.881L30.8296 224.508V225.254Z" fill="#2FDEA0"/>
<path d="M29.27 224.356L29.9182 224.729V223.982L29.27 223.615V224.356Z" fill="#2FDEA0"/>
<path d="M27.7168 223.457L28.3591 223.831V223.084L27.7168 222.716V223.457Z" fill="#2FDEA0"/>
<path d="M26.1572 222.559L26.7997 222.932V222.185L26.1572 221.818V222.559Z" fill="#2FDEA0"/>
<path d="M24.5986 221.66L25.2468 222.033V221.287L24.5986 220.919V221.66Z" fill="#2FDEA0"/>
<path d="M23.0449 220.761L23.6872 221.135V220.388L23.0449 220.02V220.761Z" fill="#2FDEA0"/>
<path d="M189.186 239.994C189.858 240 190.535 239.854 191.049 239.557L217.767 224.041C218.263 223.755 218.514 223.376 218.514 222.997L218.473 208.222C218.473 208.601 218.222 208.98 217.726 209.266L191.008 224.782C190.494 225.08 189.822 225.226 189.145 225.22L189.186 239.994Z" fill="#E7E6F1"/>
<path d="M189.145 225.226C188.503 225.22 187.866 225.074 187.37 224.788L163.531 211.093C163.023 210.801 162.772 210.416 162.772 210.037L162.813 224.811C162.813 225.196 163.064 225.576 163.572 225.868L187.411 239.562C187.901 239.848 188.544 239.988 189.186 240L189.145 225.226Z" fill="#CFCDE2"/>
<path d="M217.714 207.172C218.718 207.755 218.724 208.695 217.726 209.272L191.008 224.788C190.009 225.366 188.38 225.366 187.376 224.788L163.537 211.093C162.532 210.515 162.526 209.57 163.525 208.992L190.243 193.477C191.242 192.893 192.871 192.899 193.875 193.477L217.714 207.172Z" fill="#F4F4FB"/>
<path d="M210.736 208.316L209.217 209.197L189.163 220.844L171.976 210.97L170.463 210.101L192.042 197.567L210.736 208.316Z" fill="#02A3A3"/>
<path d="M209.217 209.196L189.163 220.844L171.976 210.97L192.042 199.323L209.217 209.196Z" fill="#00A1D4"/>
<path d="M191.289 226.206L217.195 211.256V223.3L191.289 238.244V226.206Z" fill="#2AC489"/>
<path d="M192.883 226.696L192.24 227.064V226.323L192.883 225.949V226.696Z" fill="#2FDEA0"/>
<path d="M194.442 225.798L193.794 226.171V225.424L194.442 225.051V225.798Z" fill="#2FDEA0"/>
<path d="M195.995 224.899L195.353 225.272V224.525L195.995 224.158V224.899Z" fill="#2FDEA0"/>
<path d="M197.554 224L196.912 224.374V223.627L197.554 223.254V224Z" fill="#2FDEA0"/>
<path d="M199.114 223.102L198.466 223.475V222.728L199.114 222.361V223.102Z" fill="#2FDEA0"/>
<path d="M200.667 222.203L200.025 222.577V221.83L200.667 221.462V222.203Z" fill="#2FDEA0"/>
<path d="M202.226 221.304L201.584 221.678V220.931L202.226 220.563V221.304Z" fill="#2FDEA0"/>
<path d="M203.786 220.406L203.144 220.779V220.032L203.786 219.665V220.406Z" fill="#2FDEA0"/>
<path d="M205.346 219.507L204.697 219.881V219.134L205.346 218.766V219.507Z" fill="#2FDEA0"/>
<path d="M206.899 218.609L206.256 218.982V218.235L206.899 217.868V218.609Z" fill="#2FDEA0"/>
<path d="M208.458 217.71L207.815 218.083V217.337L208.458 216.969V217.71Z" fill="#2FDEA0"/>
<path d="M210.017 216.812L209.369 217.185V216.438L210.017 216.07V216.812Z" fill="#2FDEA0"/>
<path d="M211.57 215.913L210.928 216.286V215.539L211.57 215.172V215.913Z" fill="#2FDEA0"/>
<path d="M213.13 215.014L212.487 215.388V214.641L213.13 214.273V215.014Z" fill="#2FDEA0"/>
<path d="M214.689 214.115L214.041 214.489V213.742L214.689 213.374V214.115Z" fill="#2FDEA0"/>
<path d="M216.248 213.217L215.6 213.59V212.843L216.248 212.476V213.217Z" fill="#2FDEA0"/>
<path d="M192.883 228.622L192.24 228.995V228.248L192.883 227.88V228.622Z" fill="#2FDEA0"/>
<path d="M194.442 227.723L193.794 228.097V227.35L194.442 226.982V227.723Z" fill="#2FDEA0"/>
<path d="M195.995 226.825L195.353 227.198V226.451L195.995 226.083V226.825Z" fill="#2FDEA0"/>
<path d="M197.554 225.926L196.912 226.299V225.552L197.554 225.185V225.926Z" fill="#2FDEA0"/>
<path d="M199.114 225.027L198.466 225.401V224.654L199.114 224.286V225.027Z" fill="#2FDEA0"/>
<path d="M200.667 224.129L200.025 224.502V223.755L200.667 223.388V224.129Z" fill="#2FDEA0"/>
<path d="M202.226 223.23L201.584 223.604V222.857L202.226 222.489V223.23Z" fill="#2FDEA0"/>
<path d="M203.786 222.332L203.144 222.705V221.958L203.786 221.59V222.332Z" fill="#2FDEA0"/>
<path d="M205.346 221.433L204.697 221.806V221.059L205.346 220.692V221.433Z" fill="#2FDEA0"/>
<path d="M206.899 220.534L206.256 220.908V220.167L206.899 219.793V220.534Z" fill="#2FDEA0"/>
<path d="M208.458 219.635L207.815 220.009V219.262L208.458 218.894V219.635Z" fill="#2FDEA0"/>
<path d="M210.017 218.737L209.369 219.111V218.364L210.017 217.996V218.737Z" fill="#2FDEA0"/>
<path d="M211.57 217.838L210.928 218.212V217.471L211.57 217.097V217.838Z" fill="#2FDEA0"/>
<path d="M213.13 216.94L212.487 217.313V216.572L213.13 216.199V216.94Z" fill="#2FDEA0"/>
<path d="M214.689 216.041L214.046 216.415V215.674L214.689 215.3V216.041Z" fill="#2FDEA0"/>
<path d="M216.248 215.143L215.6 215.516V214.775L216.248 214.402V215.143Z" fill="#2FDEA0"/>
<path d="M192.883 230.547L192.24 230.921V230.174L192.883 229.806V230.547Z" fill="#2FDEA0"/>
<path d="M194.442 229.649L193.794 230.022V229.275L194.442 228.908V229.649Z" fill="#2FDEA0"/>
<path d="M195.995 228.75L195.353 229.124V228.377L195.995 228.009V228.75Z" fill="#2FDEA0"/>
<path d="M197.554 227.851L196.912 228.225V227.484L197.554 227.11V227.851Z" fill="#2FDEA0"/>
<path d="M199.114 226.953L198.466 227.326V226.579L199.114 226.212V226.953Z" fill="#2FDEA0"/>
<path d="M200.667 226.054L200.025 226.428V225.687L200.667 225.313V226.054Z" fill="#2FDEA0"/>
<path d="M202.226 225.156L201.584 225.529V224.788L202.226 224.415V225.156Z" fill="#2FDEA0"/>
<path d="M203.786 224.257L203.144 224.63V223.889L203.786 223.516V224.257Z" fill="#2FDEA0"/>
<path d="M205.346 223.358L204.697 223.732V222.991L205.346 222.617V223.358Z" fill="#2FDEA0"/>
<path d="M206.899 222.46L206.256 222.833V222.092L206.899 221.719V222.46Z" fill="#2FDEA0"/>
<path d="M208.458 221.561L207.815 221.935V221.193L208.458 220.82V221.561Z" fill="#2FDEA0"/>
<path d="M210.017 220.663L209.369 221.036V220.295L210.017 219.922V220.663Z" fill="#2FDEA0"/>
<path d="M211.57 219.764L210.928 220.137V219.396L211.57 219.023V219.764Z" fill="#2FDEA0"/>
<path d="M213.13 218.865L212.487 219.239V218.498L213.13 218.124V218.865Z" fill="#2FDEA0"/>
<path d="M214.689 217.967L214.046 218.34V217.599L214.689 217.226V217.967Z" fill="#2FDEA0"/>
<path d="M216.248 217.068L215.6 217.442V216.701L216.248 216.327V217.068Z" fill="#2FDEA0"/>
<path d="M192.883 232.473L192.24 232.846V232.105L192.883 231.732V232.473Z" fill="#2FDEA0"/>
<path d="M194.442 231.574L193.794 231.948V231.207L194.442 230.833V231.574Z" fill="#2FDEA0"/>
<path d="M195.995 230.676L195.353 231.049V230.308L195.995 229.934V230.676Z" fill="#2FDEA0"/>
<path d="M197.554 229.777L196.912 230.151V229.41L197.554 229.036V229.777Z" fill="#2FDEA0"/>
<path d="M199.114 228.878L198.466 229.252V228.511L199.114 228.137V228.878Z" fill="#2FDEA0"/>
<path d="M200.667 227.98L200.025 228.353V227.612L200.667 227.239V227.98Z" fill="#2FDEA0"/>
<path d="M202.226 227.081L201.584 227.455V226.714L202.226 226.34V227.081Z" fill="#2FDEA0"/>
<path d="M203.786 226.183L203.144 226.556V225.815L203.786 225.442V226.183Z" fill="#2FDEA0"/>
<path d="M205.346 225.284L204.697 225.658V224.916L205.346 224.543V225.284Z" fill="#2FDEA0"/>
<path d="M206.899 224.385L206.256 224.759V224.018L206.899 223.644V224.385Z" fill="#2FDEA0"/>
<path d="M208.458 223.493L207.815 223.86V223.119L208.458 222.746V223.493Z" fill="#2FDEA0"/>
<path d="M210.017 222.588L209.369 222.962V222.22L210.017 221.847V222.588Z" fill="#2FDEA0"/>
<path d="M211.57 221.696L210.928 222.063V221.322L211.57 220.948V221.696Z" fill="#2FDEA0"/>
<path d="M213.13 220.797L212.487 221.164V220.423L213.13 220.05V220.797Z" fill="#2FDEA0"/>
<path d="M214.689 219.898L214.046 220.266V219.525L214.689 219.151V219.898Z" fill="#2FDEA0"/>
<path d="M216.248 218.999L215.6 219.367V218.626L216.248 218.252V218.999Z" fill="#2FDEA0"/>
<path d="M192.883 234.399L192.24 234.772V234.031L192.883 233.658V234.399Z" fill="#2FDEA0"/>
<path d="M194.442 233.5L193.794 233.873V233.132L194.442 232.759V233.5Z" fill="#2FDEA0"/>
<path d="M195.995 232.601L195.353 232.975V232.233L195.995 231.86V232.601Z" fill="#2FDEA0"/>
<path d="M197.554 231.703L196.912 232.076V231.335L197.554 230.962V231.703Z" fill="#2FDEA0"/>
<path d="M199.114 230.81L198.466 231.178V230.437L199.114 230.063V230.81Z" fill="#2FDEA0"/>
<path d="M200.667 229.906L200.025 230.279V229.538L200.667 229.164V229.906Z" fill="#2FDEA0"/>
<path d="M202.226 229.007L201.584 229.38V228.639L202.226 228.266V229.007Z" fill="#2FDEA0"/>
<path d="M203.786 228.114L203.144 228.482V227.741L203.786 227.367V228.114Z" fill="#2FDEA0"/>
<path d="M205.346 227.216L204.697 227.583V226.842L205.346 226.469V227.216Z" fill="#2FDEA0"/>
<path d="M206.899 226.317L206.256 226.685V225.943L206.899 225.57V226.317Z" fill="#2FDEA0"/>
<path d="M208.458 225.418L207.815 225.786V225.045L208.458 224.671V225.418Z" fill="#2FDEA0"/>
<path d="M210.017 224.52L209.369 224.887V224.146L210.017 223.773V224.52Z" fill="#2FDEA0"/>
<path d="M211.57 223.621L210.928 223.989V223.248L211.57 222.874V223.621Z" fill="#2FDEA0"/>
<path d="M213.13 222.722L212.487 223.09V222.349L213.13 221.976V222.722Z" fill="#2FDEA0"/>
<path d="M214.689 221.824L214.046 222.191V221.45L214.689 221.077V221.824Z" fill="#2FDEA0"/>
<path d="M216.248 220.925L215.6 221.293V220.552L216.248 220.178V220.925Z" fill="#2FDEA0"/>
<path d="M192.883 236.33L192.24 236.698V235.957L192.883 235.583V236.33Z" fill="#2FDEA0"/>
<path d="M194.442 235.431L193.794 235.799V235.058L194.442 234.684V235.431Z" fill="#2FDEA0"/>
<path d="M195.995 234.533L195.353 234.9V234.159L195.995 233.786V234.533Z" fill="#2FDEA0"/>
<path d="M197.554 233.634L196.912 234.002V233.261L197.554 232.887V233.634Z" fill="#2FDEA0"/>
<path d="M199.114 232.736L198.466 233.103V232.362L199.114 231.989V232.736Z" fill="#2FDEA0"/>
<path d="M200.667 231.837L200.025 232.204V231.463L200.667 231.09V231.837Z" fill="#2FDEA0"/>
<path d="M202.226 230.938L201.584 231.306V230.565L202.226 230.191V230.938Z" fill="#2FDEA0"/>
<path d="M203.786 230.04L203.144 230.407V229.666L203.786 229.293V230.04Z" fill="#2FDEA0"/>
<path d="M205.346 229.141L204.697 229.509V228.768L205.346 228.394V229.141Z" fill="#2FDEA0"/>
<path d="M206.899 228.242L206.256 228.61V227.869L206.899 227.496V228.242Z" fill="#2FDEA0"/>
<path d="M208.458 227.344L207.815 227.711V226.971L208.458 226.597V227.344Z" fill="#2FDEA0"/>
<path d="M210.017 226.445L209.369 226.813V226.072L210.017 225.698V226.445Z" fill="#2FDEA0"/>
<path d="M211.57 225.547L210.928 225.92V225.173L211.57 224.8V225.547Z" fill="#2FDEA0"/>
<path d="M213.13 224.648L212.487 225.022V224.275L213.13 223.901V224.648Z" fill="#2FDEA0"/>
<path d="M214.689 223.75L214.046 224.117V223.376L214.689 223.003V223.75Z" fill="#2FDEA0"/>
<path d="M216.248 222.851L215.6 223.224V222.477L216.248 222.104V222.851Z" fill="#2FDEA0"/>
<path d="M46.5219 145.978C47.1935 145.984 47.8709 145.838 48.3848 145.541L75.1025 130.025C75.5989 129.739 75.8501 129.36 75.8501 128.981L75.8092 114.206C75.8092 114.586 75.558 114.965 75.0616 115.251L48.3439 130.766C47.83 131.064 47.1584 131.21 46.481 131.204L46.5219 145.978Z" fill="#E7E6F1"/>
<path d="M46.4811 131.204C45.8387 131.198 45.2021 131.052 44.7057 130.766L20.867 117.071C20.3589 116.779 20.1079 116.394 20.1079 116.015L20.1487 130.79C20.1487 131.175 20.3998 131.554 20.9079 131.846L44.7466 145.541C45.2372 145.827 45.8796 145.967 46.522 145.978L46.4811 131.204Z" fill="#CFCDE2"/>
<path d="M75.0499 113.15C76.0543 113.734 76.0602 114.673 75.0616 115.25L48.3438 130.766C47.3452 131.344 45.7158 131.344 44.7114 130.766L20.8727 117.071C19.8682 116.493 19.8625 115.548 20.8611 114.97L47.5789 99.4549C48.5775 98.8772 50.2068 98.8772 51.2113 99.4549L75.0499 113.15Z" fill="#F4F4FB"/>
<path d="M68.0716 114.294L66.5533 115.175L46.4988 126.822L29.3178 116.949L27.7993 116.085L49.3779 103.551L68.0716 114.294Z" fill="#02A3A3"/>
<path d="M66.5529 115.175L46.4985 126.822L29.3174 116.949L49.3775 105.308L66.5529 115.175Z" fill="#00A1D4"/>
<path d="M48.624 132.184L74.5301 117.24V129.278L48.624 144.222V132.184Z" fill="#2AC489"/>
<path d="M50.2185 132.674L49.5762 133.048V132.301L50.2185 131.933V132.674Z" fill="#2FDEA0"/>
<path d="M51.7777 131.776L51.1294 132.149V131.402L51.7777 131.035V131.776Z" fill="#2FDEA0"/>
<path d="M53.3371 130.877L52.689 131.251V130.504L53.3371 130.136V130.877Z" fill="#2FDEA0"/>
<path d="M54.8904 129.979L54.248 130.352V129.605L54.8904 129.238V129.979Z" fill="#2FDEA0"/>
<path d="M56.4496 129.08L55.8071 129.453V128.706L56.4496 128.339V129.08Z" fill="#2FDEA0"/>
<path d="M58.0085 128.181L57.3604 128.555V127.814L58.0085 127.44V128.181Z" fill="#2FDEA0"/>
<path d="M59.5622 127.283L58.9199 127.656V126.915L59.5622 126.542V127.283Z" fill="#2FDEA0"/>
<path d="M61.1219 126.384L60.4795 126.758V126.016L61.1219 125.643V126.384Z" fill="#2FDEA0"/>
<path d="M62.6809 125.485L62.0327 125.859V125.118L62.6809 124.744V125.485Z" fill="#2FDEA0"/>
<path d="M64.2341 124.587L63.5918 124.96V124.219L64.2341 123.846V124.587Z" fill="#2FDEA0"/>
<path d="M65.7938 123.688L65.1514 124.062V123.321L65.7938 122.947V123.688Z" fill="#2FDEA0"/>
<path d="M67.3532 122.79L66.7051 123.163V122.422L67.3532 122.049V122.79Z" fill="#2FDEA0"/>
<path d="M68.9118 121.891L68.2637 122.264V121.523L68.9118 121.15V121.891Z" fill="#2FDEA0"/>
<path d="M70.4657 120.993L69.8232 121.366V120.625L70.4657 120.251V120.993Z" fill="#2FDEA0"/>
<path d="M72.0248 120.094L71.3823 120.467V119.726L72.0248 119.353V120.094Z" fill="#2FDEA0"/>
<path d="M73.5842 119.195L72.936 119.569V118.828L73.5842 118.454V119.195Z" fill="#2FDEA0"/>
<path d="M50.2185 134.6L49.5762 134.973V134.232L50.2185 133.859V134.6Z" fill="#2FDEA0"/>
<path d="M51.7777 133.702L51.1294 134.075V133.334L51.7777 132.96V133.702Z" fill="#2FDEA0"/>
<path d="M53.3371 132.803L52.689 133.176V132.435L53.3371 132.062V132.803Z" fill="#2FDEA0"/>
<path d="M54.8904 131.904L54.248 132.278V131.537L54.8904 131.163V131.904Z" fill="#2FDEA0"/>
<path d="M56.4496 131.005L55.8071 131.379V130.638L56.4496 130.264V131.005Z" fill="#2FDEA0"/>
<path d="M58.0085 130.107L57.3604 130.48V129.739L58.0085 129.366V130.107Z" fill="#2FDEA0"/>
<path d="M59.5622 129.208L58.9199 129.582V128.841L59.5622 128.467V129.208Z" fill="#2FDEA0"/>
<path d="M61.1219 128.31L60.4795 128.683V127.942L61.1219 127.569V128.31Z" fill="#2FDEA0"/>
<path d="M62.6809 127.411L62.0327 127.784V127.044L62.6809 126.67V127.411Z" fill="#2FDEA0"/>
<path d="M64.2341 126.512L63.5918 126.886V126.145L64.2341 125.771V126.512Z" fill="#2FDEA0"/>
<path d="M65.7938 125.614L65.1514 125.988V125.246L65.7938 124.873V125.614Z" fill="#2FDEA0"/>
<path d="M67.3532 124.715L66.7051 125.089V124.348L67.3532 123.974V124.715Z" fill="#2FDEA0"/>
<path d="M68.9118 123.823L68.2637 124.19V123.449L68.9118 123.076V123.823Z" fill="#2FDEA0"/>
<path d="M70.4657 122.918L69.8232 123.291V122.55L70.4657 122.177V122.918Z" fill="#2FDEA0"/>
<path d="M72.0248 122.02L71.3823 122.393V121.652L72.0248 121.278V122.02Z" fill="#2FDEA0"/>
<path d="M73.5842 121.127L72.936 121.494V120.753L73.5842 120.38V121.127Z" fill="#2FDEA0"/>
<path d="M50.2185 136.526L49.5762 136.899V136.158L50.2185 135.785V136.526Z" fill="#2FDEA0"/>
<path d="M51.7777 135.627L51.1294 136V135.259L51.7777 134.886V135.627Z" fill="#2FDEA0"/>
<path d="M53.3371 134.728L52.689 135.102V134.361L53.3371 133.987V134.728Z" fill="#2FDEA0"/>
<path d="M54.8904 133.83L54.248 134.203V133.462L54.8904 133.089V133.83Z" fill="#2FDEA0"/>
<path d="M56.4496 132.931L55.8071 133.305V132.564L56.4496 132.19V132.931Z" fill="#2FDEA0"/>
<path d="M58.0085 132.033L57.3604 132.406V131.665L58.0085 131.292V132.033Z" fill="#2FDEA0"/>
<path d="M59.5622 131.14L58.9199 131.507V130.766L59.5622 130.393V131.14Z" fill="#2FDEA0"/>
<path d="M61.1219 130.241L60.4795 130.609V129.868L61.1219 129.494V130.241Z" fill="#2FDEA0"/>
<path d="M62.6809 129.343L62.0327 129.71V128.969L62.6809 128.596V129.343Z" fill="#2FDEA0"/>
<path d="M64.2341 128.444L63.5918 128.812V128.071L64.2341 127.697V128.444Z" fill="#2FDEA0"/>
<path d="M65.7938 127.545L65.1514 127.913V127.172L65.7938 126.798V127.545Z" fill="#2FDEA0"/>
<path d="M67.3532 126.647L66.7051 127.014V126.273L67.3532 125.9V126.647Z" fill="#2FDEA0"/>
<path d="M68.9118 125.748L68.2637 126.116V125.375L68.9118 125.001V125.748Z" fill="#2FDEA0"/>
<path d="M70.4657 124.849L69.8232 125.217V124.476L70.4657 124.103V124.849Z" fill="#2FDEA0"/>
<path d="M72.0248 123.951L71.3823 124.319V123.577L72.0248 123.204V123.951Z" fill="#2FDEA0"/>
<path d="M73.5842 123.052L72.936 123.42V122.679L73.5842 122.305V123.052Z" fill="#2FDEA0"/>
<path d="M50.2185 138.451L49.5762 138.825V138.084L50.2185 137.71V138.451Z" fill="#2FDEA0"/>
<path d="M51.7777 137.558L51.1294 137.926V137.185L51.7777 136.811V137.558Z" fill="#2FDEA0"/>
<path d="M53.3371 136.654L52.689 137.028V136.286L53.3371 135.913V136.654Z" fill="#2FDEA0"/>
<path d="M54.8904 135.761L54.248 136.129V135.388L54.8904 135.014V135.761Z" fill="#2FDEA0"/>
<path d="M56.4496 134.863L55.8071 135.23V134.489L56.4496 134.116V134.863Z" fill="#2FDEA0"/>
<path d="M58.0085 133.964L57.3604 134.332V133.59L58.0085 133.217V133.964Z" fill="#2FDEA0"/>
<path d="M59.5622 133.066L58.9199 133.433V132.692L59.5622 132.318V133.066Z" fill="#2FDEA0"/>
<path d="M61.1219 132.167L60.4795 132.534V131.793L61.1219 131.42V132.167Z" fill="#2FDEA0"/>
<path d="M62.6809 131.268L62.0327 131.636V130.895L62.6809 130.521V131.268Z" fill="#2FDEA0"/>
<path d="M64.2341 130.37L63.5918 130.737V129.996L64.2341 129.623V130.37Z" fill="#2FDEA0"/>
<path d="M65.7938 129.471L65.1514 129.838V129.097L65.7938 128.724V129.471Z" fill="#2FDEA0"/>
<path d="M67.3532 128.572L66.7108 128.94L66.7051 128.199L67.3532 127.825V128.572Z" fill="#2FDEA0"/>
<path d="M68.9118 127.674L68.2637 128.047V127.301L68.9118 126.927V127.674Z" fill="#2FDEA0"/>
<path d="M70.4657 126.775L69.8232 127.149V126.402L70.4657 126.028V126.775Z" fill="#2FDEA0"/>
<path d="M72.0248 125.877L71.3823 126.25V125.503L72.0248 125.13V125.877Z" fill="#2FDEA0"/>
<path d="M73.5842 124.978L72.936 125.351V124.604L73.5842 124.231V124.978Z" fill="#2FDEA0"/>
<path d="M50.2185 140.383L49.5762 140.75V140.009L50.2185 139.636V140.383Z" fill="#2FDEA0"/>
<path d="M51.7777 139.484L51.1294 139.852V139.111L51.7777 138.737V139.484Z" fill="#2FDEA0"/>
<path d="M53.3371 138.585L52.689 138.953V138.212L53.3371 137.839V138.585Z" fill="#2FDEA0"/>
<path d="M54.8904 137.687L54.248 138.054V137.313L54.8904 136.94V137.687Z" fill="#2FDEA0"/>
<path d="M56.4496 136.788L55.8071 137.156V136.415L56.4496 136.041V136.788Z" fill="#2FDEA0"/>
<path d="M58.0085 135.889L57.3604 136.257V135.516L58.0085 135.143V135.889Z" fill="#2FDEA0"/>
<path d="M59.5622 134.991L58.9199 135.364V134.618L59.5622 134.244V134.991Z" fill="#2FDEA0"/>
<path d="M61.1219 134.092L60.4795 134.46V133.719L61.1219 133.346V134.092Z" fill="#2FDEA0"/>
<path d="M62.6809 133.194L62.0327 133.562V132.82L62.6809 132.447V133.194Z" fill="#2FDEA0"/>
<path d="M64.2341 132.295L63.5918 132.669V131.922L64.2341 131.548V132.295Z" fill="#2FDEA0"/>
<path d="M65.7938 131.397L65.1514 131.77V131.023L65.7938 130.65V131.397Z" fill="#2FDEA0"/>
<path d="M67.3529 130.498L66.7104 130.871V130.125L67.3529 129.751V130.498Z" fill="#2FDEA0"/>
<path d="M68.9118 129.599L68.2637 129.973V129.226L68.9118 128.858V129.599Z" fill="#2FDEA0"/>
<path d="M70.4657 128.701L69.8232 129.074V128.327L70.4657 127.954V128.701Z" fill="#2FDEA0"/>
<path d="M72.0248 127.802L71.3823 128.176V127.429L72.0248 127.061V127.802Z" fill="#2FDEA0"/>
<path d="M73.5842 126.903L72.936 127.277V126.53L73.5842 126.162V126.903Z" fill="#2FDEA0"/>
<path d="M50.2185 142.308L49.5762 142.676V141.935L50.2185 141.561V142.308Z" fill="#2FDEA0"/>
<path d="M51.7777 141.41L51.1294 141.783V141.036L51.7777 140.663V141.41Z" fill="#2FDEA0"/>
<path d="M53.3371 140.511L52.689 140.879V140.138L53.3371 139.764V140.511Z" fill="#2FDEA0"/>
<path d="M54.8904 139.612L54.248 139.986V139.239L54.8904 138.865V139.612Z" fill="#2FDEA0"/>
<path d="M56.4496 138.714L55.8071 139.087V138.34L56.4496 137.967V138.714Z" fill="#2FDEA0"/>
<path d="M58.0085 137.815L57.3604 138.189V137.442L58.0085 137.074V137.815Z" fill="#2FDEA0"/>
<path d="M59.5622 136.917L58.9199 137.29V136.543L59.5622 136.17V136.917Z" fill="#2FDEA0"/>
<path d="M61.1219 136.018L60.4795 136.391V135.645L61.1219 135.277V136.018Z" fill="#2FDEA0"/>
<path d="M62.6809 135.119L62.0327 135.493V134.746L62.6809 134.378V135.119Z" fill="#2FDEA0"/>
<path d="M64.2341 134.221L63.5918 134.594V133.847L64.2341 133.48V134.221Z" fill="#2FDEA0"/>
<path d="M65.7938 133.322L65.1514 133.696V132.949L65.7938 132.581V133.322Z" fill="#2FDEA0"/>
<path d="M67.3529 132.424L66.7104 132.797V132.05L67.3529 131.682V132.424Z" fill="#2FDEA0"/>
<path d="M68.9118 131.525L68.2637 131.898V131.151L68.9118 130.784V131.525Z" fill="#2FDEA0"/>
<path d="M70.4657 130.626L69.8232 131V130.253L70.4657 129.885V130.626Z" fill="#2FDEA0"/>
<path d="M72.0248 129.728L71.3823 130.101V129.355L72.0248 128.987V129.728Z" fill="#2FDEA0"/>
<path d="M73.5842 128.829L72.936 129.202V128.456L73.5842 128.088V128.829Z" fill="#2FDEA0"/>
<path d="M189.472 215.988C189.384 215.988 189.303 215.965 189.227 215.924C189.075 215.837 188.981 215.673 188.981 215.498V206.01C188.981 205.835 189.075 205.672 189.227 205.584L197.49 200.817C197.642 200.73 197.829 200.73 197.981 200.817C198.133 200.905 198.226 201.068 198.226 201.243V210.731C198.226 210.906 198.133 211.07 197.981 211.157L189.717 215.924C189.641 215.965 189.554 215.988 189.472 215.988ZM189.963 206.29V214.646L197.245 210.445V202.089L189.963 206.29Z" fill="#2FDEA0"/>
<path d="M189.472 215.988C189.385 215.988 189.303 215.965 189.227 215.924L180.963 211.157C180.812 211.07 180.718 210.906 180.718 210.731V201.243C180.718 201.068 180.812 200.905 180.963 200.817C181.115 200.73 181.302 200.73 181.454 200.817L189.718 205.584C189.869 205.672 189.963 205.835 189.963 206.01V215.498C189.963 215.673 189.869 215.837 189.718 215.924C189.642 215.965 189.554 215.988 189.472 215.988ZM181.705 210.445L188.988 214.646V206.29L181.705 202.089V210.445Z" fill="#2FDEA0"/>
<path d="M189.472 206.501C189.385 206.501 189.303 206.477 189.227 206.436L180.963 201.669C180.812 201.582 180.718 201.418 180.718 201.243C180.718 201.068 180.812 200.905 180.963 200.817L189.227 196.05C189.379 195.962 189.566 195.962 189.718 196.05L197.981 200.817C198.133 200.905 198.226 201.068 198.226 201.243C198.226 201.418 198.133 201.582 197.981 201.669L189.718 206.436C189.642 206.477 189.554 206.501 189.472 206.501ZM182.196 201.243L189.478 205.445L196.761 201.243L189.478 197.042L182.196 201.243Z" fill="#2FDEA0"/>
<g opacity="0.5">
<path d="M197.479 211.274C197.31 211.274 197.146 211.186 197.053 211.029C197.006 210.947 196.982 210.854 196.988 210.766L189.478 206.436L181.46 211.064C181.226 211.198 180.923 211.116 180.788 210.883C180.654 210.65 180.736 210.346 180.969 210.212L189.233 205.445C189.385 205.357 189.572 205.357 189.723 205.445L197.987 210.212C198.139 210.299 198.232 210.463 198.232 210.638C198.232 210.813 198.139 210.976 197.987 211.064L197.724 211.216C197.648 211.262 197.561 211.28 197.479 211.28V211.274Z" fill="#2FDEA0"/>
</g>
<g opacity="0.5">
<path d="M189.472 206.355C189.203 206.355 188.981 206.133 188.981 205.864V196.476C188.981 196.207 189.203 195.986 189.472 195.986C189.741 195.986 189.963 196.207 189.963 196.476V205.864C189.963 206.133 189.741 206.355 189.472 206.355Z" fill="#2FDEA0"/>
</g>
<path d="M48.3729 212.867C48.2853 212.867 48.2036 212.843 48.1277 212.803C47.9759 212.715 47.8823 212.552 47.8823 212.377V202.889C47.8823 202.714 47.9759 202.55 48.1277 202.463L56.3912 197.695C56.543 197.608 56.7299 197.608 56.8818 197.695C57.0336 197.783 57.127 197.946 57.127 198.121V207.609C57.127 207.784 57.0336 207.948 56.8818 208.035L48.6182 212.803C48.5422 212.843 48.4547 212.867 48.3729 212.867ZM48.8635 203.169V211.525L56.1459 207.323V198.968L48.8635 203.169Z" fill="#2FDEA0"/>
<path d="M48.3732 212.867C48.2856 212.867 48.2039 212.843 48.128 212.803L39.8644 208.035C39.7125 207.948 39.6191 207.784 39.6191 207.609V198.121C39.6191 197.946 39.7125 197.783 39.8644 197.695C40.0162 197.608 40.2031 197.608 40.355 197.695L48.6184 202.463C48.7703 202.55 48.8638 202.714 48.8638 202.889V212.377C48.8638 212.552 48.7703 212.715 48.6184 212.803C48.5425 212.843 48.455 212.867 48.3732 212.867ZM40.6061 207.329L47.8885 211.53V203.175L40.6061 198.973V207.329Z" fill="#2FDEA0"/>
<path d="M48.3732 203.379C48.2856 203.379 48.2039 203.356 48.128 203.315L39.8644 198.547C39.7125 198.46 39.6191 198.296 39.6191 198.121C39.6191 197.946 39.7125 197.783 39.8644 197.695L48.128 192.928C48.2798 192.841 48.4666 192.841 48.6184 192.928L56.8821 197.695C57.0339 197.783 57.1273 197.946 57.1273 198.121C57.1273 198.296 57.0339 198.46 56.8821 198.547L48.6184 203.315C48.5425 203.356 48.455 203.379 48.3732 203.379ZM41.0967 198.121L48.3791 202.323L55.6615 198.121L48.3791 193.92L41.0967 198.121Z" fill="#2FDEA0"/>
<g opacity="0.5">
<path d="M56.3738 208.152C56.2045 208.152 56.041 208.064 55.9475 207.907C55.9008 207.825 55.8775 207.732 55.8834 207.644L48.3732 203.315L40.3549 207.942C40.1213 208.076 39.8177 207.994 39.6834 207.761C39.5491 207.528 39.6307 207.224 39.8643 207.09L48.1279 202.323C48.2798 202.235 48.4665 202.235 48.6184 202.323L56.882 207.09C57.0338 207.178 57.1272 207.341 57.1272 207.516C57.1272 207.691 57.0338 207.854 56.882 207.942L56.6192 208.094C56.5433 208.14 56.4556 208.158 56.3738 208.158V208.152Z" fill="#2FDEA0"/>
</g>
<g opacity="0.5">
<path d="M48.3729 203.233C48.1043 203.233 47.8823 203.011 47.8823 202.743V193.354C47.8823 193.08 48.1043 192.864 48.3729 192.864C48.6416 192.864 48.8635 193.085 48.8635 193.354V202.743C48.8635 203.011 48.6416 203.233 48.3729 203.233Z" fill="#2FDEA0"/>
</g>
<path d="M193.479 143.86C192.807 143.866 192.13 143.72 191.616 143.423L164.898 127.907C164.402 127.621 164.15 127.242 164.15 126.863L164.191 112.088C164.191 112.467 164.442 112.847 164.939 113.133L191.657 128.648C192.171 128.946 192.842 129.092 193.52 129.086L193.479 143.86Z" fill="#E7E6F1"/>
<path d="M193.519 129.086C194.162 129.08 194.798 128.934 195.295 128.648L219.133 114.953C219.641 114.662 219.893 114.276 219.893 113.897L219.852 128.672C219.852 129.057 219.601 129.436 219.093 129.728L195.254 143.423C194.763 143.709 194.121 143.849 193.479 143.861L193.519 129.086Z" fill="#CFCDE2"/>
<path d="M164.95 111.032C163.946 111.61 163.94 112.555 164.939 113.133L191.656 128.648C192.655 129.232 194.284 129.232 195.289 128.648L219.128 114.953C220.132 114.376 220.138 113.43 219.139 112.853L192.421 97.3371C191.423 96.7535 189.793 96.7594 188.789 97.3371L164.95 111.032Z" fill="#F4F4FB"/>
<path d="M171.929 112.175L173.447 113.057L193.501 124.704L210.688 114.836L212.201 113.967L190.628 101.433L171.929 112.175Z" fill="#02A3A3"/>
<path d="M173.447 113.057L193.502 124.704L210.689 114.836L190.628 103.189L173.447 113.057Z" fill="#00A1D4"/>
<path d="M191.377 130.066L165.471 115.123V127.16L191.377 142.104V130.066Z" fill="#2AC489"/>
<path d="M189.782 130.556L190.425 130.93V130.189L189.782 129.816V130.556Z" fill="#2FDEA0"/>
<path d="M188.223 129.658L188.871 130.031V129.29L188.223 128.917V129.658Z" fill="#2FDEA0"/>
<path d="M186.669 128.759L187.312 129.133V128.392L186.669 128.018V128.759Z" fill="#2FDEA0"/>
<path d="M185.11 127.861L185.753 128.234V127.493L185.11 127.12V127.861Z" fill="#2FDEA0"/>
<path d="M183.551 126.962L184.2 127.336V126.594L183.551 126.221V126.962Z" fill="#2FDEA0"/>
<path d="M181.998 126.063L182.64 126.437V125.696L181.998 125.322V126.063Z" fill="#2FDEA0"/>
<path d="M180.438 125.165L181.081 125.538V124.797L180.438 124.424V125.165Z" fill="#2FDEA0"/>
<path d="M178.879 124.266L179.527 124.64V123.899L178.879 123.525V124.266Z" fill="#2FDEA0"/>
<path d="M177.32 123.368L177.968 123.741V123L177.32 122.626V123.368Z" fill="#2FDEA0"/>
<path d="M175.767 122.469L176.409 122.842V122.101L175.767 121.728V122.469Z" fill="#2FDEA0"/>
<path d="M174.207 121.57L174.849 121.944V121.203L174.207 120.829V121.57Z" fill="#2FDEA0"/>
<path d="M172.648 120.677L173.296 121.045V120.304L172.648 119.93V120.677Z" fill="#2FDEA0"/>
<path d="M171.095 119.779L171.737 120.146V119.405L171.095 119.032V119.779Z" fill="#2FDEA0"/>
<path d="M169.535 118.88L170.178 119.248V118.507L169.535 118.134V118.88Z" fill="#2FDEA0"/>
<path d="M167.976 117.982L168.624 118.349V117.608L167.976 117.235V117.982Z" fill="#2FDEA0"/>
<path d="M166.423 117.083L167.065 117.451V116.71L166.423 116.336V117.083Z" fill="#2FDEA0"/>
<path d="M189.782 132.482L190.425 132.856V132.115L189.782 131.741V132.482Z" fill="#2FDEA0"/>
<path d="M188.223 131.583L188.871 131.957V131.216L188.223 130.842V131.583Z" fill="#2FDEA0"/>
<path d="M186.669 130.685L187.312 131.058V130.317L186.669 129.944V130.685Z" fill="#2FDEA0"/>
<path d="M185.11 129.786L185.753 130.16V129.419L185.11 129.045V129.786Z" fill="#2FDEA0"/>
<path d="M183.551 128.894L184.2 129.261V128.52L183.551 128.146V128.894Z" fill="#2FDEA0"/>
<path d="M181.998 127.995L182.64 128.362V127.621L181.998 127.248V127.995Z" fill="#2FDEA0"/>
<path d="M180.438 127.096L181.081 127.464V126.723L180.438 126.349V127.096Z" fill="#2FDEA0"/>
<path d="M178.879 126.198L179.527 126.565V125.824L178.879 125.451V126.198Z" fill="#2FDEA0"/>
<path d="M177.32 125.299L177.968 125.667V124.925L177.32 124.552V125.299Z" fill="#2FDEA0"/>
<path d="M175.767 124.4L176.409 124.768V124.027L175.767 123.654V124.4Z" fill="#2FDEA0"/>
<path d="M174.207 123.502L174.849 123.869V123.128L174.207 122.755V123.502Z" fill="#2FDEA0"/>
<path d="M172.648 122.603L173.296 122.971V122.23L172.648 121.856V122.603Z" fill="#2FDEA0"/>
<path d="M171.095 121.704L171.737 122.072V121.331L171.095 120.958V121.704Z" fill="#2FDEA0"/>
<path d="M169.535 120.806L170.178 121.174V120.433L169.535 120.059V120.806Z" fill="#2FDEA0"/>
<path d="M167.976 119.907L168.624 120.275V119.534L167.976 119.16V119.907Z" fill="#2FDEA0"/>
<path d="M166.423 119.009L167.065 119.376V118.635L166.423 118.262V119.009Z" fill="#2FDEA0"/>
<path d="M189.782 134.414L190.425 134.781V134.04L189.782 133.667V134.414Z" fill="#2FDEA0"/>
<path d="M188.223 133.515L188.871 133.882V133.141L188.223 132.768V133.515Z" fill="#2FDEA0"/>
<path d="M186.669 132.616L187.312 132.984V132.243L186.669 131.869V132.616Z" fill="#2FDEA0"/>
<path d="M185.11 131.718L185.753 132.085V131.344L185.11 130.971V131.718Z" fill="#2FDEA0"/>
<path d="M183.551 130.819L184.2 131.186V130.445L183.551 130.072V130.819Z" fill="#2FDEA0"/>
<path d="M181.998 129.92L182.64 130.288V129.547L181.998 129.174V129.92Z" fill="#2FDEA0"/>
<path d="M180.438 129.022L181.081 129.389V128.649L180.438 128.275V129.022Z" fill="#2FDEA0"/>
<path d="M178.879 128.123L179.527 128.491V127.75L178.879 127.376V128.123Z" fill="#2FDEA0"/>
<path d="M177.32 127.224L177.968 127.592V126.851L177.32 126.478V127.224Z" fill="#2FDEA0"/>
<path d="M175.767 126.326L176.409 126.694V125.953L175.767 125.579V126.326Z" fill="#2FDEA0"/>
<path d="M174.207 125.427L174.849 125.801V125.054L174.207 124.68V125.427Z" fill="#2FDEA0"/>
<path d="M172.648 124.529L173.296 124.896V124.155L172.648 123.782V124.529Z" fill="#2FDEA0"/>
<path d="M171.095 123.63L171.737 124.003V123.257L171.095 122.889V123.63Z" fill="#2FDEA0"/>
<path d="M169.535 122.732L170.178 123.105V122.358L169.535 121.985V122.732Z" fill="#2FDEA0"/>
<path d="M167.976 121.833L168.624 122.206V121.459L167.976 121.086V121.833Z" fill="#2FDEA0"/>
<path d="M166.423 120.934L167.065 121.308V120.561L166.423 120.193V120.934Z" fill="#2FDEA0"/>
<path d="M189.782 136.339L190.425 136.707V135.966L189.782 135.592V136.339Z" fill="#2FDEA0"/>
<path d="M188.223 135.44L188.871 135.808V135.067L188.223 134.694V135.44Z" fill="#2FDEA0"/>
<path d="M186.669 134.542L187.312 134.91V134.168L186.669 133.795V134.542Z" fill="#2FDEA0"/>
<path d="M185.11 133.643L185.753 134.011V133.27L185.11 132.896V133.643Z" fill="#2FDEA0"/>
<path d="M183.551 132.744L184.2 133.112V132.371L183.551 131.998V132.744Z" fill="#2FDEA0"/>
<path d="M181.998 131.846L182.64 132.219V131.473L181.998 131.099V131.846Z" fill="#2FDEA0"/>
<path d="M180.438 130.947L181.081 131.321V130.574L180.438 130.2V130.947Z" fill="#2FDEA0"/>
<path d="M178.879 130.049L179.527 130.422V129.675L178.879 129.302V130.049Z" fill="#2FDEA0"/>
<path d="M177.32 129.15L177.968 129.524V128.777L177.32 128.403V129.15Z" fill="#2FDEA0"/>
<path d="M175.767 128.252L176.409 128.625V127.878L175.767 127.505V128.252Z" fill="#2FDEA0"/>
<path d="M174.207 127.353L174.849 127.726V126.979L174.207 126.612V127.353Z" fill="#2FDEA0"/>
<path d="M172.648 126.454L173.296 126.828V126.081L172.648 125.713V126.454Z" fill="#2FDEA0"/>
<path d="M171.095 125.556L171.737 125.929V125.182L171.095 124.815V125.556Z" fill="#2FDEA0"/>
<path d="M169.535 124.657L170.178 125.031V124.284L169.535 123.916V124.657Z" fill="#2FDEA0"/>
<path d="M167.976 123.758L168.624 124.132V123.385L167.976 123.017V123.758Z" fill="#2FDEA0"/>
<path d="M166.423 122.86L167.065 123.233V122.487L166.423 122.119V122.86Z" fill="#2FDEA0"/>
<path d="M189.782 138.265L190.425 138.638V137.891L189.782 137.518V138.265Z" fill="#2FDEA0"/>
<path d="M188.223 137.366L188.871 137.739V136.993L188.223 136.619V137.366Z" fill="#2FDEA0"/>
<path d="M186.669 136.468L187.312 136.841V136.094L186.669 135.72V136.468Z" fill="#2FDEA0"/>
<path d="M185.11 135.569L185.753 135.942V135.195L185.11 134.828V135.569Z" fill="#2FDEA0"/>
<path d="M183.551 134.67L184.2 135.044V134.297L183.551 133.929V134.67Z" fill="#2FDEA0"/>
<path d="M181.998 133.772L182.64 134.145V133.398L181.998 133.031V133.772Z" fill="#2FDEA0"/>
<path d="M180.438 132.873L181.081 133.246V132.499L180.438 132.132V132.873Z" fill="#2FDEA0"/>
<path d="M178.879 131.974L179.527 132.348V131.601L178.879 131.233V131.974Z" fill="#2FDEA0"/>
<path d="M177.32 131.076L177.968 131.449V130.702L177.32 130.334V131.076Z" fill="#2FDEA0"/>
<path d="M175.767 130.177L176.409 130.551V129.804L175.767 129.436V130.177Z" fill="#2FDEA0"/>
<path d="M174.207 129.278L174.849 129.652V128.905L174.207 128.537V129.278Z" fill="#2FDEA0"/>
<path d="M172.648 128.38L173.296 128.753V128.007L172.648 127.639V128.38Z" fill="#2FDEA0"/>
<path d="M171.095 127.481L171.737 127.855V127.108L171.095 126.74V127.481Z" fill="#2FDEA0"/>
<path d="M169.535 126.583L170.178 126.956V126.209L169.535 125.842V126.583Z" fill="#2FDEA0"/>
<path d="M167.976 125.684L168.624 126.057V125.311L167.976 124.943V125.684Z" fill="#2FDEA0"/>
<path d="M166.423 124.786L167.065 125.159V124.412L166.423 124.045V124.786Z" fill="#2FDEA0"/>
<path d="M189.782 140.19L190.425 140.564V139.817L189.782 139.449V140.19Z" fill="#2FDEA0"/>
<path d="M188.223 139.292L188.871 139.665V138.918L188.223 138.551V139.292Z" fill="#2FDEA0"/>
<path d="M186.669 138.393L187.312 138.767V138.02L186.669 137.652V138.393Z" fill="#2FDEA0"/>
<path d="M185.11 137.494L185.753 137.868V137.121L185.11 136.753V137.494Z" fill="#2FDEA0"/>
<path d="M183.551 136.596L184.2 136.969V136.222L183.551 135.855V136.596Z" fill="#2FDEA0"/>
<path d="M181.998 135.697L182.64 136.071V135.324L181.998 134.956V135.697Z" fill="#2FDEA0"/>
<path d="M180.438 134.798L181.081 135.172V134.425L180.438 134.057V134.798Z" fill="#2FDEA0"/>
<path d="M178.879 133.9L179.527 134.273V133.527L178.879 133.159V133.9Z" fill="#2FDEA0"/>
<path d="M177.32 133.002L177.968 133.375V132.628L177.32 132.26V133.002Z" fill="#2FDEA0"/>
<path d="M175.767 132.103L176.409 132.476V131.729L175.767 131.362V132.103Z" fill="#2FDEA0"/>
<path d="M174.207 131.204L174.849 131.577V130.837L174.207 130.463V131.204Z" fill="#2FDEA0"/>
<path d="M172.648 130.306L173.296 130.679V129.938L172.648 129.565V130.306Z" fill="#2FDEA0"/>
<path d="M171.095 129.407L171.737 129.78V129.033L171.095 128.666V129.407Z" fill="#2FDEA0"/>
<path d="M169.535 128.508L170.178 128.882V128.141L169.535 127.767V128.508Z" fill="#2FDEA0"/>
<path d="M167.976 127.61L168.624 127.983V127.242L167.976 126.869V127.61Z" fill="#2FDEA0"/>
<path d="M166.423 126.711L167.065 127.085V126.344L166.423 125.97V126.711Z" fill="#2FDEA0"/>
<path d="M191.749 118.816C191.662 118.816 191.58 118.793 191.504 118.752C191.352 118.664 191.259 118.501 191.259 118.326V108.838C191.259 108.663 191.352 108.5 191.504 108.412L199.768 103.645C199.919 103.557 200.106 103.557 200.258 103.645C200.41 103.732 200.503 103.896 200.503 104.071V113.559C200.503 113.734 200.41 113.897 200.258 113.985L191.995 118.752C191.919 118.793 191.831 118.816 191.749 118.816ZM192.24 109.124V117.48L199.522 113.279V104.923L192.24 109.124Z" fill="#2FDEA0"/>
<path d="M191.75 118.816C191.662 118.816 191.58 118.793 191.504 118.752L183.241 113.985C183.089 113.897 182.996 113.734 182.996 113.559V104.071C182.996 103.896 183.089 103.732 183.241 103.645C183.393 103.557 183.58 103.557 183.731 103.645L191.995 108.412C192.147 108.5 192.24 108.663 192.24 108.838V118.326C192.24 118.501 192.147 118.664 191.995 118.752C191.919 118.793 191.831 118.816 191.75 118.816ZM183.983 113.279L191.265 117.48V109.124L183.983 104.923V113.279Z" fill="#2FDEA0"/>
<path d="M191.75 109.328C191.663 109.328 191.581 109.305 191.505 109.264L183.241 104.497C183.089 104.409 182.996 104.246 182.996 104.071C182.996 103.896 183.089 103.732 183.241 103.645L191.505 98.8775C191.657 98.79 191.844 98.79 191.995 98.8775L200.259 103.645C200.411 103.732 200.504 103.896 200.504 104.071C200.504 104.246 200.411 104.409 200.259 104.497L191.995 109.264C191.919 109.305 191.832 109.328 191.75 109.328ZM184.474 104.071L191.756 108.272L199.038 104.071L191.756 99.8693L184.474 104.071Z" fill="#2FDEA0"/>
<g opacity="0.5">
<path d="M199.75 114.102C199.581 114.102 199.417 114.014 199.324 113.856C199.277 113.775 199.254 113.681 199.26 113.594L191.75 109.264L183.731 113.892C183.498 114.026 183.194 113.944 183.06 113.711C182.926 113.477 183.007 113.174 183.241 113.04L191.504 108.272C191.656 108.185 191.843 108.185 191.995 108.272L200.258 113.04C200.41 113.127 200.504 113.291 200.504 113.466C200.504 113.641 200.41 113.804 200.258 113.892L199.996 114.043C199.92 114.09 199.832 114.107 199.75 114.107V114.102Z" fill="#2FDEA0"/>
</g>
<g opacity="0.5">
<path d="M191.749 109.182C191.481 109.182 191.259 108.961 191.259 108.692V99.3035C191.259 99.0292 191.481 98.8131 191.749 98.8131C192.018 98.8131 192.24 99.035 192.24 99.3035V108.692C192.24 108.961 192.018 109.182 191.749 109.182Z" fill="#2FDEA0"/>
</g>
<path d="M47.5326 120.567C47.445 120.567 47.3633 120.543 47.2874 120.503C47.1355 120.415 47.042 120.252 47.042 120.077V110.589C47.042 110.414 47.1355 110.25 47.2874 110.163L55.5508 105.396C55.7027 105.308 55.8896 105.308 56.0414 105.396C56.1933 105.483 56.2867 105.647 56.2867 105.822V115.309C56.2867 115.484 56.1933 115.648 56.0414 115.735L47.7778 120.503C47.7019 120.543 47.6144 120.567 47.5326 120.567ZM48.0289 110.869V119.225L55.3114 115.024V106.667L48.0289 110.869Z" fill="#2FDEA0"/>
<path d="M47.5324 120.567C47.4448 120.567 47.3631 120.543 47.2872 120.503L39.0236 115.735C38.8717 115.648 38.7783 115.484 38.7783 115.309V105.822C38.7783 105.647 38.8717 105.483 39.0236 105.396C39.1754 105.308 39.3623 105.308 39.5142 105.396L47.7776 110.163C47.9295 110.25 48.0229 110.414 48.0229 110.589V120.077C48.0229 120.252 47.9295 120.415 47.7776 120.503C47.7017 120.543 47.6142 120.567 47.5324 120.567ZM39.7652 115.029L47.0476 119.231V110.875L39.7652 106.673V115.029Z" fill="#2FDEA0"/>
<path d="M47.5324 111.079C47.4448 111.079 47.3631 111.055 47.2872 111.015L39.0236 106.247C38.8717 106.16 38.7783 105.996 38.7783 105.821C38.7783 105.646 38.8717 105.483 39.0236 105.395L47.2872 100.628C47.439 100.541 47.6258 100.541 47.7776 100.628L56.0412 105.395C56.1931 105.483 56.2865 105.646 56.2865 105.821C56.2865 105.996 56.1931 106.16 56.0412 106.247L47.7776 111.015C47.7017 111.055 47.6142 111.079 47.5324 111.079ZM40.2558 105.821L47.5382 110.022L54.8206 105.821L47.5382 101.62L40.2558 105.821Z" fill="#2FDEA0"/>
<g opacity="0.5">
<path d="M55.539 115.852C55.3696 115.852 55.2061 115.765 55.1127 115.607C55.066 115.525 55.0425 115.432 55.0484 115.344L47.5383 111.015L39.5201 115.642C39.2865 115.776 38.9827 115.695 38.8484 115.461C38.7141 115.228 38.7959 114.924 39.0295 114.79L47.2929 110.023C47.4448 109.935 47.6317 109.935 47.7835 110.023L56.0471 114.79C56.199 114.878 56.2924 115.041 56.2924 115.216C56.2924 115.391 56.199 115.555 56.0471 115.642L55.7842 115.794C55.7083 115.84 55.6208 115.858 55.539 115.858V115.852Z" fill="#2FDEA0"/>
</g>
<g opacity="0.5">
<path d="M47.5326 110.933C47.264 110.933 47.042 110.711 47.042 110.443V101.054C47.042 100.786 47.264 100.564 47.5326 100.564C47.8012 100.564 48.0231 100.786 48.0231 101.054V110.443C48.0231 110.717 47.8012 110.933 47.5326 110.933Z" fill="#2FDEA0"/>
</g>
<path d="M64.182 151.224L64.106 165.55C64.106 166.285 64.5907 167.014 65.5543 167.575L65.6302 153.249C64.6667 152.689 64.182 151.954 64.182 151.224Z" fill="#CFCDE2"/>
<mask id="mask0_496_67521" style="mask-type:luminance" maskUnits="userSpaceOnUse" x="64" y="151" width="2" height="17">
<path d="M64.182 151.224L64.106 165.55C64.106 166.285 64.5907 167.014 65.5543 167.575L65.6302 153.249C64.6667 152.689 64.182 151.954 64.182 151.224Z" fill="white"/>
</mask>
<g mask="url(#mask0_496_67521)">
<path d="M64.182 151.224L64.106 165.55C64.106 165.777 64.1527 166.005 64.2461 166.232L64.3221 151.907C64.2287 151.685 64.182 151.452 64.182 151.224Z" fill="#CFCDE2"/>
<path d="M64.3221 151.901L64.2461 166.227C64.4563 166.723 64.8885 167.189 65.5542 167.575L65.6302 153.249C64.9645 152.864 64.5323 152.397 64.3221 151.901Z" fill="#CFCDE2"/>
</g>
<path d="M178.154 165.521L178.23 151.195C178.23 151.936 177.74 152.683 176.759 153.249L176.683 167.575C177.664 167.009 178.154 166.262 178.154 165.521Z" fill="#E7E6F1"/>
<mask id="mask1_496_67521" style="mask-type:luminance" maskUnits="userSpaceOnUse" x="176" y="151" width="3" height="17">
<path d="M178.154 165.521L178.23 151.195C178.23 151.936 177.74 152.683 176.759 153.249L176.683 167.575C177.664 167.009 178.154 166.262 178.154 165.521Z" fill="white"/>
</mask>
<g mask="url(#mask1_496_67521)">
<path d="M176.759 153.249L176.683 167.575C177.664 167.009 178.154 166.262 178.154 165.521L178.23 151.195C178.23 151.936 177.74 152.683 176.759 153.249Z" fill="#E7E6F1"/>
</g>
<path d="M65.6302 153.249L65.5542 167.575L117.419 197.695L117.495 183.364L65.6302 153.249Z" fill="#CFCDE2"/>
<path d="M124.549 183.364L124.474 197.695L176.683 167.575L176.759 153.249L124.549 183.364Z" fill="#E7E6F1"/>
<mask id="mask2_496_67521" style="mask-type:luminance" maskUnits="userSpaceOnUse" x="117" y="183" width="8" height="16">
<path d="M117.495 183.364L117.419 197.69C119.358 198.816 122.517 198.816 124.474 197.69L124.549 183.364C122.593 184.49 119.434 184.49 117.495 183.364Z" fill="white"/>
</mask>
<g mask="url(#mask2_496_67521)">
<path d="M121.11 184.21L121.034 198.535C122.278 198.524 123.522 198.244 124.474 197.69L124.549 183.364C123.597 183.913 122.354 184.199 121.11 184.21Z" fill="#E7E6F1"/>
</g>
<path d="M65.6536 149.165C63.6972 150.291 63.6913 152.123 65.6302 153.249L117.501 183.364C119.44 184.491 122.599 184.491 124.555 183.364L176.764 153.249C178.721 152.123 178.727 150.291 176.788 149.165L124.917 119.05C122.978 117.924 119.819 117.924 117.863 119.05L65.6536 149.165Z" fill="#F4F4FB"/>
<path d="M117.495 183.364L117.419 197.69C118.412 198.267 119.726 198.547 121.034 198.536L121.11 184.21C119.802 184.222 118.488 183.942 117.495 183.364Z" fill="#CFCDE2"/>
<path d="M68.6379 126.18L68.5679 149.27C68.5679 149.947 69.0117 150.618 69.8994 151.131L69.9694 128.041C69.0817 127.528 68.6379 126.851 68.6379 126.18Z" fill="#2AC489"/>
<mask id="mask3_496_67521" style="mask-type:luminance" maskUnits="userSpaceOnUse" x="68" y="126" width="2" height="26">
<path d="M68.6379 126.18L68.5679 149.27C68.5679 149.947 69.0117 150.618 69.8994 151.131L69.9694 128.041C69.0817 127.528 68.6379 126.851 68.6379 126.18Z" fill="white"/>
</mask>
<g mask="url(#mask3_496_67521)">
<path d="M68.6379 126.18L68.5679 149.27C68.5679 149.48 68.6146 149.69 68.6963 149.894L68.7663 126.804C68.6787 126.6 68.6379 126.39 68.6379 126.18Z" fill="#2AC489"/>
<path d="M68.7722 126.81L68.7021 149.9C68.8949 150.355 69.292 150.781 69.9052 151.137L69.9752 128.047C69.3679 127.691 68.9649 127.265 68.7722 126.81Z" fill="#2AC489"/>
</g>
<path d="M173.383 149.246L173.453 126.157C173.453 126.84 173.004 127.522 172.098 128.047L172.028 151.137C172.934 150.617 173.383 149.929 173.383 149.246Z" fill="#2FDEA0"/>
<mask id="mask4_496_67521" style="mask-type:luminance" maskUnits="userSpaceOnUse" x="172" y="126" width="2" height="26">
<path d="M173.383 149.246L173.453 126.157C173.453 126.84 173.004 127.522 172.098 128.047L172.028 151.137C172.934 150.617 173.383 149.929 173.383 149.246Z" fill="white"/>
</mask>
<g mask="url(#mask4_496_67521)">
<path d="M172.098 128.047L172.028 151.137C172.934 150.617 173.383 149.929 173.383 149.246L173.453 126.157C173.453 126.84 173.004 127.522 172.098 128.047Z" fill="#2FDEA0"/>
</g>
<path d="M69.9689 128.047L69.8989 151.137L117.57 178.813L117.64 155.723L69.9689 128.047Z" fill="#2AC489"/>
<path d="M124.123 155.723L124.053 178.813L172.028 151.137L172.098 128.047L124.123 155.723Z" fill="#2FDEA0"/>
<path d="M117.64 155.723L117.57 178.813C119.351 179.851 122.26 179.851 124.053 178.813L124.123 155.723C122.33 156.762 119.422 156.762 117.64 155.723Z" fill="#2FDEA0"/>
<mask id="mask5_496_67521" style="mask-type:luminance" maskUnits="userSpaceOnUse" x="117" y="155" width="8" height="25">
<path d="M117.64 155.723L117.57 178.813C119.351 179.851 122.26 179.851 124.053 178.813L124.123 155.723C122.33 156.762 119.422 156.762 117.64 155.723Z" fill="white"/>
</mask>
<g mask="url(#mask5_496_67521)">
<path d="M120.958 156.499L120.888 179.589C122.032 179.577 123.171 179.32 124.053 178.813L124.123 155.723C123.247 156.231 122.108 156.488 120.958 156.499Z" fill="#2FDEA0"/>
</g>
<path d="M69.9926 124.289C68.1998 125.322 68.188 127.009 69.9692 128.042L117.635 155.717C119.416 156.75 122.324 156.75 124.117 155.717L172.092 128.042C173.885 127.009 173.897 125.322 172.116 124.289L124.45 96.6134C122.669 95.5747 119.761 95.5805 117.968 96.6134L69.9926 124.289Z" fill="#2FDEA0"/>
<path d="M117.64 155.723L117.57 178.813C118.481 179.344 119.69 179.601 120.893 179.589L120.963 156.499C119.76 156.511 118.557 156.254 117.64 155.723Z" fill="#2AC489"/>
<path d="M64.182 120.094L64.106 134.419C64.106 135.154 64.5907 135.884 65.5543 136.444L65.6302 122.119C64.6667 121.559 64.182 120.824 64.182 120.094Z" fill="#CFCDE2"/>
<mask id="mask6_496_67521" style="mask-type:luminance" maskUnits="userSpaceOnUse" x="64" y="120" width="2" height="17">
<path d="M64.182 120.094L64.106 134.419C64.106 135.154 64.5907 135.884 65.5543 136.444L65.6302 122.119C64.6667 121.559 64.182 120.824 64.182 120.094Z" fill="white"/>
</mask>
<g mask="url(#mask6_496_67521)">
<path d="M64.182 120.094L64.106 134.419C64.106 134.647 64.1527 134.874 64.2461 135.102L64.3221 120.777C64.2287 120.555 64.182 120.322 64.182 120.094Z" fill="#CFCDE2"/>
<path d="M64.3221 120.777L64.2461 135.102C64.4563 135.598 64.8885 136.065 65.5542 136.45L65.6302 122.125C64.9645 121.74 64.5323 121.273 64.3221 120.777Z" fill="#CFCDE2"/>
</g>
<path d="M178.154 134.396L178.23 120.071C178.23 120.812 177.74 121.559 176.759 122.125L176.683 136.45C177.664 135.884 178.154 135.137 178.154 134.396Z" fill="#E7E6F1"/>
<mask id="mask7_496_67521" style="mask-type:luminance" maskUnits="userSpaceOnUse" x="176" y="120" width="3" height="17">
<path d="M178.154 134.396L178.23 120.071C178.23 120.812 177.74 121.559 176.759 122.125L176.683 136.45C177.664 135.884 178.154 135.137 178.154 134.396Z" fill="white"/>
</mask>
<g mask="url(#mask7_496_67521)">
<path d="M176.759 122.125L176.683 136.45C177.664 135.884 178.154 135.137 178.154 134.396L178.23 120.071C178.23 120.812 177.74 121.559 176.759 122.125Z" fill="#E7E6F1"/>
</g>
<path d="M65.6302 122.125L65.5542 136.45L117.419 166.565L117.495 152.24L65.6302 122.125Z" fill="#CFCDE2"/>
<path d="M124.549 152.24L124.474 166.565L176.683 136.45L176.759 122.125L124.549 152.24Z" fill="#E7E6F1"/>
<mask id="mask8_496_67521" style="mask-type:luminance" maskUnits="userSpaceOnUse" x="117" y="152" width="8" height="16">
<path d="M117.495 152.24L117.419 166.565C119.358 167.691 122.517 167.691 124.474 166.565L124.549 152.24C122.593 153.366 119.434 153.366 117.495 152.24Z" fill="white"/>
</mask>
<g mask="url(#mask8_496_67521)">
<path d="M121.11 153.086L121.034 167.411C122.278 167.399 123.522 167.12 124.474 166.565L124.549 152.24C123.597 152.788 122.354 153.074 121.11 153.086Z" fill="#E7E6F1"/>
</g>
<path d="M65.6536 118.04C63.6972 119.166 63.6913 120.999 65.6302 122.125L117.501 152.24C119.44 153.366 122.599 153.366 124.555 152.24L176.764 122.125C178.721 120.999 178.727 119.166 176.788 118.04L124.917 87.9252C122.978 86.799 119.819 86.799 117.863 87.9252L65.6536 118.04Z" fill="#F4F4FB"/>
<path d="M81.9999 115.613C81.9999 115.613 81.9999 115.595 81.9999 115.584L81.9473 119.155C81.9473 119.225 81.959 119.301 81.9706 119.371C81.9706 119.394 81.9823 119.417 81.9882 119.435C81.9999 119.487 82.0174 119.534 82.035 119.587C82.035 119.598 82.0407 119.61 82.0465 119.622C82.0465 119.633 82.0582 119.645 82.064 119.657C82.0932 119.721 82.1284 119.779 82.1634 119.843C82.1751 119.855 82.1808 119.873 82.1867 119.884C82.2392 119.954 82.2976 120.03 82.3619 120.1C82.3794 120.117 82.397 120.135 82.4145 120.153C82.467 120.205 82.5255 120.258 82.5897 120.31C82.6131 120.328 82.6364 120.351 82.6597 120.368C82.7473 120.433 82.8407 120.497 82.94 120.555L118.593 141.258C118.762 141.357 118.943 141.439 119.136 141.515C119.2 141.538 119.27 141.556 119.34 141.579C119.469 141.62 119.603 141.667 119.738 141.702C119.819 141.719 119.907 141.731 119.995 141.748C120.123 141.772 120.252 141.795 120.38 141.812C120.473 141.824 120.567 141.824 120.666 141.83C120.795 141.836 120.917 141.847 121.046 141.847C121.057 141.847 121.069 141.847 121.069 141.847C121.192 141.847 121.303 141.836 121.42 141.824C121.513 141.818 121.606 141.818 121.694 141.807C121.822 141.789 121.945 141.766 122.068 141.743C122.149 141.725 122.237 141.719 122.319 141.696C122.453 141.667 122.582 141.62 122.71 141.579C122.774 141.556 122.844 141.544 122.909 141.515C123.096 141.445 123.277 141.357 123.44 141.264L159.327 120.561C160.004 120.17 160.337 119.657 160.337 119.149L160.389 115.578C160.389 115.076 160.057 114.568 159.397 114.183L123.744 93.4802C122.412 92.7042 120.24 92.7042 118.897 93.4802L83.0102 114.183C82.3211 114.58 81.9882 115.105 81.9999 115.624V115.613ZM82.0174 115.794C82.0174 115.794 82.0291 115.84 82.035 115.864C82.035 115.864 82.0233 115.817 82.0174 115.794ZM82.4145 116.523C82.4145 116.523 82.4496 116.558 82.4671 116.575C82.4671 116.575 82.432 116.541 82.4145 116.523ZM82.6422 116.733C82.6422 116.733 82.6773 116.762 82.6948 116.774C82.6773 116.762 82.6597 116.745 82.6422 116.733ZM82.0816 116.015C82.0816 116.015 82.0933 116.045 82.0991 116.062C82.0933 116.05 82.0874 116.033 82.0816 116.021V116.015ZM160.249 116.138C160.249 116.138 160.273 116.08 160.284 116.05C160.273 116.08 160.261 116.109 160.249 116.138ZM160.372 115.759C160.372 115.729 160.372 115.7 160.378 115.671C160.378 115.7 160.378 115.729 160.372 115.759ZM160.325 115.951C160.325 115.951 160.343 115.893 160.349 115.864C160.343 115.893 160.337 115.922 160.325 115.951ZM159.992 116.494C159.992 116.494 160.033 116.441 160.057 116.418C160.033 116.441 160.016 116.471 159.992 116.494ZM160.138 116.319C160.138 116.319 160.173 116.266 160.185 116.237C160.168 116.266 160.156 116.29 160.138 116.319ZM159.619 116.826C159.619 116.826 159.66 116.791 159.683 116.78C159.66 116.797 159.642 116.815 159.619 116.826ZM159.823 116.669C159.823 116.669 159.876 116.616 159.899 116.593C159.876 116.616 159.852 116.646 159.823 116.669Z" fill="#98A4E0"/>
<path d="M81.9999 115.583L81.9473 119.155C81.9473 119.656 82.2801 120.164 82.9459 120.549L82.9985 116.984C82.3386 116.599 82.0057 116.097 81.9999 115.589V115.583Z" fill="#CFCDE2"/>
<mask id="mask9_496_67521" style="mask-type:luminance" maskUnits="userSpaceOnUse" x="81" y="115" width="2" height="6">
<path d="M81.9999 115.583L81.9473 119.155C81.9473 119.656 82.2801 120.164 82.9459 120.549L82.9985 116.984C82.3386 116.599 82.0057 116.097 81.9999 115.589V115.583Z" fill="white"/>
</mask>
<g mask="url(#mask9_496_67521)">
<path d="M81.9999 115.583L81.9473 119.155C81.9473 119.312 81.9823 119.47 82.0465 119.621L82.0991 116.056C82.0349 115.904 81.9999 115.747 81.9999 115.589V115.583Z" fill="#CFCDE2"/>
<path d="M82.0931 116.05L82.0405 119.615C82.1807 119.954 82.4844 120.275 82.9399 120.543L82.9925 116.978C82.537 116.716 82.2391 116.394 82.0931 116.05Z" fill="#CFCDE2"/>
</g>
<path d="M160.337 119.131L160.39 115.566C160.39 116.079 160.051 116.587 159.379 116.978L159.327 120.543C160.004 120.152 160.337 119.639 160.337 119.131Z" fill="#E7E6F1"/>
<mask id="mask10_496_67521" style="mask-type:luminance" maskUnits="userSpaceOnUse" x="159" y="115" width="2" height="6">
<path d="M160.337 119.131L160.39 115.566C160.39 116.079 160.051 116.587 159.379 116.978L159.327 120.543C160.004 120.152 160.337 119.639 160.337 119.131Z" fill="white"/>
</mask>
<g mask="url(#mask10_496_67521)">
<path d="M159.379 116.978L159.327 120.543C160.004 120.152 160.337 119.639 160.337 119.131L160.39 115.566C160.39 116.079 160.051 116.587 159.379 116.978Z" fill="#E7E6F1"/>
</g>
<path d="M82.9926 116.978L82.9399 120.543L118.593 141.247L118.645 137.681L82.9926 116.978Z" fill="#CFCDE2"/>
<path d="M123.493 137.681L123.44 141.247L159.326 120.549L159.379 116.978L123.493 137.681Z" fill="#E7E6F1"/>
<mask id="mask11_496_67521" style="mask-type:luminance" maskUnits="userSpaceOnUse" x="118" y="137" width="6" height="5">
<path d="M118.645 137.681L118.593 141.247C119.924 142.023 122.097 142.023 123.44 141.247L123.493 137.675C122.149 138.451 119.977 138.451 118.645 137.675V137.681Z" fill="white"/>
</mask>
<g mask="url(#mask11_496_67521)">
<path d="M118.645 137.682L118.593 141.247C119.276 141.644 120.175 141.836 121.075 141.83L121.127 138.259C120.228 138.271 119.329 138.073 118.645 137.682Z" fill="#CFCDE2"/>
<path d="M121.127 138.259L121.074 141.83C121.933 141.818 122.785 141.626 123.439 141.247L123.492 137.675C122.838 138.055 121.985 138.247 121.127 138.259Z" fill="#E7E6F1"/>
</g>
<path d="M83.0098 114.172C81.6667 114.948 81.6608 116.202 82.9923 116.978L118.645 137.681C119.977 138.457 122.149 138.457 123.492 137.681L159.379 116.978C160.722 116.202 160.728 114.948 159.396 114.172L123.743 93.4685C122.412 92.6925 120.239 92.6925 118.896 93.4685L83.0098 114.172Z" fill="#EFF6FE"/>
<path d="M148.967 116.593L147.302 117.556L122.868 131.653C121.887 132.219 120.31 132.219 119.34 131.653L95.0872 117.567L93.4112 116.593C92.4476 116.027 92.4476 115.116 93.4229 114.556L119.527 99.5018C120.503 98.9358 122.079 98.9358 123.049 99.5018L148.978 114.556C149.953 115.122 149.942 116.039 148.967 116.593Z" fill="#E7E6F1"/>
<path d="M147.302 117.55L122.868 131.648C121.886 132.214 120.31 132.214 119.34 131.648L95.0869 117.562L119.527 103.464C120.502 102.898 122.079 102.898 123.049 103.464L147.302 117.55Z" fill="#2FDEA0"/>
<path d="M117.495 152.24L117.419 166.565C118.412 167.143 119.726 167.423 121.034 167.411L121.11 153.086C119.802 153.098 118.488 152.818 117.495 152.24Z" fill="#CFCDE2"/>
<path d="M159.501 113.727L159.262 113.313C159.834 112.981 160.155 112.555 160.155 112.111C160.155 111.673 159.846 111.247 159.279 110.921L123.626 90.2177C122.359 89.4824 120.292 89.4824 119.019 90.2177L83.1322 110.921C82.5599 111.253 82.2387 111.679 82.2387 112.123C82.2387 112.56 82.5482 112.986 83.1147 113.313L82.8753 113.727C82.157 113.307 81.7598 112.741 81.7598 112.123C81.7598 111.504 82.1628 110.927 82.8928 110.506L118.779 89.8034C120.187 88.9923 122.47 88.9923 123.872 89.8034L159.525 110.506C160.243 110.927 160.64 111.493 160.64 112.111C160.64 112.73 160.237 113.307 159.507 113.727H159.501Z" fill="#2FDEA0"/>
<path d="M161.248 103.662L161.008 103.248C161.61 102.898 161.948 102.448 161.948 101.982C161.948 101.521 161.621 101.071 161.026 100.727L123.744 79.0786C122.418 78.3084 120.251 78.3084 118.914 79.0786L81.3864 100.727C80.7848 101.077 80.4519 101.526 80.4461 101.993C80.4461 102.454 80.7731 102.903 81.3688 103.248L81.1294 103.662C80.3819 103.224 79.9673 102.635 79.9673 101.993C79.9673 101.346 80.3878 100.75 81.147 100.313L118.674 78.6644C120.146 77.8183 122.529 77.8183 123.989 78.6644L161.271 100.313C162.019 100.75 162.433 101.34 162.433 101.982C162.433 102.629 162.013 103.224 161.253 103.662H161.248Z" fill="#2FDEA0"/>
<path d="M162.994 93.5964L162.754 93.1821C163.391 92.8145 163.735 92.342 163.741 91.8519C163.741 91.3675 163.397 90.8947 162.772 90.533L123.86 67.9395C122.47 67.1342 120.204 67.1342 118.809 67.9395L79.6401 90.533C79.0036 90.9006 78.6591 91.3734 78.6532 91.8635C78.6532 92.3479 78.9977 92.8204 79.6226 93.1821L79.3832 93.5964C78.6065 93.1413 78.1743 92.5287 78.1743 91.8635C78.1743 91.1925 78.6124 90.5738 79.4008 90.1187L118.569 67.5252C120.099 66.6441 122.581 66.6441 124.105 67.5252L163.017 90.1187C163.794 90.5738 164.226 91.1866 164.226 91.8519C164.226 92.5229 163.788 93.1413 163 93.5964H162.994Z" fill="#2FDEA0"/>
<path d="M164.74 83.5305L164.5 83.1162C165.166 82.7311 165.528 82.2351 165.528 81.7216C165.528 81.2081 165.172 80.7181 164.518 80.3389L123.977 56.7997C122.529 55.9595 120.163 55.9595 118.704 56.7997L77.894 80.3389C77.2283 80.724 76.8662 81.2139 76.8662 81.7332C76.8662 82.2467 77.2224 82.737 77.8823 83.1162L77.643 83.5305C76.837 83.0637 76.3873 82.4218 76.3931 81.7332C76.3931 81.0389 76.8428 80.3972 77.6662 79.9246L118.476 56.3855C120.07 55.4693 122.651 55.4693 124.228 56.3855L164.769 79.9246C165.575 80.3914 166.025 81.033 166.019 81.7216C166.019 82.4159 165.569 83.0579 164.746 83.5305H164.74Z" fill="#2FDEA0"/>
<path d="M166.486 73.4651L166.246 73.0508C166.941 72.6482 167.321 72.1347 167.321 71.592C167.321 71.0552 166.947 70.5417 166.264 70.1449L124.094 45.6547C122.587 44.7794 120.117 44.7794 118.598 45.6547L76.1478 70.1449C75.4528 70.5475 75.0732 71.061 75.0732 71.6037C75.0732 72.1405 75.4469 72.654 76.1302 73.0508L75.8908 73.4651C75.0499 72.9807 74.5942 72.3156 74.5942 71.6037C74.5942 70.886 75.0614 70.2208 75.9141 69.7306L118.365 45.2404C120.017 44.2893 122.698 44.2893 124.339 45.2404L166.515 69.7306C167.35 70.215 167.812 70.8801 167.812 71.592C167.812 72.3097 167.344 72.9749 166.492 73.4651H166.486Z" fill="#2FDEA0"/>
<path d="M150.928 59.105L147.045 62.5303L140.995 66.0197L144.884 62.5944L150.928 59.105Z" fill="#007296"/>
<path d="M144.884 62.5945L140.995 66.0198L136.276 58.9709L140.165 55.5457L144.884 62.5945Z" fill="#017296"/>
<path d="M146.21 52.0563L150.929 59.1052L144.884 62.5946L140.166 55.5457L146.21 52.0563Z" fill="#00A1D4"/>
<path d="M148.207 103.213L139.92 101.188L135.75 91.6709L144.037 93.7015L148.207 103.213Z" fill="#007296"/>
<path d="M144.037 93.7014L135.75 91.6708L143.664 84.7211L151.95 86.746L144.037 93.7014Z" fill="#00A1D4"/>
<path d="M151.95 86.746L156.12 96.2631L148.207 103.213L144.037 93.7014L151.95 86.746Z" fill="#017296"/>
<path d="M91.6705 97.7627L83.7807 93.182L83.7573 84.4584L91.6471 89.045L91.6705 97.7627Z" fill="#007296"/>
<path d="M91.6471 89.045L83.7573 84.4584L91.3493 80.082L99.2449 84.6627L91.6471 89.045Z" fill="#00A1D4"/>
<path d="M99.2452 84.6627L99.2685 93.3864L91.6708 97.7627L91.6475 89.0451L99.2452 84.6627Z" fill="#017296"/>
<path d="M120.899 90.0604L113.991 86.2909L117.051 80.1523L123.965 83.9218L120.899 90.0604Z" fill="#017296"/>
<path d="M123.966 83.9218L117.051 80.1523L119.054 77.655L125.963 81.4185L123.966 83.9218Z" fill="#00A1D4"/>
<path d="M125.963 81.4186L122.903 87.5631L120.899 90.0604L123.965 83.9219L125.963 81.4186Z" fill="#007296"/>
<path d="M123.212 121.762L113.938 114.813L112.093 110.028L121.367 116.984L123.212 121.762Z" fill="#007296"/>
<path d="M121.367 116.984L112.093 110.028L119.889 101.339L129.163 108.289L121.367 116.984Z" fill="#00A1D4"/>
<path d="M131.008 113.074L123.212 121.763L121.367 116.984L129.163 108.289L131.008 113.074Z" fill="#017296"/>
<path d="M107.906 58.1127L101.861 56.5607L100.968 48.438L107.006 49.9845L107.906 58.1127Z" fill="#007296"/>
<path d="M107.006 49.9848L100.968 48.4382L107.322 45.9409L113.36 47.4932L107.006 49.9848Z" fill="#00A1D4"/>
<path d="M113.36 47.493L114.253 55.6155L107.905 58.1128L107.006 49.9847L113.36 47.493Z" fill="#017296"/>
<path d="M121.063 135.044C120.14 135.044 119.217 134.839 118.523 134.437L82.8696 113.734L83.109 113.319L118.762 134.022C120.029 134.758 122.096 134.758 123.37 134.022L159.256 113.319L159.496 113.734L123.609 134.437C122.902 134.845 121.98 135.044 121.063 135.044Z" fill="#2FDEA0"/>
<path d="M121.063 125.946C120.099 125.946 119.142 125.736 118.412 125.31L81.1294 103.662L81.3688 103.248L118.651 124.896C119.977 125.666 122.143 125.666 123.481 124.896L161.008 103.248L161.248 103.662L123.72 125.31C122.984 125.736 122.021 125.946 121.063 125.946Z" fill="#2FDEA0"/>
<path d="M121.051 116.855C120.047 116.855 119.048 116.634 118.289 116.196L79.3774 93.6025L79.6168 93.1882L118.528 115.782C119.918 116.587 122.184 116.587 123.58 115.782L162.749 93.1882L162.988 93.6025L123.819 116.196C123.054 116.639 122.05 116.855 121.051 116.855Z" fill="#2FDEA0"/>
<path d="M121.045 107.764C120 107.764 118.961 107.537 118.172 107.076L77.6313 83.5367L77.8707 83.1224L118.412 106.661C119.86 107.502 122.225 107.502 123.685 106.661L164.495 83.1224L164.734 83.5367L123.925 107.076C123.13 107.537 122.085 107.764 121.045 107.764Z" fill="#2FDEA0"/>
<path d="M121.045 98.6672C119.965 98.6672 118.879 98.4279 118.061 97.9495L75.8911 73.4596L76.1305 73.0453L118.301 97.5352C119.813 98.4105 122.278 98.4105 123.796 97.5352L166.247 73.0453L166.486 73.4596L124.036 97.9495C123.206 98.4279 122.126 98.6672 121.045 98.6672Z" fill="#2FDEA0"/>
<path d="M82.5952 66.9067L85.0012 69.0248L88.7505 71.1896L86.3386 69.0656L82.5952 66.9067Z" fill="#B5B2CF"/>
<path d="M86.3384 69.0655L88.7504 71.1895L91.6703 66.8249L89.2642 64.7008L86.3384 69.0655Z" fill="#CFCDE2"/>
<path d="M85.521 62.5421L82.5952 66.9068L86.3386 69.0656L89.2644 64.7009L85.521 62.5421Z" fill="#E7E6F1"/>
<path d="M106.58 104.496L111.713 103.242L114.295 97.3483L109.161 98.6028L106.58 104.496Z" fill="#CFCDE2"/>
<path d="M109.162 98.603L114.295 97.3485L109.389 93.0422L104.256 94.2967L109.162 98.603Z" fill="#F4F4FB"/>
<path d="M104.256 94.2966L101.674 100.19L106.58 104.496L109.161 98.6029L104.256 94.2966Z" fill="#E7E6F1"/>
<path d="M133.701 77.5499L138.589 74.7142L138.6 69.3107L133.712 72.1524L133.701 77.5499Z" fill="#CFCDE2"/>
<path d="M133.712 72.1525L138.6 69.3107L133.899 66.5974L129.005 69.4332L133.712 72.1525Z" fill="#F4F4FB"/>
<path d="M129.005 69.4333L128.994 74.8368L133.701 77.5501L133.712 72.1526L129.005 69.4333Z" fill="#E7E6F1"/>
<path d="M159.356 73.4771L163.636 71.143L161.738 67.3385L157.458 69.6726L159.356 73.4771Z" fill="#E7E6F1"/>
<path d="M157.457 69.6724L161.738 67.3384L160.5 65.7921L156.219 68.1262L157.457 69.6724Z" fill="#F4F4FB"/>
<path d="M156.219 68.1262L158.111 71.9307L159.355 73.477L157.457 69.6725L156.219 68.1262Z" fill="#B5B2CF"/>
<path d="M107.502 77.5381L113.249 73.2319L114.394 70.2736L108.647 74.5738L107.502 77.5381Z" fill="#CFCDE2"/>
<path d="M108.647 74.5739L114.394 70.2736L109.564 64.8878L103.817 69.1941L108.647 74.5739Z" fill="#F4F4FB"/>
<path d="M102.673 72.1523L107.502 77.5381L108.647 74.5738L103.817 69.194L102.673 72.1523Z" fill="#E7E6F1"/>
<path d="M125.77 53.4215L129.513 52.4588L130.068 47.4288L126.324 48.3859L125.77 53.4215Z" fill="#CFCDE2"/>
<path d="M126.324 48.3857L130.068 47.4287L126.132 45.8824L122.388 46.8452L126.324 48.3857Z" fill="#F4F4FB"/>
<path d="M122.388 46.8453L121.833 51.8753L125.77 53.4215L126.324 48.3859L122.388 46.8453Z" fill="#E7E6F1"/>
</svg>
