<svg width="240" height="240" viewBox="0 0 240 240" fill="none" xmlns="http://www.w3.org/2000/svg">
<path d="M204.319 203.422L136.973 164.548L137.457 163.693L204.832 202.595L204.319 203.422Z" fill="#E5ECF8"/>
<path d="M63.4132 202.852L62.9287 201.997L88.0944 187.462L78.4898 181.933L115.113 160.786L115.597 161.641L80.4564 181.933L90.0609 187.462L63.4132 202.852Z" fill="#E5ECF8"/>
<path d="M145.009 151.808L144.525 150.953L175.562 133.026L148.087 117.152L199.815 87.3118L200.3 88.1383L150.054 117.152L177.528 133.026L145.009 151.808Z" fill="#E5ECF8"/>
<path d="M104.681 143.999L65.0945 121.141L39.2733 136.076L39.0168 135.933L0 113.389L43.3204 88.3947L43.8334 89.2212L1.96652 113.389L39.2733 134.936L65.0945 120.001L65.351 120.144L105.166 143.144L104.681 143.999Z" fill="#E5ECF8"/>
<g style="mix-blend-mode:multiply" opacity="0.5">
<path d="M40.8696 79.0466L0.427734 102.417L17.4709 112.249L35.2835 101.961L42.4371 106.065H43.4061L40.8696 79.0466Z" fill="#25856B"/>
</g>
<g style="mix-blend-mode:multiply" opacity="0.5">
<path d="M45.9709 110.853L38.1333 115.413L46.1419 120.03H47.2249L45.9709 110.853Z" fill="#25856B"/>
</g>
<g style="mix-blend-mode:multiply" opacity="0.5">
<path d="M71.2506 99.3672L68.0586 101.22L72.8751 105.01L76.4092 105.865L71.2506 99.3672Z" fill="#25856B"/>
</g>
<path d="M43.4065 106.065L36.5664 102.132V101.106L43.4065 105.067V106.065Z" fill="#94A0B4"/>
<path d="M57.0574 98.1988L43.4058 106.065V105.067L57.0574 97.2013V98.1988Z" fill="#BBC2CD"/>
<path d="M43.4065 105.067L36.5664 101.106L50.1895 93.2397L57.0581 97.2013L43.4065 105.067Z" fill="#E5ECF8"/>
<path d="M47.2249 120.03L39.1309 115.356V114.358L47.2249 119.032V120.03Z" fill="#94A0B4"/>
<path d="M69.7398 107.034L47.2246 120.03V119.032L69.7398 106.036V107.034Z" fill="#BBC2CD"/>
<path d="M47.2249 119.032L39.1309 114.358L61.6175 101.362L69.7401 106.036L47.2249 119.032Z" fill="#E5ECF8"/>
<path d="M76.4085 105.866L68.3145 101.191V100.964L74.499 103.757L76.4085 105.866Z" fill="#94A0B4"/>
<path d="M80.6831 103.386L76.4081 105.865L74.4985 103.756L78.7736 101.277L80.6831 103.386Z" fill="#BBC2CD"/>
<path d="M74.499 103.757L68.3145 100.964L72.5895 98.4841L78.774 101.277L74.499 103.757Z" fill="#E5ECF8"/>
<path d="M43.1209 100.45L41.7529 99.6807V80.728L43.1209 81.4975V100.45Z" fill="#94A0B4"/>
<path d="M49.1912 96.9447L43.1206 100.45V81.4976L49.1912 77.9921V96.9447Z" fill="#BBC2CD"/>
<path d="M43.1209 81.4976L41.7529 80.7281L47.8235 77.1941L49.1915 77.9921L43.1209 81.4976Z" fill="#E5ECF8"/>
<path d="M26.9321 107.86L24.3101 106.321V76.3107L26.9321 77.8212V107.86Z" fill="#94A0B4"/>
<path d="M69.055 83.5212L26.9316 107.86V77.8212L69.055 53.5105V83.5212Z" fill="#2FDEA0"/>
<path d="M26.9321 77.8212L24.3101 76.3107L66.4334 52L69.0554 53.5105L26.9321 77.8212Z" fill="#E5ECF8"/>
<g style="mix-blend-mode:multiply" opacity="0.5">
<path d="M200.158 79.0466L159.716 102.417L176.759 112.249L194.572 101.961L201.725 106.065H202.694L200.158 79.0466Z" fill="#25856B"/>
</g>
<g style="mix-blend-mode:multiply" opacity="0.5">
<path d="M205.287 110.853L197.421 115.413L205.458 120.03H206.541L205.287 110.853Z" fill="#25856B"/>
</g>
<g style="mix-blend-mode:multiply" opacity="0.5">
<path d="M230.539 99.3672L227.347 101.22L232.163 105.01L235.726 105.865L230.539 99.3672Z" fill="#25856B"/>
</g>
<path d="M202.695 106.065L195.854 102.132V101.106L202.695 105.067V106.065Z" fill="#94A0B4"/>
<path d="M216.346 98.1988L202.694 106.065V105.067L216.346 97.2013V98.1988Z" fill="#BBC2CD"/>
<path d="M202.695 105.067L195.854 101.106L209.506 93.2397L216.346 97.2013L202.695 105.067Z" fill="#E5ECF8"/>
<path d="M206.542 120.03L198.419 115.356V114.358L206.542 119.032V120.03Z" fill="#94A0B4"/>
<path d="M229.029 107.034L206.542 120.03V119.032L229.029 106.036V107.034Z" fill="#BBC2CD"/>
<path d="M206.542 119.032L198.419 114.358L220.935 101.362L229.029 106.036L206.542 119.032Z" fill="#E5ECF8"/>
<path d="M235.725 105.866L227.603 101.191V100.964L233.787 103.757L235.725 105.866Z" fill="#94A0B4"/>
<path d="M240 103.386L235.725 105.865L233.787 103.756L238.062 101.277L240 103.386Z" fill="#BBC2CD"/>
<path d="M233.787 103.757L227.603 100.964L231.878 98.4841L238.062 101.277L233.787 103.757Z" fill="#E5ECF8"/>
<path d="M202.409 100.45L201.041 99.6807V80.728L202.409 81.4975V100.45Z" fill="#94A0B4"/>
<path d="M208.479 96.9447L202.409 100.45V81.4976L208.479 77.9921V96.9447Z" fill="#BBC2CD"/>
<path d="M202.409 81.4976L201.041 80.7281L207.112 77.1941L208.48 77.9921L202.409 81.4976Z" fill="#E5ECF8"/>
<path d="M186.221 107.86L183.599 106.321V76.3107L186.221 77.8212V107.86Z" fill="#94A0B4"/>
<path d="M228.344 83.5212L186.22 107.86V77.8212L228.344 53.5105V83.5212Z" fill="#2FDEA0"/>
<path d="M186.221 77.8212L183.599 76.3107L225.722 52L228.344 53.5105L186.221 77.8212Z" fill="#E5ECF8"/>
<g style="mix-blend-mode:multiply" opacity="0.5">
<path d="M40.8696 198.577L0.427734 221.918L17.4709 231.78L35.2835 221.491L42.4371 225.595H43.4061L40.8696 198.577Z" fill="#25856B"/>
</g>
<g style="mix-blend-mode:multiply" opacity="0.5">
<path d="M45.9709 230.383L38.1333 234.943L46.1419 239.56H47.2249L45.9709 230.383Z" fill="#25856B"/>
</g>
<g style="mix-blend-mode:multiply" opacity="0.5">
<path d="M71.2506 218.897L68.0586 220.75L72.8751 224.54L76.4092 225.396L71.2506 218.897Z" fill="#25856B"/>
</g>
<path d="M43.4065 225.595L36.5664 221.662V220.636L43.4065 224.598V225.595Z" fill="#94A0B4"/>
<path d="M57.0574 217.729L43.4058 225.595V224.598L57.0574 216.731V217.729Z" fill="#BBC2CD"/>
<path d="M43.4065 224.597L36.5664 220.636L50.1895 212.77L57.0581 216.731L43.4065 224.597Z" fill="#E5ECF8"/>
<path d="M47.2249 239.56L39.1309 234.886V233.889L47.2249 238.563V239.56Z" fill="#94A0B4"/>
<path d="M69.7398 226.564L47.2246 239.56V238.563L69.7398 225.567V226.564Z" fill="#BBC2CD"/>
<path d="M47.2249 238.562L39.1309 233.888L61.6175 220.892L69.7401 225.566L47.2249 238.562Z" fill="#E5ECF8"/>
<path d="M76.4085 225.395L68.3145 220.693V220.493L74.499 223.286L76.4085 225.395Z" fill="#94A0B4"/>
<path d="M80.6831 222.916L76.4081 225.395L74.4985 223.286L78.7736 220.807L80.6831 222.916Z" fill="#BBC2CD"/>
<path d="M74.499 223.286L68.3145 220.493L72.5895 218.014L78.774 220.807L74.499 223.286Z" fill="#E5ECF8"/>
<path d="M43.1209 219.98L41.7529 219.211V200.258L43.1209 201.028V219.98Z" fill="#94A0B4"/>
<path d="M49.1912 216.475L43.1206 219.98V201.028L49.1912 197.522V216.475Z" fill="#BBC2CD"/>
<path d="M43.1209 201.028L41.7529 200.258L47.8235 196.724L49.1915 197.522L43.1209 201.028Z" fill="#E5ECF8"/>
<path d="M26.9321 227.391L24.3101 225.852V195.841L26.9321 197.351V227.391Z" fill="#94A0B4"/>
<path d="M69.055 203.051L26.9316 227.391V197.351L69.055 173.041V203.051Z" fill="#2FDEA0"/>
<path d="M26.9321 197.351L24.3101 195.841L66.4334 171.53L69.0554 173.041L26.9321 197.351Z" fill="#E5ECF8"/>
<g style="mix-blend-mode:multiply" opacity="0.5">
<path d="M200.158 198.577L159.716 221.918L176.759 231.78L194.572 221.491L201.725 225.595H202.694L200.158 198.577Z" fill="#25856B"/>
</g>
<g style="mix-blend-mode:multiply" opacity="0.5">
<path d="M205.287 230.383L197.421 234.943L205.458 239.56H206.541L205.287 230.383Z" fill="#25856B"/>
</g>
<g style="mix-blend-mode:multiply" opacity="0.5">
<path d="M230.539 218.897L227.347 220.75L232.163 224.54L235.726 225.396L230.539 218.897Z" fill="#25856B"/>
</g>
<path d="M202.695 225.595L195.854 221.662V220.636L202.695 224.598V225.595Z" fill="#94A0B4"/>
<path d="M216.346 217.729L202.694 225.595V224.598L216.346 216.731V217.729Z" fill="#BBC2CD"/>
<path d="M202.695 224.597L195.854 220.636L209.506 212.77L216.346 216.731L202.695 224.597Z" fill="#E5ECF8"/>
<path d="M206.542 239.56L198.419 234.886V233.889L206.542 238.563V239.56Z" fill="#94A0B4"/>
<path d="M229.029 226.564L206.542 239.56V238.563L229.029 225.567V226.564Z" fill="#BBC2CD"/>
<path d="M206.542 238.562L198.419 233.888L220.935 220.892L229.029 225.566L206.542 238.562Z" fill="#E5ECF8"/>
<path d="M235.725 225.395L227.603 220.693V220.493L233.787 223.286L235.725 225.395Z" fill="#94A0B4"/>
<path d="M240 222.916L235.725 225.395L233.787 223.286L238.062 220.807L240 222.916Z" fill="#BBC2CD"/>
<path d="M233.787 223.286L227.603 220.493L231.878 218.014L238.062 220.807L233.787 223.286Z" fill="#E5ECF8"/>
<path d="M202.409 219.98L201.041 219.211V200.258L202.409 201.028V219.98Z" fill="#94A0B4"/>
<path d="M208.479 216.475L202.409 219.98V201.028L208.479 197.522V216.475Z" fill="#BBC2CD"/>
<path d="M202.409 201.028L201.041 200.258L207.112 196.724L208.48 197.522L202.409 201.028Z" fill="#E5ECF8"/>
<path d="M186.221 227.391L183.599 225.852V195.841L186.221 197.351V227.391Z" fill="#94A0B4"/>
<path d="M228.344 203.051L186.22 227.391V197.351L228.344 173.041V203.051Z" fill="#2FDEA0"/>
<path d="M186.221 197.351L183.599 195.841L225.722 171.53L228.344 173.041L186.221 197.351Z" fill="#E5ECF8"/>
<g style="mix-blend-mode:multiply" opacity="0.5">
<path d="M96.4162 139.154L69.227 154.857C68.0585 155.541 68.0585 157.194 69.227 157.878L95.2762 172.926C97.1287 173.981 99.2092 174.551 101.347 174.551H123.947L108.272 137.301H103.456C100.976 137.301 98.5537 137.957 96.4162 139.182V139.154Z" fill="#BCC3CE"/>
</g>
<path d="M95.0479 129.15C95.0479 129.891 95.5324 130.604 96.5014 131.174L120.499 145.11C122.437 146.222 125.572 146.222 127.538 145.11L153.188 130.29C154.157 129.72 154.67 128.979 154.67 128.238L154.585 156.795C154.585 157.536 154.1 158.277 153.103 158.847L127.453 173.667C125.515 174.779 122.351 174.779 120.413 173.667L96.4159 159.731C95.4469 159.161 94.9624 158.448 94.9624 157.707L95.0479 129.15Z" fill="url(#paint0_linear_496_64559)"/>
<path d="M96.5009 127.098L122.151 112.278C124.089 111.167 127.253 111.167 129.191 112.278L153.188 126.215C155.126 127.326 155.126 129.15 153.188 130.29L127.538 145.11C125.6 146.222 122.436 146.222 120.498 145.11L96.5009 131.174C94.5629 130.062 94.5629 128.238 96.5009 127.098Z" fill="#E5ECF8"/>
<path d="M154.642 128.267L154.557 156.824C154.557 157.565 154.072 158.306 153.075 158.876L153.16 130.319C154.129 129.749 154.642 129.008 154.642 128.267Z" fill="#CAD2DD"/>
<path d="M95.0479 129.15C95.0479 129.891 95.5324 130.604 96.5014 131.174L96.4159 159.731C95.4469 159.161 94.9624 158.448 94.9624 157.707L95.0479 129.15Z" fill="#94A0B4"/>
<path d="M127.509 145.139L127.423 173.696C125.485 174.808 122.322 174.808 120.384 173.696L120.469 145.139C122.407 146.25 125.542 146.25 127.509 145.139Z" fill="#ADB6C4"/>
<path d="M151.136 137.985L130.046 150.155V147.048L151.136 134.879V137.985Z" fill="#00A1D4"/>
<path d="M151.136 143.714L130.046 155.883V152.777L151.136 140.607V143.714Z" fill="#00A1D4"/>
<path d="M151.136 156.539L130.046 168.709V158.534L151.136 146.336V156.539Z" fill="#00A1D4"/>
<path d="M97.812 135.249V156.909L118.902 169.079V147.419L97.812 135.249Z" fill="#007296"/>
<path d="M142.729 128.067L124.802 138.413L106.875 128.067L124.802 117.722L142.729 128.067Z" fill="#017296"/>
<defs>
<linearGradient id="paint0_linear_496_64559" x1="120.157" y1="151.38" x2="127.709" y2="151.38" gradientUnits="userSpaceOnUse">
<stop offset="0.4" stop-color="#A2ACBD"/>
<stop offset="0.58" stop-color="#BBC2CD"/>
</linearGradient>
</defs>
</svg>
