<svg width="64" height="64" viewBox="0 0 64 64" fill="none" xmlns="http://www.w3.org/2000/svg">
<g clip-path="url(#clip0_496_68744)">
<path d="M62.6613 1.33822C61.4 0.0795493 59.584 -0.331117 57.896 0.276883C47.552 4.00755 36.7653 8.30622 26.76 15.9995H25.5893C15.544 15.9995 5.584 21.1595 0 28.9035V39.9995H8.78133L15.448 46.6662L8.38933 53.7222L10.2747 55.6075L17.3333 48.5515L24 55.2182V63.9995H35.096C42.84 58.4155 48 48.4555 48 38.4102V37.2395C55.696 27.2315 59.9973 16.4449 63.7227 6.10355C64.328 4.42355 63.9173 2.59955 62.6613 1.33822ZM8.552 37.3329H2.66667V29.7702C7.37867 23.4689 15.1387 19.3729 23.3893 18.7489C22.0773 19.8849 20.784 21.0875 19.5067 22.3622C14.312 27.5569 9.86933 35.0235 8.552 37.3302V37.3329ZM34.2293 61.3329H26.6667V55.4475C28.9733 54.1329 36.4373 49.6902 41.6347 44.4929C42.9093 43.2182 44.112 41.9222 45.248 40.6102C44.624 48.8609 40.5307 56.6209 34.2267 61.3329H34.2293ZM61.2133 5.19688C56.6667 17.8102 51.2667 31.0902 39.7493 42.6049C34.9893 47.3622 27.984 51.6022 25.5573 53.0022L10.992 38.4395C12.3947 36.0129 16.6347 29.0049 21.392 24.2475C32.9067 12.7329 46.1867 7.33288 58.8027 2.78622C59.512 2.52222 60.248 2.69555 60.7733 3.22622C61.304 3.75422 61.4693 4.49288 61.2133 5.19688ZM32 34.6662C32 36.1382 30.8053 37.3329 29.3333 37.3329C27.8613 37.3329 26.6667 36.1382 26.6667 34.6662C26.6667 33.1942 27.8613 31.9995 29.3333 31.9995C30.8053 31.9995 32 33.1942 32 34.6662ZM48 18.6662C48 20.1382 46.8053 21.3329 45.3333 21.3329C43.8613 21.3329 42.6667 20.1382 42.6667 18.6662C42.6667 17.1942 43.8613 15.9995 45.3333 15.9995C46.8053 15.9995 48 17.1942 48 18.6662ZM40 26.6662C40 28.1382 38.8053 29.3329 37.3333 29.3329C35.8613 29.3329 34.6667 28.1382 34.6667 26.6662C34.6667 25.1942 35.8613 23.9995 37.3333 23.9995C38.8053 23.9995 40 25.1942 40 26.6662Z" fill="white"/>
</g>
<defs>
<clipPath id="clip0_496_68744">
<rect width="64" height="64" fill="white"/>
</clipPath>
</defs>
</svg>
