<svg width="64" height="64" viewBox="0 0 64 64" fill="none" xmlns="http://www.w3.org/2000/svg">
<g clip-path="url(#clip0_496_68755)">
<path d="M53.3333 42.6667H10.6667C4.784 42.6667 0 47.4507 0 53.3333C0 59.216 4.784 64 10.6667 64H53.3333C59.216 64 64 59.216 64 53.3333C64 47.4507 59.216 42.6667 53.3333 42.6667ZM53.3333 61.3333H10.6667C6.256 61.3333 2.66667 57.744 2.66667 53.3333C2.66667 48.9227 6.256 45.3333 10.6667 45.3333H53.3333C57.744 45.3333 61.3333 48.9227 61.3333 53.3333C61.3333 57.744 57.744 61.3333 53.3333 61.3333ZM20 37.3333H44C49.1467 37.3333 53.3333 33.1467 53.3333 28V9.33333C53.3333 4.18667 49.1467 0 44 0H20C14.8533 0 10.6667 4.18667 10.6667 9.33333V28C10.6667 33.1467 14.8533 37.3333 20 37.3333ZM29.3333 2.66667H34.6667V12C34.6667 12.736 34.0667 13.3333 33.3333 13.3333H30.6667C29.9333 13.3333 29.3333 12.736 29.3333 12V2.66667ZM13.3333 9.33333C13.3333 5.65867 16.3227 2.66667 20 2.66667H26.6667V12C26.6667 14.2053 28.4613 16 30.6667 16H33.3333C35.5387 16 37.3333 14.2053 37.3333 12V2.66667H44C47.6773 2.66667 50.6667 5.65867 50.6667 9.33333V28C50.6667 31.6747 47.6773 34.6667 44 34.6667H20C16.3227 34.6667 13.3333 31.6747 13.3333 28V9.33333ZM13.3333 53.3333C13.3333 54.8053 12.1387 56 10.6667 56C9.19467 56 8 54.8053 8 53.3333C8 51.8613 9.19467 50.6667 10.6667 50.6667C12.1387 50.6667 13.3333 51.8613 13.3333 53.3333ZM56 53.3333C56 54.8053 54.8053 56 53.3333 56C51.8613 56 50.6667 54.8053 50.6667 53.3333C50.6667 51.8613 51.8613 50.6667 53.3333 50.6667C54.8053 50.6667 56 51.8613 56 53.3333ZM26.6667 53.3333C26.6667 54.8053 25.472 56 24 56C22.528 56 21.3333 54.8053 21.3333 53.3333C21.3333 51.8613 22.528 50.6667 24 50.6667C25.472 50.6667 26.6667 51.8613 26.6667 53.3333ZM42.6667 53.3333C42.6667 54.8053 41.472 56 40 56C38.528 56 37.3333 54.8053 37.3333 53.3333C37.3333 51.8613 38.528 50.6667 40 50.6667C41.472 50.6667 42.6667 51.8613 42.6667 53.3333Z" fill="white"/>
</g>
<defs>
<clipPath id="clip0_496_68755">
<rect width="64" height="64" fill="white"/>
</clipPath>
</defs>
</svg>
