<svg width="64" height="64" viewBox="0 0 64 64" fill="none" xmlns="http://www.w3.org/2000/svg">
<g clip-path="url(#clip0_496_68765)">
<path d="M61.8667 23.12C63.1733 22.4 64 21.0666 64 19.5733V15.9733C64 10.08 59.2267 5.30664 53.3333 5.30664H10.6667C4.77333 5.33331 0 10.1066 0 16V19.6C0 21.0666 0.826667 22.4266 2.13333 23.1466C3.6 23.92 5.33333 25.4133 5.33333 28.0266C5.33333 30.64 3.6 32.1066 2.13333 32.9066C0.826667 33.6266 0 34.96 0 36.4533V52.0533C0 55.7333 2.98667 58.72 6.66667 58.72H57.3333C61.0133 58.72 64 55.7333 64 52.0533V36.4533C64 34.9866 63.1733 33.6266 61.8667 32.9066C60.4 32.1333 58.6667 30.64 58.6667 28.0266C58.6667 25.4133 60.4 23.9466 61.8667 23.1466V23.12ZM57.3333 56H53.3333V52C53.3333 51.2533 52.7467 50.6666 52 50.6666C51.2533 50.6666 50.6667 51.2533 50.6667 52V56H40V52C40 51.2533 39.4133 50.6666 38.6667 50.6666C37.92 50.6666 37.3333 51.2533 37.3333 52V56H26.6667V52C26.6667 51.2533 26.08 50.6666 25.3333 50.6666C24.5867 50.6666 24 51.2533 24 52V56H13.3333V52C13.3333 51.2533 12.7467 50.6666 12 50.6666C11.2533 50.6666 10.6667 51.2533 10.6667 52V56H6.66667C4.45333 56 2.66667 54.2133 2.66667 52V48H61.3333V52C61.3333 54.2133 59.5467 56 57.3333 56ZM60.5867 35.2266C61.04 35.4666 61.3333 35.92 61.3333 36.4266V45.36H2.66667V36.4266C2.66667 35.92 2.93333 35.4933 3.38667 35.2266C5.09333 34.2933 8 32.1333 8 28C8 23.8666 5.12 21.7066 3.38667 20.7733C2.93333 20.5333 2.66667 20.08 2.66667 19.5733V15.9733C2.66667 11.5733 6.26667 7.97331 10.6667 7.97331H53.3333C57.7333 7.97331 61.3333 11.5733 61.3333 15.9733V19.5733C61.3333 20.08 61.0667 20.5066 60.5867 20.7733C58.88 21.7066 56 23.8666 56 28C56 32.1333 58.88 34.2933 60.5867 35.2266ZM33.3333 17.3333V38.6666C33.3333 39.4133 32.7467 40 32 40C31.2533 40 30.6667 39.4133 30.6667 38.6666V17.3333C30.6667 16.5866 31.2533 16 32 16C32.7467 16 33.3333 16.5866 33.3333 17.3333ZM18.6667 17.3333V38.6666C18.6667 39.4133 18.08 40 17.3333 40C16.5867 40 16 39.4133 16 38.6666V17.3333C16 16.5866 16.5867 16 17.3333 16C18.08 16 18.6667 16.5866 18.6667 17.3333ZM48 17.3333V38.6666C48 39.4133 47.4133 40 46.6667 40C45.92 40 45.3333 39.4133 45.3333 38.6666V17.3333C45.3333 16.5866 45.92 16 46.6667 16C47.4133 16 48 16.5866 48 17.3333Z" fill="white"/>
</g>
<defs>
<clipPath id="clip0_496_68765">
<rect width="64" height="64" fill="white"/>
</clipPath>
</defs>
</svg>
