<svg width="40" height="40" viewBox="0 0 40 40" fill="none" xmlns="http://www.w3.org/2000/svg">
<g clip-path="url(#clip0_496_64525)">
<path d="M15 19.9999C16.9778 19.9999 18.9112 19.4134 20.5557 18.3146C22.2002 17.2158 23.4819 15.654 24.2388 13.8267C24.9957 11.9995 25.1937 9.98879 24.8079 8.04898C24.422 6.10917 23.4696 4.32734 22.0711 2.92881C20.6725 1.53029 18.8907 0.577882 16.9509 0.19203C15.0111 -0.193823 13.0004 0.00421079 11.1732 0.761087C9.3459 1.51796 7.78412 2.79969 6.6853 4.44418C5.58649 6.08867 5 8.02207 5 9.99988C5.00265 12.6512 6.05707 15.1932 7.93186 17.068C9.80665 18.9428 12.3486 19.9972 15 19.9999ZM15 3.33322C16.3185 3.33322 17.6075 3.72421 18.7038 4.45675C19.8001 5.18929 20.6546 6.23049 21.1592 7.44866C21.6638 8.66683 21.7958 10.0073 21.5386 11.3005C21.2813 12.5937 20.6464 13.7816 19.714 14.7139C18.7817 15.6463 17.5938 16.2812 16.3006 16.5385C15.0074 16.7957 13.667 16.6637 12.4488 16.1591C11.2306 15.6545 10.1894 14.8 9.45687 13.7037C8.72433 12.6074 8.33333 11.3184 8.33333 9.99988C8.33333 8.23177 9.03571 6.53608 10.286 5.28584C11.5362 4.03559 13.2319 3.33322 15 3.33322Z" fill="#00A1D4"/>
<path d="M15 23.3334C11.0232 23.3382 7.21075 24.9201 4.39876 27.7321C1.58676 30.5441 0.00485159 34.3566 0 38.3334C0 38.7754 0.175595 39.1993 0.488155 39.5119C0.800716 39.8244 1.22464 40 1.66667 40C2.10869 40 2.53262 39.8244 2.84518 39.5119C3.15774 39.1993 3.33333 38.7754 3.33333 38.3334C3.33333 35.2392 4.5625 32.2717 6.75042 30.0838C8.93834 27.8959 11.9058 26.6667 15 26.6667C18.0942 26.6667 21.0617 27.8959 23.2496 30.0838C25.4375 32.2717 26.6667 35.2392 26.6667 38.3334C26.6667 38.7754 26.8423 39.1993 27.1548 39.5119C27.4674 39.8244 27.8913 40 28.3333 40C28.7754 40 29.1993 39.8244 29.5118 39.5119C29.8244 39.1993 30 38.7754 30 38.3334C29.9951 34.3566 28.4132 30.5441 25.6012 27.7321C22.7892 24.9201 18.9768 23.3382 15 23.3334Z" fill="#00A1D4"/>
<path d="M36.6667 13.125C35.7392 13.1712 34.8677 13.5829 34.243 14.2701C33.6183 14.9573 33.2912 15.8639 33.3334 16.7917C33.3755 15.8639 33.0484 14.9573 32.4237 14.2701C31.799 13.5829 30.9276 13.1712 30 13.125C29.0725 13.1712 28.201 13.5829 27.5763 14.2701C26.9516 14.9573 26.6246 15.8639 26.6667 16.7917C26.6667 19.675 30.4267 23.0533 32.3 24.5567C32.5933 24.7914 32.9577 24.9194 33.3334 24.9194C33.709 24.9194 34.0735 24.7914 34.3667 24.5567C36.24 23.0567 40 19.675 40 16.7917C40.0422 15.8639 39.7151 14.9573 39.0904 14.2701C38.4657 13.5829 37.5942 13.1712 36.6667 13.125Z" fill="#00A1D4"/>
</g>
<defs>
<clipPath id="clip0_496_64525">
<rect width="40" height="40" fill="white"/>
</clipPath>
</defs>
</svg>
