<svg width="40" height="40" viewBox="0 0 40 40" fill="none" xmlns="http://www.w3.org/2000/svg">
<g clip-path="url(#clip0_496_64511)">
<path d="M11.6667 0H6.66667C4.89856 0 3.20286 0.702379 1.95262 1.95262C0.702379 3.20286 0 4.89856 0 6.66667L0 11.6667C0 13.4348 0.702379 15.1305 1.95262 16.3807C3.20286 17.631 4.89856 18.3333 6.66667 18.3333H11.6667C13.4348 18.3333 15.1305 17.631 16.3807 16.3807C17.631 15.1305 18.3333 13.4348 18.3333 11.6667V6.66667C18.3333 4.89856 17.631 3.20286 16.3807 1.95262C15.1305 0.702379 13.4348 0 11.6667 0ZM15 11.6667C15 12.5507 14.6488 13.3986 14.0237 14.0237C13.3986 14.6488 12.5507 15 11.6667 15H6.66667C5.78261 15 4.93477 14.6488 4.30964 14.0237C3.68452 13.3986 3.33333 12.5507 3.33333 11.6667V6.66667C3.33333 5.78261 3.68452 4.93477 4.30964 4.30964C4.93477 3.68452 5.78261 3.33333 6.66667 3.33333H11.6667C12.5507 3.33333 13.3986 3.68452 14.0237 4.30964C14.6488 4.93477 15 5.78261 15 6.66667V11.6667Z" fill="#00A1D4"/>
<path d="M11.6667 21.6666H6.66667C4.89856 21.6666 3.20286 22.369 1.95262 23.6192C0.702379 24.8695 0 26.5652 0 28.3333L0 33.3333C0 35.1014 0.702379 36.7971 1.95262 38.0473C3.20286 39.2976 4.89856 40 6.66667 40H11.6667C13.4348 40 15.1305 39.2976 16.3807 38.0473C17.631 36.7971 18.3333 35.1014 18.3333 33.3333V28.3333C18.3333 26.5652 17.631 24.8695 16.3807 23.6192C15.1305 22.369 13.4348 21.6666 11.6667 21.6666ZM15 33.3333C15 34.2173 14.6488 35.0652 14.0237 35.6903C13.3986 36.3154 12.5507 36.6666 11.6667 36.6666H6.66667C5.78261 36.6666 4.93477 36.3154 4.30964 35.6903C3.68452 35.0652 3.33333 34.2173 3.33333 33.3333V28.3333C3.33333 27.4492 3.68452 26.6014 4.30964 25.9763C4.93477 25.3511 5.78261 25 6.66667 25H11.6667C12.5507 25 13.3986 25.3511 14.0237 25.9763C14.6488 26.6014 15 27.4492 15 28.3333V33.3333Z" fill="#00A1D4"/>
<path d="M33.3332 21.6666H28.3332C26.5651 21.6666 24.8694 22.369 23.6191 23.6192C22.3689 24.8695 21.6665 26.5652 21.6665 28.3333V33.3333C21.6665 35.1014 22.3689 36.7971 23.6191 38.0473C24.8694 39.2976 26.5651 40 28.3332 40H33.3332C35.1013 40 36.797 39.2976 38.0472 38.0473C39.2975 36.7971 39.9998 35.1014 39.9998 33.3333V28.3333C39.9998 26.5652 39.2975 24.8695 38.0472 23.6192C36.797 22.369 35.1013 21.6666 33.3332 21.6666ZM36.6665 33.3333C36.6665 34.2173 36.3153 35.0652 35.6902 35.6903C35.0651 36.3154 34.2172 36.6666 33.3332 36.6666H28.3332C27.4491 36.6666 26.6013 36.3154 25.9761 35.6903C25.351 35.0652 24.9998 34.2173 24.9998 33.3333V28.3333C24.9998 27.4492 25.351 26.6014 25.9761 25.9763C26.6013 25.3511 27.4491 25 28.3332 25H33.3332C34.2172 25 35.0651 25.3511 35.6902 25.9763C36.3153 26.6014 36.6665 27.4492 36.6665 28.3333V33.3333Z" fill="#00A1D4"/>
<path d="M23.3332 11.6666H28.3332V16.6666C28.3332 17.1087 28.5088 17.5326 28.8213 17.8451C29.1339 18.1577 29.5578 18.3333 29.9998 18.3333C30.4419 18.3333 30.8658 18.1577 31.1783 17.8451C31.4909 17.5326 31.6665 17.1087 31.6665 16.6666V11.6666H36.6665C37.1085 11.6666 37.5325 11.491 37.845 11.1785C38.1576 10.8659 38.3332 10.442 38.3332 9.99996C38.3332 9.55793 38.1576 9.13401 37.845 8.82145C37.5325 8.50889 37.1085 8.33329 36.6665 8.33329H31.6665V3.33329C31.6665 2.89127 31.4909 2.46734 31.1783 2.15478C30.8658 1.84222 30.4419 1.66663 29.9998 1.66663C29.5578 1.66663 29.1339 1.84222 28.8213 2.15478C28.5088 2.46734 28.3332 2.89127 28.3332 3.33329V8.33329H23.3332C22.8911 8.33329 22.4672 8.50889 22.1547 8.82145C21.8421 9.13401 21.6665 9.55793 21.6665 9.99996C21.6665 10.442 21.8421 10.8659 22.1547 11.1785C22.4672 11.491 22.8911 11.6666 23.3332 11.6666Z" fill="#00A1D4"/>
</g>
<defs>
<clipPath id="clip0_496_64511">
<rect width="40" height="40" fill="white"/>
</clipPath>
</defs>
</svg>
