<svg width="40" height="40" viewBox="0 0 40 40" fill="none" xmlns="http://www.w3.org/2000/svg">
<g clip-path="url(#clip0_496_64519)">
<path d="M20.0002 13.3334C18.6816 13.3334 17.3927 13.7244 16.2964 14.4569C15.2 15.1895 14.3456 16.2306 13.841 17.4488C13.3364 18.667 13.2044 20.0074 13.4616 21.3006C13.7188 22.5938 14.3538 23.7817 15.2861 24.7141C16.2185 25.6464 17.4064 26.2814 18.6996 26.5386C19.9928 26.7958 21.3332 26.6638 22.5514 26.1592C23.7696 25.6547 24.8108 24.8002 25.5433 23.7038C26.2758 22.6075 26.6668 21.3186 26.6668 20C26.6668 18.2319 25.9645 16.5362 24.7142 15.286C23.464 14.0358 21.7683 13.3334 20.0002 13.3334ZM20.0002 23.3334C19.3409 23.3334 18.6964 23.1379 18.1483 22.7716C17.6001 22.4053 17.1729 21.8847 16.9206 21.2757C16.6683 20.6666 16.6023 19.9963 16.7309 19.3497C16.8595 18.7031 17.177 18.1092 17.6431 17.643C18.1093 17.1768 18.7033 16.8594 19.3499 16.7308C19.9965 16.6021 20.6667 16.6681 21.2758 16.9204C21.8849 17.1727 22.4055 17.6 22.7717 18.1481C23.138 18.6963 23.3335 19.3408 23.3335 20C23.3335 20.8841 22.9823 21.7319 22.3572 22.3571C21.7321 22.9822 20.8842 23.3334 20.0002 23.3334Z" fill="#00A1D4"/>
<path d="M35.4898 23.1667L34.7498 22.74C35.083 20.9274 35.083 19.0693 34.7498 17.2567L35.4898 16.83C36.0589 16.5017 36.5577 16.0645 36.9578 15.5434C37.3579 15.0224 37.6515 14.4276 37.8217 13.793C37.992 13.1585 38.0356 12.4966 37.95 11.8453C37.8645 11.1939 37.6515 10.5657 37.3232 9.99667C36.9949 9.42761 36.5577 8.92878 36.0366 8.52867C35.5155 8.12856 34.9207 7.83501 34.2862 7.66477C33.6517 7.49453 32.9898 7.45094 32.3384 7.53648C31.687 7.62202 31.0589 7.83503 30.4898 8.16333L29.7482 8.59167C28.3474 7.39486 26.7376 6.46708 24.9998 5.855V5C24.9998 3.67392 24.473 2.40215 23.5354 1.46447C22.5977 0.526784 21.3259 0 19.9998 0C18.6737 0 17.402 0.526784 16.4643 1.46447C15.5266 2.40215 14.9998 3.67392 14.9998 5V5.855C13.2621 6.46928 11.6529 7.39933 10.2532 8.59833L9.50816 8.16667C8.35889 7.50363 6.9933 7.32429 5.7118 7.6681C4.4303 8.01192 3.33787 8.85073 2.67483 10C2.01179 11.1493 1.83245 12.5149 2.17626 13.7964C2.52008 15.0779 3.35889 16.1703 4.50816 16.8333L5.24816 17.26C4.91501 19.0726 4.91501 20.9307 5.24816 22.7433L4.50816 23.17C3.35889 23.833 2.52008 24.9255 2.17626 26.207C1.83245 27.4885 2.01179 28.8541 2.67483 30.0033C3.33787 31.1526 4.4303 31.9914 5.7118 32.3352C6.9933 32.679 8.35889 32.4997 9.50816 31.8367L10.2498 31.4083C11.6511 32.6053 13.2615 33.5331 14.9998 34.145V35C14.9998 36.3261 15.5266 37.5979 16.4643 38.5355C17.402 39.4732 18.6737 40 19.9998 40C21.3259 40 22.5977 39.4732 23.5354 38.5355C24.473 37.5979 24.9998 36.3261 24.9998 35V34.145C26.7375 33.5307 28.3468 32.6007 29.7465 31.4017L30.4915 31.8317C31.6408 32.4947 33.0064 32.674 34.2879 32.3302C35.5694 31.9864 36.6618 31.1476 37.3248 29.9983C37.9879 28.8491 38.1672 27.4835 37.8234 26.202C37.4796 24.9205 36.6408 23.828 35.4915 23.165L35.4898 23.1667ZM31.2432 16.8733C31.8076 18.9184 31.8076 21.0782 31.2432 23.1233C31.1446 23.4793 31.1671 23.8579 31.3071 24.1997C31.447 24.5415 31.6966 24.8271 32.0165 25.0117L33.8232 26.055C34.2062 26.276 34.4857 26.6401 34.6003 27.0672C34.7148 27.4944 34.655 27.9495 34.434 28.3325C34.213 28.7155 33.8489 28.995 33.4218 29.1096C32.9946 29.2242 32.5395 29.1643 32.1565 28.9433L30.3465 27.8967C30.0263 27.7112 29.6535 27.6376 29.2869 27.6874C28.9203 27.7372 28.5806 27.9076 28.3215 28.1717C26.838 29.6861 24.9691 30.7666 22.9165 31.2967C22.5582 31.3888 22.2408 31.5975 22.0142 31.8899C21.7875 32.1823 21.6646 32.5417 21.6648 32.9117V35C21.6648 35.442 21.4892 35.866 21.1767 36.1785C20.8641 36.4911 20.4402 36.6667 19.9982 36.6667C19.5561 36.6667 19.1322 36.4911 18.8197 36.1785C18.5071 35.866 18.3315 35.442 18.3315 35V32.9133C18.3317 32.5434 18.2088 32.1839 17.9822 31.8915C17.7556 31.5991 17.4381 31.3904 17.0798 31.2983C15.0271 30.7661 13.1587 29.6833 11.6765 28.1667C11.4174 27.9026 11.0777 27.7322 10.7111 27.6824C10.3445 27.6326 9.97167 27.7062 9.65149 27.8917L7.84483 28.9367C7.65521 29.0478 7.44548 29.1204 7.2277 29.1502C7.00993 29.1799 6.78842 29.1663 6.57592 29.1102C6.36342 29.054 6.16413 28.9563 5.98953 28.8228C5.81493 28.6893 5.66846 28.5226 5.55855 28.3322C5.44865 28.1419 5.37749 27.9317 5.34916 27.7137C5.32083 27.4957 5.33589 27.2743 5.39348 27.0622C5.45107 26.8501 5.55005 26.6514 5.68472 26.4777C5.81939 26.304 5.98709 26.1586 6.17816 26.05L7.98483 25.0067C8.30474 24.8221 8.55429 24.5365 8.69426 24.1947C8.83424 23.8529 8.85671 23.4743 8.75816 23.1183C8.19376 21.0732 8.19376 18.9134 8.75816 16.8683C8.85494 16.5131 8.83139 16.1359 8.69119 15.7955C8.55098 15.4551 8.30202 15.1707 7.98316 14.9867L6.17649 13.9433C5.79348 13.7223 5.51395 13.3582 5.39939 12.9311C5.28484 12.504 5.34465 12.0488 5.56566 11.6658C5.78667 11.2828 6.15079 11.0033 6.5779 10.8887C7.00502 10.7742 7.46014 10.834 7.84316 11.055L9.65316 12.1017C9.97246 12.2875 10.3445 12.362 10.7107 12.3134C11.077 12.2649 11.4167 12.096 11.6765 11.8333C13.16 10.3189 15.0289 9.23837 17.0815 8.70833C17.4409 8.61594 17.7592 8.40625 17.9859 8.1125C18.2126 7.81875 18.3348 7.45774 18.3332 7.08667V5C18.3332 4.55797 18.5088 4.13405 18.8213 3.82149C19.1339 3.50893 19.5578 3.33333 19.9998 3.33333C20.4419 3.33333 20.8658 3.50893 21.1783 3.82149C21.4909 4.13405 21.6665 4.55797 21.6665 5V7.08667C21.6663 7.4566 21.7892 7.81607 22.0158 8.10847C22.2424 8.40086 22.5599 8.60955 22.9182 8.70167C24.9715 9.23359 26.8405 10.3165 28.3232 11.8333C28.5823 12.0974 28.9219 12.2678 29.2886 12.3176C29.6552 12.3674 30.028 12.2938 30.3482 12.1083L32.1548 11.0633C32.3444 10.9522 32.5542 10.8796 32.772 10.8498C32.9897 10.8201 33.2112 10.8337 33.4237 10.8898C33.6362 10.946 33.8355 11.0437 34.0101 11.1772C34.1847 11.3107 34.3312 11.4774 34.4411 11.6678C34.551 11.8581 34.6222 12.0683 34.6505 12.2863C34.6788 12.5043 34.6638 12.7257 34.6062 12.9378C34.5486 13.1499 34.4496 13.3486 34.3149 13.5223C34.1803 13.696 34.0126 13.8414 33.8215 13.95L32.0148 14.9933C31.6966 15.1778 31.4483 15.4625 31.3087 15.8028C31.1691 16.1432 31.1461 16.5202 31.2432 16.875V16.8733Z" fill="#00A1D4"/>
</g>
<defs>
<clipPath id="clip0_496_64519">
<rect width="40" height="40" fill="white"/>
</clipPath>
</defs>
</svg>
