<svg width="40" height="40" viewBox="0 0 40 40" fill="none" xmlns="http://www.w3.org/2000/svg">
<g clip-path="url(#clip0_496_64544)">
<path d="M3.1314 29.7969C1.68335 31.7963 0.644058 34.0618 0.0730681 36.4635C-0.0360017 36.9417 -0.0219478 37.4397 0.113914 37.911C0.249775 38.3822 0.503001 38.8113 0.849883 39.158C1.19676 39.5047 1.62596 39.7578 2.09727 39.8934C2.56859 40.029 3.06662 40.0428 3.54473 39.9335C5.94282 39.3617 8.20476 38.323 10.2014 36.8769C11.1403 35.9393 11.6682 34.6672 11.6692 33.3404C11.6701 32.0136 11.1439 30.7407 10.2064 29.8019C9.26886 28.863 7.99676 28.335 6.66994 28.3341C5.34312 28.3332 4.07027 28.8593 3.1314 29.7969ZM7.84473 34.5119C6.50141 35.3723 5.04229 36.0367 3.5114 36.4852C3.96054 34.9546 4.62496 33.4955 5.48473 32.1519C5.79907 31.8483 6.22008 31.6803 6.65707 31.6841C7.09406 31.6879 7.51209 31.8632 7.8211 32.1722C8.13011 32.4812 8.30539 32.8992 8.30919 33.3362C8.31299 33.7732 8.145 34.1942 7.8414 34.5085L7.84473 34.5119ZM29.9997 14.1669C29.9997 15.2719 29.5607 16.3318 28.7793 17.1132C27.9979 17.8946 26.9381 18.3335 25.8331 18.3335C24.728 18.3335 23.6682 17.8946 22.8868 17.1132C22.1054 16.3318 21.6664 15.2719 21.6664 14.1669C21.6664 13.0618 22.1054 12.002 22.8868 11.2206C23.6682 10.4392 24.728 10.0002 25.8331 10.0002C26.9381 10.0002 27.9979 10.4392 28.7793 11.2206C29.5607 12.002 29.9997 13.0618 29.9997 14.1669ZM34.9531 0.000211986C30.9868 -0.0233657 27.0685 0.867423 23.5022 2.60343C19.936 4.33943 16.8178 6.87394 14.3897 10.0102C11.7416 10.1018 9.14434 10.7629 6.77473 11.9485C4.02676 13.2139 1.78347 15.3657 0.404735 18.0585C0.0811838 18.8098 -0.0501487 19.6299 0.0225964 20.4446C0.0953414 21.2593 0.369873 22.0431 0.821401 22.7252C1.27724 23.424 1.90021 23.998 2.63389 24.3953C3.36756 24.7925 4.18875 25.0004 5.02307 25.0002H9.1664C10.7112 25.0077 12.1906 25.6246 13.283 26.717C14.3753 27.8093 14.9923 29.2887 14.9997 30.8335V34.9769C14.9991 35.8109 15.2066 36.6319 15.6032 37.3655C15.9999 38.0992 16.5732 38.7223 17.2714 39.1785C17.9535 39.6301 18.7373 39.9046 19.552 39.9773C20.3668 40.0501 21.1868 39.9188 21.9381 39.5952C24.631 38.2165 26.7827 35.9732 28.0481 33.2252C29.2337 30.8556 29.8949 28.2583 29.9864 25.6102C33.1277 23.1759 35.6653 20.0501 37.4019 16.4756C39.1386 12.901 40.0276 8.97418 39.9997 5.00021C39.9978 4.34022 39.8656 3.68711 39.6107 3.07833C39.3558 2.46954 38.9832 1.91705 38.5144 1.45254C38.0455 0.988026 37.4896 0.620627 36.8785 0.371405C36.2674 0.122183 35.613 -0.00395837 34.9531 0.000211986ZM7.24307 21.6669H5.02307C4.74123 21.669 4.46345 21.5997 4.21569 21.4653C3.96794 21.331 3.75831 21.136 3.6064 20.8985C3.45717 20.678 3.36596 20.4235 3.34119 20.1584C3.31643 19.8933 3.35892 19.6262 3.46473 19.3819C4.53865 17.4137 6.22581 15.8501 8.26973 14.9285C9.3258 14.399 10.4408 13.9962 11.5914 13.7285C9.93479 16.2558 8.48081 18.9102 7.24307 21.6669ZM25.0764 31.7302C24.1549 33.7736 22.5919 35.4606 20.6247 36.5352C20.3802 36.6412 20.1128 36.6837 19.8474 36.659C19.582 36.6342 19.3272 36.5429 19.1064 36.3935C18.869 36.2416 18.674 36.032 18.5396 35.7843C18.4052 35.5365 18.3359 35.2587 18.3381 34.9769V32.7569C21.0948 31.5191 23.7492 30.0652 26.2764 28.4085C26.0071 29.5594 25.6026 30.6744 25.0714 31.7302H25.0764ZM25.3014 25.0302C23.0461 26.5966 20.6652 27.9741 18.1831 29.1485C17.8441 27.3287 16.9621 25.6541 15.6532 24.3451C14.3442 23.0361 12.6696 22.1542 10.8497 21.8152C12.025 19.3353 13.4031 16.9567 14.9697 14.7035C20.5831 6.87355 26.3997 3.57855 34.9997 3.33355C35.4338 3.33338 35.8508 3.50255 36.162 3.80509C36.4733 4.10763 36.6542 4.51966 36.6664 4.95355C36.4214 13.6002 33.1264 19.4169 25.2964 25.0302H25.3014Z" fill="#00A1D4"/>
</g>
<defs>
<clipPath id="clip0_496_64544">
<rect width="40" height="40" fill="white"/>
</clipPath>
</defs>
</svg>
