<svg width="40" height="40" viewBox="0 0 40 40" fill="none" xmlns="http://www.w3.org/2000/svg">
<g clip-path="url(#clip0_496_64539)">
<path d="M29.9999 20C29.9999 20.92 29.2533 21.6667 28.3333 21.6667C27.4133 21.6667 26.6666 20.92 26.6666 20C26.6666 19.08 27.4133 18.3333 28.3333 18.3333C29.2533 18.3333 29.9999 19.08 29.9999 20ZM11.6666 8.33333C12.5866 8.33333 13.3332 7.58833 13.3332 6.66667C13.3332 4.82833 14.8282 3.33333 16.6666 3.33333C18.5049 3.33333 19.9999 4.82833 19.9999 6.66667C19.9999 7.58833 20.7466 8.33333 21.6666 8.33333C22.5866 8.33333 23.3333 7.58833 23.3333 6.66667C23.3333 2.99 20.3433 0 16.6666 0C12.9899 0 9.99992 2.99 9.99992 6.66667C9.99992 7.58833 10.7466 8.33333 11.6666 8.33333ZM39.9999 21.6667V25C39.9999 26.8433 38.7533 27.965 37.3866 28.2567C36.2849 31.0133 34.2666 33.3417 31.6666 34.8467V35C31.6666 37.7567 29.4233 40 26.6666 40C24.4933 40 22.6399 38.6067 21.9516 36.6667H18.0466C17.3582 38.6067 15.5049 40 13.3316 40C10.5749 40 8.33158 37.7567 8.33158 35V34.8683C3.93992 32.3367 1.36158 27.5733 1.69325 22.45C1.79825 20.82 2.20992 19.2717 2.86825 17.8567C1.17325 17.055 -0.00341797 15.33 -0.00341797 13.3333C-0.00341797 10.5767 2.23992 8.33333 4.99658 8.33333C5.91658 8.33333 6.66325 9.07833 6.66325 10C6.66325 10.9217 5.91658 11.6667 4.99658 11.6667C4.07658 11.6667 3.32992 12.4133 3.32992 13.3333C3.32992 14.1517 3.92325 14.8333 4.70158 14.9733C7.23658 11.935 11.1232 10 15.4399 10H24.3783C25.5999 7.53667 27.8816 5.81333 30.9233 5.09C31.9083 4.85833 32.9283 5.085 33.7249 5.71333C34.5333 6.35333 34.9983 7.31 34.9983 8.34V14.5317C36.0116 15.6833 36.8216 17 37.3849 18.41C38.7533 18.7017 39.9999 19.8233 39.9999 21.6667ZM36.6666 21.6667H36.1766C35.4399 21.6667 34.7899 21.1817 34.5799 20.475C34.1232 18.9417 33.2799 17.515 32.1416 16.3467C31.8366 16.035 31.6666 15.6167 31.6666 15.1833V8.34C30.0416 8.72667 27.8916 9.72333 27.0599 12.2317C26.8249 12.9367 26.1383 13.4217 25.4099 13.3717C25.2966 13.3667 15.4432 13.335 15.4432 13.335C9.93825 13.335 5.35992 17.4333 5.02158 22.6667C4.75492 26.7817 6.98991 30.5867 10.7166 32.3583C11.2982 32.635 11.6666 33.2217 11.6666 33.8633V35.0017C11.6666 35.9217 12.4149 36.6683 13.3332 36.6683C14.2516 36.6683 14.9999 35.9217 14.9999 35.0017C14.9999 34.0817 15.7466 33.335 16.6666 33.335H23.3333C24.2533 33.335 24.9999 34.08 24.9999 35.0017C24.9999 35.9233 25.7483 36.6683 26.6666 36.6683C27.5849 36.6683 28.3333 35.9217 28.3333 35.0017V33.845C28.3333 33.2033 28.7016 32.6183 29.2816 32.3417C31.8516 31.115 33.7816 28.8733 34.5799 26.195C34.7899 25.4883 35.4399 25.0033 36.1766 25.0033H36.6666V21.67V21.6667Z" fill="#00A1D4"/>
</g>
<defs>
<clipPath id="clip0_496_64539">
<rect width="40" height="40" fill="white"/>
</clipPath>
</defs>
</svg>
