<svg width="92" height="64" viewBox="0 0 92 64" fill="none" xmlns="http://www.w3.org/2000/svg">
<g opacity="0.9">
<path d="M6.65565 55.0247H4.22889V63.3939C4.22889 63.6153 4.18154 63.7726 4.08533 63.8627C3.98759 63.9529 3.83028 63.9987 3.60731 63.9987C3.38433 63.9987 3.22703 63.9529 3.13692 63.8627C3.04682 63.7726 3.001 63.6153 3.001 63.3939V55.0247H0.562019C0.187849 55.0247 0 54.8216 0 54.4184C0 54.0152 0.187849 53.8105 0.562019 53.8105H6.65718C7.04051 53.8105 7.23294 54.0137 7.23294 54.4184C7.23294 54.8231 7.04051 55.0247 6.65718 55.0247H6.65565Z" fill="white"/>
<path d="M13.9497 63.9238H8.90068C8.47611 63.9238 8.26382 63.7161 8.26382 63.3023V54.4184C8.26382 54.0137 8.47611 53.8105 8.90068 53.8105H13.9497C14.333 53.8105 14.5254 54.0137 14.5254 54.4184C14.5254 54.8231 14.333 55.0247 13.9497 55.0247H9.50699V57.9661H13.2976C13.661 57.9661 13.8428 58.1692 13.8428 58.5724C13.8428 58.9756 13.661 59.165 13.2976 59.165H9.50699V62.7127H13.9497C14.333 62.7127 14.5254 62.9098 14.5254 63.3038C14.5254 63.7192 14.333 63.9254 13.9497 63.9254V63.9238Z" fill="white"/>
<path d="M21.4392 63.9238H18.2549C17.4684 63.9238 16.8285 63.6687 16.3367 63.1586C15.8465 62.6485 15.6021 61.9033 15.6021 60.9212V56.8283C15.6021 55.8692 15.8587 55.127 16.3734 54.6001C16.8881 54.0747 17.5203 53.812 18.2702 53.812H21.4392C21.8225 53.812 22.015 54.0151 22.015 54.4198C22.015 54.8246 21.8225 55.0262 21.4392 55.0262H18.3909C17.9067 55.0262 17.5249 55.1865 17.247 55.5042C16.969 55.8234 16.83 56.2495 16.83 56.787V60.9716C16.83 61.5062 16.9629 61.9307 17.2317 62.2454C17.499 62.5584 17.8701 62.7142 18.3466 62.7142H21.4392C21.8225 62.7142 22.015 62.9112 22.015 63.3052C22.015 63.7207 21.8225 63.9268 21.4392 63.9268V63.9238Z" fill="white"/>
<path d="M29.9978 63.8626C29.9 63.9527 29.7427 63.9985 29.5197 63.9985C29.2968 63.9985 29.1395 63.9527 29.0494 63.8626C28.9593 63.7725 28.9134 63.6152 28.9134 63.3938V59.1481H24.5471V63.3938C24.5471 63.6152 24.5028 63.7725 24.4112 63.8626C24.3211 63.9527 24.1638 63.9985 23.9423 63.9985C23.7209 63.9985 23.5605 63.9527 23.4643 63.8626C23.3666 63.7725 23.3192 63.6152 23.3192 63.3938V54.3419C23.3192 54.1205 23.3666 53.9616 23.4643 53.8715C23.5605 53.7814 23.7193 53.7356 23.9423 53.7356C24.1653 53.7356 24.3211 53.7814 24.4112 53.8715C24.5028 53.9616 24.5471 54.1205 24.5471 54.3419V57.9798H28.9134V54.3419C28.9134 54.1205 28.9593 53.9616 29.0494 53.8715C29.1395 53.7814 29.2968 53.7356 29.5197 53.7356C29.7427 53.7356 29.9 53.7814 29.9978 53.8715C30.094 53.9616 30.1413 54.1205 30.1413 54.3419V63.3938C30.1413 63.6152 30.094 63.7725 29.9978 63.8626Z" fill="white"/>
<path d="M38.3731 63.9237H37.9195C37.7576 63.9237 37.637 63.8993 37.556 63.8474C37.4751 63.797 37.4002 63.7007 37.3285 63.5587L33.1881 55.8722H33.1591V63.4075C33.1591 63.629 33.1133 63.7817 33.0232 63.8611C32.9331 63.942 32.7743 63.9833 32.5528 63.9833C32.3314 63.9833 32.171 63.9405 32.0748 63.855C31.9786 63.7679 31.9312 63.6198 31.9312 63.4075V54.432C31.9312 54.0166 32.1374 53.8104 32.5513 53.8104H33.037C33.1988 53.8104 33.3241 53.8471 33.4096 53.9173C33.4951 53.9876 33.5837 54.0991 33.6753 54.2503C33.9579 54.7772 34.5733 55.9211 35.5248 57.685C36.4747 59.4474 37.2124 60.8204 37.7393 61.7993H37.7683V54.3419C37.7683 54.1205 37.8156 53.9616 37.9119 53.8715C38.0096 53.7814 38.1623 53.7356 38.3746 53.7356C38.7992 53.7356 39.0115 53.9387 39.0115 54.3434V63.3189C39.0115 63.7221 38.7992 63.9252 38.3746 63.9252L38.3731 63.9237Z" fill="white"/>
<path d="M43.4832 53.8121H44.8165C45.6656 53.8121 46.3452 54.0748 46.8553 54.6001C47.3654 55.127 47.6204 55.8845 47.6204 56.8742V60.8602C47.6204 61.8315 47.3547 62.5829 46.8248 63.1205C46.2933 63.655 45.6274 63.9238 44.8302 63.9238H43.4664C42.6676 63.9238 42.0048 63.6657 41.4734 63.1495C40.9434 62.6349 40.6777 61.8926 40.6777 60.9213V56.8742C40.6777 55.9028 40.9449 55.1515 41.481 54.6139C42.0155 54.0793 42.6829 53.8105 43.4832 53.8105V53.8121ZM46.3941 60.9824V56.752C46.3941 56.2175 46.2505 55.7868 45.9634 55.463C45.6748 55.1408 45.267 54.9773 44.7416 54.9773H43.5427C43.0372 54.9773 42.6386 55.1408 42.3454 55.463C42.0522 55.7868 41.9056 56.2175 41.9056 56.752V60.9977C41.9056 61.5246 42.0522 61.9491 42.3454 62.2714C42.6386 62.5951 43.0372 62.757 43.5427 62.757H44.7416C45.2563 62.757 45.661 62.5921 45.9542 62.2637C46.2475 61.9369 46.3941 61.5078 46.3941 60.9824Z" fill="white"/>
<path d="M54.9618 63.9237H49.9281C49.5035 63.9237 49.2912 63.716 49.2912 63.3021V54.3434C49.2912 53.9387 49.5035 53.7356 49.9281 53.7356C50.1388 53.7356 50.2931 53.7814 50.3893 53.8715C50.487 53.9616 50.5344 54.1205 50.5344 54.3419V62.7096H54.9618C55.3451 62.7096 55.5375 62.9066 55.5375 63.3006C55.5375 63.716 55.3451 63.9222 54.9618 63.9222V63.9237Z" fill="white"/>
<path d="M59.2823 53.8121H60.6156C61.4647 53.8121 62.1443 54.0748 62.6544 54.6001C63.1645 55.127 63.4196 55.8845 63.4196 56.8742V60.8602C63.4196 61.8315 63.1538 62.5829 62.6239 63.1205C62.0924 63.655 61.4265 63.9238 60.6293 63.9238H59.2655C58.4668 63.9238 57.804 63.6657 57.2725 63.1495C56.7425 62.6349 56.4768 61.8926 56.4768 60.9213V56.8742C56.4768 55.9028 56.7441 55.1515 57.2801 54.6139C57.8147 54.0793 58.4821 53.8105 59.2823 53.8105V53.8121ZM62.1917 60.9824V56.752C62.1917 56.2175 62.0481 55.7868 61.761 55.463C61.4724 55.1408 61.0646 54.9773 60.5392 54.9773H59.3404C58.8348 54.9773 58.4362 55.1408 58.143 55.463C57.8498 55.7868 57.7032 56.2175 57.7032 56.752V60.9977C57.7032 61.5246 57.8498 61.9491 58.143 62.2714C58.4362 62.5951 58.8348 62.757 59.3404 62.757H60.5392C61.0539 62.757 61.4586 62.5921 61.7518 62.2637C62.0451 61.9369 62.1917 61.5078 62.1917 60.9824Z" fill="white"/>
<path d="M71.3168 63.9238H67.6042C66.8161 63.9238 66.1731 63.6642 65.6783 63.1434C65.1835 62.6211 64.9361 61.8774 64.9361 60.906V56.8268C64.9361 55.8677 65.1973 55.1255 65.7241 54.5986C66.2495 54.0732 66.8757 53.8105 67.6042 53.8105H70.9702C71.3535 53.8105 71.5459 54.0137 71.5459 54.4184C71.5459 54.8231 71.3535 55.0247 70.9702 55.0247H67.7996C67.285 55.0247 66.8864 55.1851 66.6023 55.5027C66.3198 55.8219 66.1777 56.248 66.1777 56.7856V60.9702C66.1777 61.5154 66.3137 61.943 66.587 62.2515C66.8589 62.5615 67.2529 62.7143 67.7691 62.7143H70.6647V59.1818H69.1039C68.7282 59.1818 68.5419 58.9741 68.5419 58.5602C68.5419 58.1662 68.7282 57.9692 69.1039 57.9692H71.2863C71.5077 57.9692 71.6681 58.0104 71.7643 58.0914C71.8605 58.1723 71.9094 58.3281 71.9094 58.5602V63.3053C71.9094 63.7207 71.7124 63.9269 71.3168 63.9269V63.9238Z" fill="white"/>
<path d="M74.4858 64C74.2644 64 74.1056 63.9542 74.0078 63.8641C73.9116 63.774 73.8643 63.6167 73.8643 63.3952V54.3434C73.8643 54.1219 73.9116 53.9631 74.0078 53.873C74.1056 53.7829 74.2629 53.7371 74.4858 53.7371C74.7088 53.7371 74.8524 53.7829 74.9486 53.873C75.0463 53.9631 75.0937 54.1219 75.0937 54.3434V63.3952C75.0937 63.6167 75.0463 63.774 74.9486 63.8641C74.8524 63.9542 74.6981 64 74.4858 64Z" fill="white"/>
<path d="M82.9482 63.9238H77.8992C77.4746 63.9238 77.2623 63.7161 77.2623 63.3023V54.4184C77.2623 54.0137 77.4746 53.8105 77.8992 53.8105H82.9482C83.3315 53.8105 83.524 54.0137 83.524 54.4184C83.524 54.8231 83.3315 55.0247 82.9482 55.0247H78.5055V57.9661H82.2961C82.6595 57.9661 82.8413 58.1692 82.8413 58.5724C82.8413 58.9756 82.6595 59.165 82.2961 59.165H78.5055V62.7127H82.9482C83.3315 62.7127 83.524 62.9098 83.524 63.3038C83.524 63.7192 83.3315 63.9254 82.9482 63.9254V63.9238Z" fill="white"/>
<path d="M88.6631 63.9237H85.2069C85.0955 63.9237 84.9901 63.8764 84.8893 63.7786C84.787 63.6824 84.7366 63.5343 84.7366 63.3327C84.7366 63.1311 84.7915 62.9753 84.8969 62.8699C85.0038 62.763 85.1077 62.7096 85.2085 62.7096H88.6356C88.999 62.7096 89.3045 62.5828 89.5519 62.3308C89.7993 62.0773 89.9245 61.7352 89.9245 61.2984C89.9245 60.6539 89.4893 60.1469 88.6188 59.7819L86.5723 58.9175C86.218 58.7663 85.9431 58.6349 85.7461 58.5234C85.549 58.412 85.3368 58.2577 85.1092 58.0607C84.8816 57.8637 84.7213 57.6254 84.6235 57.3475C84.5273 57.0695 84.48 56.7381 84.48 56.3548C84.48 55.6156 84.7014 55.0062 85.1459 54.5282C85.5903 54.0471 86.2073 53.8074 86.9953 53.8074H90.1491C90.259 53.8074 90.3674 53.8639 90.4743 53.9754C90.5797 54.0853 90.6347 54.2365 90.6347 54.429C90.6347 54.823 90.4713 55.02 90.1491 55.02H86.9953C86.6517 55.02 86.3508 55.1467 86.0927 55.3987C85.8346 55.6523 85.7063 55.9653 85.7063 56.338C85.7063 56.6816 85.7919 56.9535 85.9644 57.1489C86.1355 57.346 86.4135 57.5262 86.7968 57.6865L88.7516 58.5066C89.0556 58.638 89.2953 58.7434 89.4725 58.8243C89.6481 58.9053 89.8604 59.029 90.1093 59.1969C90.3568 59.3634 90.5461 59.5299 90.6775 59.6979C90.8088 59.8644 90.9264 60.0812 91.0257 60.35C91.1265 60.6188 91.1769 60.9074 91.1769 61.2205C91.1769 61.9796 90.9508 62.6179 90.5018 63.1402C90.0528 63.661 89.4389 63.9207 88.66 63.9207L88.6631 63.9237Z" fill="white"/>
<path d="M14.4796 30.4683H2.59782V31.7344C2.59782 32.86 2.91091 33.7748 3.82266 34.5368C4.73441 35.3005 5.85692 35.6807 7.19172 35.6807H14.7454C15.3166 35.6807 15.6022 36.0213 15.6022 36.7009C15.6022 37.0827 15.5059 37.3683 15.3166 37.5577C15.1257 37.7486 14.9348 37.8433 14.7454 37.8433H7.15048C5.16356 37.8433 3.52332 37.2385 2.22976 36.0259C0.936204 34.8148 0.433746 33.0142 0.433746 31.7329V26.7511C0.433746 24.6007 1.13474 22.907 2.53674 21.6684C3.93873 20.4299 5.68587 19.8098 7.78276 19.8098H8.80294C10.7074 19.8098 12.3415 20.4222 13.7023 21.6471C15.063 22.8719 15.7442 24.5732 15.7442 26.7511V29.1595C15.7442 29.4863 15.6419 29.7857 15.4372 30.0575C15.2326 30.3293 14.9134 30.4668 14.4781 30.4668L14.4796 30.4683ZM13.5801 28.3867V26.7541C13.5801 25.149 13.1174 23.9516 12.1919 23.1605C11.2664 22.3725 10.1225 21.9769 8.76171 21.9769H7.33222C5.99896 21.9769 4.87492 22.3786 3.96316 23.1819C3.05141 23.9852 2.5963 25.1765 2.5963 26.7541V28.3867H13.5786H13.5801Z" fill="white"/>
<path d="M14.7438 38.2589H7.14896C5.06124 38.2589 3.31104 37.6098 1.94723 36.33C0.525379 34.9998 0.0198669 33.0831 0.0198669 31.7361V26.7543C0.0198669 24.4909 0.774316 22.6766 2.26183 21.3601C3.73713 20.0589 5.59271 19.3992 7.78275 19.3992H8.80447C10.8051 19.3992 12.5492 20.0528 13.9818 21.3418C15.4265 22.6445 16.1611 24.465 16.1611 26.7543V29.1627C16.1611 29.5797 16.0298 29.966 15.7732 30.3097C15.5777 30.5708 15.1944 30.8839 14.4812 30.8839H3.0117V31.7361C3.0117 32.8479 3.33395 33.5901 4.0884 34.2194C4.91921 34.9143 5.9623 35.267 7.19172 35.267H14.7438C15.1257 35.267 16.016 35.4075 16.016 36.7026C16.016 37.1959 15.8786 37.5838 15.6083 37.8542C15.3379 38.123 15.0462 38.2604 14.7438 38.2604V38.2589ZM7.78275 20.2269C5.80194 20.2269 4.1281 20.8164 2.81011 21.9802C1.49059 23.147 0.847623 24.7078 0.847623 26.7528V31.7346C0.847623 32.8556 1.28288 34.5737 2.51383 35.7237C3.72033 36.8554 5.27963 37.4296 7.15048 37.4296H14.7454C14.8385 37.4296 14.95 37.341 15.0233 37.2647C15.1333 37.1547 15.1883 36.9653 15.1883 36.7011C15.1883 36.0948 14.9424 36.0948 14.7454 36.0948H7.19324C5.76529 36.0948 4.54198 35.6779 3.55998 34.8547C2.62226 34.0728 2.18547 33.0816 2.18547 31.7346V30.0531H14.4812C14.9286 30.0531 15.0646 29.8698 15.1089 29.8103C15.2601 29.6102 15.3318 29.3979 15.3318 29.1612V26.7528C15.3318 24.7078 14.6904 23.0951 13.4289 21.9573C12.1521 20.8103 10.5959 20.2269 8.80599 20.2269H7.78428H7.78275ZM13.9955 28.8008H2.18395V26.7543C2.18395 25.0591 2.69098 23.7518 3.69284 22.8706C4.67791 22.0016 5.90427 21.5617 7.33528 21.5617H8.76476C10.2187 21.5617 11.4634 21.9924 12.4637 22.8446C13.4824 23.7151 13.997 25.03 13.997 26.7543V28.8008H13.9955ZM3.0117 27.9715H13.1662V26.7528C13.1662 25.2622 12.76 24.1901 11.9246 23.4738C11.08 22.7545 10.014 22.3895 8.76323 22.3895H7.33375C6.09212 22.3895 5.08109 22.7499 4.23959 23.4906C3.42558 24.2084 3.01323 25.3065 3.01323 26.7528V27.9715H3.0117Z" fill="white"/>
<path d="M53.2651 30.4683H41.3833V31.7344C41.3833 32.86 41.6963 33.7748 42.6081 34.5368C43.5198 35.3005 44.6424 35.6807 45.9771 35.6807H53.5308C54.102 35.6807 54.3876 36.0213 54.3876 36.7009C54.3876 37.0827 54.2914 37.3683 54.102 37.5577C53.9111 37.7486 53.7202 37.8433 53.5308 37.8433H45.9359C43.949 37.8433 42.3088 37.2385 41.0152 36.0259C39.7216 34.8148 39.2192 33.0142 39.2192 31.7329V26.7511C39.2192 24.6007 39.9202 22.907 41.3222 21.6684C42.7242 20.4299 44.4713 19.8098 46.5682 19.8098H47.5884C49.4928 19.8098 51.127 20.4222 52.4877 21.6471C53.8485 22.8719 54.5296 24.5732 54.5296 26.7511V29.1595C54.5296 29.4863 54.4273 29.7857 54.2226 30.0575C54.018 30.3293 53.6988 30.4668 53.2635 30.4668L53.2651 30.4683ZM52.3671 28.3867V26.7541C52.3671 25.149 51.9043 23.9516 50.9788 23.1605C50.0533 22.3725 48.9094 21.9769 47.5487 21.9769H46.1192C44.7859 21.9769 43.6619 22.3786 42.7501 23.1819C41.8384 23.9852 41.3833 25.1765 41.3833 26.7541V28.3867H52.3655H52.3671Z" fill="white"/>
<path d="M53.5308 38.2589H45.9359C43.8482 38.2589 42.098 37.6098 40.7342 36.33C39.3123 34.9998 38.8068 33.0846 38.8068 31.7361V26.7543C38.8068 24.4909 39.5613 22.6766 41.0488 21.3601C42.5241 20.0589 44.3797 19.3992 46.5697 19.3992H47.5914C49.5906 19.3992 51.3316 20.0528 52.7687 21.3418C54.2135 22.6445 54.9481 24.465 54.9481 26.7543V29.1627C54.9481 29.5797 54.8167 29.966 54.5602 30.3097C54.2715 30.6915 53.8378 30.8839 53.2681 30.8839H41.8017V31.7361C41.8017 32.8479 42.124 33.5901 42.8769 34.2194C43.7077 34.9143 44.7508 35.267 45.9802 35.267H53.5339C53.9157 35.267 54.8045 35.4075 54.8045 36.7026C54.8045 37.1944 54.6686 37.5823 54.3983 37.8526C54.1279 38.1245 53.8362 38.2604 53.5339 38.2604L53.5308 38.2589ZM46.5697 20.2269C44.5889 20.2269 42.9151 20.8164 41.5971 21.9802C40.2775 23.147 39.6346 24.7078 39.6346 26.7528V31.7346C39.6346 32.8556 40.0698 34.5737 41.3008 35.7237C42.5073 36.8554 44.0666 37.4296 45.9374 37.4296H53.5323C53.6056 37.4296 53.7049 37.3716 53.8103 37.2647C53.9187 37.1562 53.9737 36.9653 53.9737 36.7011C53.9737 36.0948 53.7293 36.0948 53.5323 36.0948H45.9787C44.5507 36.0948 43.3274 35.6779 42.3454 34.8547C41.4077 34.0728 40.9724 33.0801 40.9724 31.7346V30.0531H53.2681C53.6683 30.0531 53.8179 29.9141 53.8973 29.8087C54.047 29.6102 54.1188 29.3979 54.1188 29.1612V26.7528C54.1188 24.7078 53.4774 23.0951 52.2159 21.9573C50.9192 20.7935 49.4073 20.2269 47.593 20.2269H46.5712H46.5697ZM52.7825 28.8008H40.9709V26.7543C40.9709 25.0575 41.4795 23.7502 42.4798 22.8706C43.4649 22.0016 44.6912 21.5617 46.1222 21.5617H47.5517C49.0072 21.5617 50.2503 21.9924 51.2491 22.8446C52.2678 23.7151 52.784 25.03 52.784 26.7543V28.8008H52.7825ZM41.7987 27.9715H51.9532V26.7528C51.9532 25.2607 51.5469 24.1885 50.71 23.4738C49.8655 22.7545 48.8025 22.3895 47.5502 22.3895H46.1207C44.8791 22.3895 43.8681 22.7499 43.0265 23.4906C42.2003 24.2176 41.8002 25.2836 41.8002 26.7528V27.9715H41.7987Z" fill="white"/>
<path d="M35.0575 39.3814C35.0575 41.5042 34.4313 43.0101 33.179 44.1952C31.9267 45.3788 30.2803 45.9713 28.2384 45.9713H22.2364C21.6927 45.9713 21.4209 45.5895 21.4209 44.8274C21.4209 44.1738 21.7065 43.8485 22.2776 43.8485H28.1987C29.5045 43.8485 30.6132 43.4667 31.5265 42.7046C32.4383 41.9425 32.8934 40.933 32.8934 39.3814V37.6892C32.8934 37.6892 31.1737 38.2466 29.9061 38.41C29.0066 38.5261 26.279 38.5536 26.279 38.5536C24.2921 38.5536 22.6381 37.9549 21.3185 36.7576C19.9975 35.5602 19.3377 33.8589 19.3377 31.6536V20.4254C19.3377 19.8527 19.6905 19.5671 20.3992 19.5671C21.1078 19.5671 21.5003 19.8527 21.5003 20.4254V31.6536C21.5003 33.2602 21.963 34.45 22.8885 35.2258C23.814 36.0016 24.9579 36.3895 26.3187 36.3895H29.0448C31.1921 36.3895 32.9331 34.6485 32.9331 32.5012V20.4254C32.9331 19.8527 33.2859 19.5671 33.9945 19.5671C34.7032 19.5671 35.0972 19.8527 35.0972 20.4254C35.0972 24.5627 35.0895 28.4281 35.0773 32.0201C35.0636 35.6122 35.0575 37.5029 35.0575 39.3798V39.3814Z" fill="white"/>
<path d="M28.2384 46.3852H22.2364C21.8653 46.3852 21.0055 46.2324 21.0055 44.8274C21.0055 43.9416 21.4682 43.433 22.2776 43.433H28.1972C29.4128 43.433 30.4147 43.0909 31.2593 42.3854C32.1023 41.6798 32.478 40.7528 32.478 39.3798V38.2481C31.8564 38.4298 30.8148 38.7093 29.9581 38.8193C29.0433 38.9369 26.395 38.9644 26.2836 38.9659C24.1928 38.9659 22.4288 38.3245 21.0391 37.0614C19.634 35.7877 18.9223 33.9688 18.9223 31.652V20.4239C18.9223 20.0405 19.0659 19.1517 20.3992 19.1517C21.7324 19.1517 21.9157 20.0405 21.9157 20.4239V31.652C21.9157 33.1426 22.3219 34.2071 23.1558 34.9065C24.0004 35.6136 25.0648 35.9725 26.3202 35.9725H29.0463C30.9615 35.9725 32.5208 34.4148 32.5208 32.4981V20.4223C32.5208 20.039 32.6643 19.1501 33.9976 19.1501C35.3308 19.1501 35.5141 20.039 35.5141 20.4223C35.5141 24.5611 35.5065 28.425 35.4927 32.0201C35.4775 35.6106 35.4729 37.5013 35.4729 39.3782C35.4729 41.5729 34.8345 43.1978 33.4646 44.4929C32.1389 45.7468 30.3811 46.3821 28.2399 46.3821L28.2384 46.3852ZM22.2776 44.2623C22.0272 44.2623 21.8348 44.3035 21.8348 44.8274C21.8348 45.5559 22.0852 45.5559 22.2364 45.5559H28.2384C30.1612 45.5559 31.7281 44.9969 32.8934 43.8927C34.0877 42.7641 34.6436 41.3316 34.6436 39.3813C34.6436 37.431 34.6482 35.6121 34.6634 32.0201C34.6757 28.428 34.6848 24.5626 34.6848 20.4269C34.6848 20.2497 34.6848 19.984 33.9976 19.984C33.35 19.984 33.35 20.2406 33.35 20.4269V32.5027C33.35 34.8745 31.4211 36.8049 29.0478 36.8049H26.3217C24.8648 36.8049 23.6216 36.3803 22.6243 35.5449C21.6041 34.6897 21.0879 33.3808 21.0879 31.6551V20.4269C21.0879 20.2497 21.0879 19.984 20.4007 19.984C19.7531 19.984 19.7531 20.2406 19.7531 20.4269V31.6551C19.7531 33.7275 20.3747 35.3418 21.598 36.4506C22.832 37.5715 24.4081 38.1397 26.2805 38.1397C26.3034 38.1397 28.9883 38.1107 29.8527 37.9992C31.0668 37.8434 32.7498 37.3012 32.7666 37.2951L33.3088 37.1195V39.3813C33.3088 41.0002 32.8262 42.1563 31.7923 43.0222C30.8072 43.8454 29.5976 44.2623 28.1987 44.2623H22.2792H22.2776Z" fill="white"/>
<path d="M64.8613 38.7565H64.4123C62.5063 38.7565 61.0982 38.2739 60.1864 37.3072C59.2747 36.342 58.8196 34.7964 58.8196 32.6736V13.484C58.8196 12.9128 59.1876 12.6272 59.9207 12.6272C60.6538 12.6272 60.9821 12.9128 60.9821 13.484V32.6736C60.9821 35.3141 62.071 36.6337 64.2489 36.6337H64.8613C65.405 36.6337 65.6783 36.9605 65.6783 37.6141C65.6783 38.3762 65.4065 38.7565 64.8613 38.7565Z" fill="white"/>
<path d="M64.8598 39.172H64.4108C62.3979 39.172 60.8737 38.6405 59.8841 37.5928C58.902 36.5512 58.4026 34.8973 58.4026 32.6751V13.4856C58.4026 13.1022 58.5493 12.2134 59.9192 12.2134C61.2891 12.2134 61.396 13.1022 61.396 13.4856V32.6751C61.396 35.0943 62.3032 36.2214 64.2489 36.2214H64.8613C65.2324 36.2214 66.0938 36.3573 66.0938 37.6157C66.0938 39.0223 65.2324 39.1735 64.8613 39.1735L64.8598 39.172ZM59.9207 13.0411C59.2335 13.0411 59.2335 13.3084 59.2335 13.484V32.6736C59.2335 34.6773 59.6565 36.1404 60.4873 37.0232C61.3151 37.8983 62.6346 38.3427 64.4123 38.3427H64.8613C65.0125 38.3427 65.2645 38.3427 65.2645 37.6142C65.2645 37.0491 65.0415 37.0491 64.8613 37.0491H64.2489C62.5704 37.0491 60.5683 36.2901 60.5683 32.6751V13.4856C60.5683 13.2992 60.5683 13.0427 59.9207 13.0427V13.0411Z" fill="white"/>
<path d="M89.9291 38.5534H87.9682C85.8178 38.5534 84.1913 38.0433 83.0887 37.0216C81.986 36.0014 81.4347 34.3611 81.4347 32.1009V21.8532H78.985C78.4398 21.8532 78.168 21.5126 78.168 20.833C78.168 20.1534 78.4398 19.7716 78.985 19.7716H81.4347V13.4427C81.4347 12.899 81.7753 12.6272 82.4549 12.6272C83.1895 12.6272 83.5575 12.899 83.5575 13.4427V19.7716H88.3759C88.5653 19.7716 88.7501 19.8601 88.9273 20.0373C89.1044 20.2145 89.193 20.4802 89.193 20.833C89.193 21.5141 88.9212 21.8532 88.3759 21.8532H83.5988V31.9787C83.5988 34.9186 85.0008 36.3878 87.8048 36.3878H89.9276C90.4713 36.3878 90.7431 36.7558 90.7431 37.4904C90.7431 38.225 90.4713 38.5519 89.9276 38.5519L89.9291 38.5534Z" fill="white"/>
<path d="M89.9307 38.9672H87.9682C85.7201 38.9672 83.9852 38.4159 82.8077 37.3254C81.6226 36.2274 81.0224 34.471 81.0224 32.1008V22.267H78.9881C78.617 22.267 77.7556 22.1265 77.7556 20.8314C77.7556 19.5363 78.617 19.3561 78.9881 19.3561H81.0224V13.4411C81.0224 13.0716 81.1613 12.2102 82.4564 12.2102C83.8279 12.2102 83.9745 13.0716 83.9745 13.4411V19.3561H88.3775C88.6799 19.3561 88.9655 19.4859 89.2205 19.7425C89.4786 20.0006 89.6069 20.3671 89.6069 20.8314C89.6069 22.1265 88.7471 22.267 88.3759 22.267H84.0142V31.9786C84.0142 34.7047 85.2192 35.9738 87.8048 35.9738H89.9291C90.3002 35.9738 91.1601 36.122 91.1601 37.4919C91.1601 38.8618 90.3002 38.9672 89.9291 38.9672H89.9307ZM78.9881 20.1869C78.8186 20.1869 78.5849 20.1869 78.5849 20.8329C78.5849 21.4392 78.8079 21.4392 78.9881 21.4392H81.8516V32.1008C81.8516 34.2297 82.3633 35.7829 83.3712 36.7161C84.3899 37.6584 85.937 38.1379 87.9682 38.1379H89.9307C90.091 38.1379 90.3323 38.1379 90.3323 37.4919C90.3323 36.8031 90.0818 36.8031 89.9307 36.8031H87.8063C84.7839 36.8031 83.1864 35.1354 83.1864 31.9801V21.4408H88.3775C88.547 21.4408 88.7791 21.4408 88.7791 20.8344C88.7791 20.5962 88.7303 20.4267 88.6356 20.3305C88.5394 20.2373 88.4538 20.1884 88.3775 20.1884H83.1452V13.4457C83.1452 13.2945 83.1452 13.0441 82.4549 13.0441C81.8501 13.0441 81.8501 13.2762 81.8501 13.4457V20.1884H78.9866L78.9881 20.1869Z" fill="white"/>
<path d="M72.8044 19.6631C73.4336 19.6631 73.8658 19.9518 73.8658 20.5306V37.9639C73.8658 38.5427 73.5115 38.8314 72.8044 38.8314C72.0973 38.8314 71.7017 38.5427 71.7017 37.9639V20.5382C71.7017 20.0312 71.9446 19.6616 72.8044 19.6616V19.6631Z" fill="white"/>
<path d="M72.8044 39.2451C71.4329 39.2451 71.2863 38.3487 71.2863 37.9638V20.5381C71.2863 20.0571 71.4833 19.2476 72.8044 19.2476C73.7009 19.2476 74.2812 19.7516 74.2812 20.529V37.9623C74.2812 38.3471 74.1377 39.2436 72.8044 39.2436V39.2451ZM72.8044 20.0769C72.1141 20.0769 72.1141 20.3228 72.1141 20.5381V37.9638C72.1141 38.144 72.1141 38.4158 72.8044 38.4158C73.4519 38.4158 73.4519 38.1547 73.4519 37.9638V20.5305C73.4519 20.4175 73.4519 20.0769 72.8044 20.0769ZM72.8044 16.1382C72.3065 16.1382 71.8758 15.9504 71.5246 15.5808C71.1779 15.2173 71.0023 14.7836 71.0023 14.2933C71.0023 13.7069 71.1947 13.2441 71.5765 12.9173C72.3187 12.2774 73.3954 12.314 74.0475 12.931C74.3912 13.2563 74.5653 13.7145 74.5653 14.2933C74.5653 14.779 74.3988 15.2097 74.0705 15.5731C73.7299 15.9473 73.3053 16.1382 72.8044 16.1382ZM72.8044 13.2792C72.5493 13.2792 72.3233 13.3663 72.1141 13.5465C71.9216 13.7115 71.8285 13.9558 71.8285 14.2933C71.8285 14.5667 71.9247 14.8004 72.1217 15.0081C72.5096 15.4143 73.0884 15.4189 73.4535 15.0157C73.6428 14.8065 73.7345 14.5713 73.7345 14.2933C73.7345 13.9466 73.6505 13.6977 73.4748 13.5328C73.2931 13.3617 73.0732 13.2792 72.8013 13.2792H72.8044Z" fill="white"/>
<path d="M70.5685 6.41306C71.6254 6.06943 72.8288 5.97933 74.0674 6.21605C76.963 6.7689 79.0706 9.04447 78.9652 11.4972C78.84 14.4157 75.7993 16.4927 72.3661 16.088L72.9174 15.7856C74.9119 14.6937 75.9764 12.7174 75.5671 10.7C75.561 10.6694 75.5549 10.6404 75.5473 10.6099C75.086 8.51299 73.0686 6.84374 70.5685 6.41306Z" fill="white"/>
<path d="M65.6753 11.1442C65.0094 9.84763 64.7024 8.33568 64.8827 6.74889C65.3042 3.03468 68.4289 0.13295 72.137 0.00466264C76.5461 -0.14806 80.103 3.47146 79.9808 7.84849L79.4478 7.18415C77.522 4.78335 74.3973 3.6471 71.4207 4.38016C71.3764 4.39085 71.3321 4.40307 71.2878 4.41376C68.1983 5.21861 65.9731 7.94165 65.6768 11.1442H65.6753Z" fill="white"/>
<path d="M72.7845 16.1384C73.8026 16.1384 74.6279 15.3131 74.6279 14.295C74.6279 13.277 73.8026 12.4517 72.7845 12.4517C71.7665 12.4517 70.9412 13.277 70.9412 14.295C70.9412 15.3131 71.7665 16.1384 72.7845 16.1384Z" fill="white"/>
</g>
</svg>
