<svg width="40" height="40" viewBox="0 0 40 40" fill="none" xmlns="http://www.w3.org/2000/svg">
<g clip-path="url(#clip0_496_55585)">
<path d="M27.3333 40H27.2783C26.8565 39.9932 26.4404 39.901 26.0552 39.7292C25.6699 39.5573 25.3235 39.3093 25.0366 39L19.7566 33.5633L22.1666 31.26L27.3416 36.5933L37.4766 26.4567L39.8333 28.8083L29.5649 39.0783C29.2728 39.3724 28.925 39.6054 28.5418 39.7637C28.1586 39.9219 27.7478 40.0022 27.3333 40Z" fill="#00A1D4"/>
<path d="M18.3334 10V17.6433L13.8218 22.155L16.1784 24.5117L21.6668 19.0233V10H18.3334Z" fill="#00A1D4"/>
<path d="M20.0001 0C14.8694 0.0430141 9.95143 2.05625 6.26336 5.62333C2.57529 9.19042 0.399208 14.0385 0.185153 19.1649C-0.0289028 24.2913 1.73544 29.3039 5.11331 33.1661C8.49117 37.0282 13.2241 39.4444 18.3334 39.915V36.5817C15.0499 36.2542 11.9373 34.9602 9.38953 32.8632C6.84172 30.7663 4.9732 27.9607 4.0204 24.8014C3.06761 21.6422 3.07336 18.2713 4.03693 15.1154C5.00051 11.9594 6.87859 9.16022 9.43354 7.07197C11.9885 4.98372 15.1055 3.70028 18.3901 3.38407C21.6747 3.06785 24.9792 3.73306 27.8856 5.29553C30.7921 6.858 33.1697 9.2475 34.7176 12.1617C36.2656 15.0758 36.9143 18.3837 36.5817 21.6667H39.9151C39.9617 21.115 40.0001 20.5633 40.0001 20C39.9943 14.6974 37.8854 9.61368 34.1359 5.8642C30.3864 2.11471 25.3026 0.00573514 20.0001 0Z" fill="#00A1D4"/>
</g>
<defs>
<clipPath id="clip0_496_55585">
<rect width="40" height="40" fill="white"/>
</clipPath>
</defs>
</svg>
