<svg width="40" height="40" viewBox="0 0 40 40" fill="none" xmlns="http://www.w3.org/2000/svg">
<g clip-path="url(#clip0_496_42844)">
<path d="M11.6667 0H6.66667C4.89856 0 3.20286 0.702379 1.95262 1.95262C0.702379 3.20286 0 4.89856 0 6.66667L0 11.6667C0 13.4348 0.702379 15.1305 1.95262 16.3807C3.20286 17.631 4.89856 18.3333 6.66667 18.3333H11.6667C13.4348 18.3333 15.1305 17.631 16.3807 16.3807C17.631 15.1305 18.3333 13.4348 18.3333 11.6667V6.66667C18.3333 4.89856 17.631 3.20286 16.3807 1.95262C15.1305 0.702379 13.4348 0 11.6667 0ZM15 11.6667C15 12.5507 14.6488 13.3986 14.0237 14.0237C13.3986 14.6488 12.5507 15 11.6667 15H6.66667C5.78261 15 4.93477 14.6488 4.30964 14.0237C3.68452 13.3986 3.33333 12.5507 3.33333 11.6667V6.66667C3.33333 5.78261 3.68452 4.93477 4.30964 4.30964C4.93477 3.68452 5.78261 3.33333 6.66667 3.33333H11.6667C12.5507 3.33333 13.3986 3.68452 14.0237 4.30964C14.6488 4.93477 15 5.78261 15 6.66667V11.6667Z" fill="#00A1D4"/>
<path d="M33.3337 0H28.3337C26.5655 0 24.8699 0.702379 23.6196 1.95262C22.3694 3.20286 21.667 4.89856 21.667 6.66667V11.6667C21.667 13.4348 22.3694 15.1305 23.6196 16.3807C24.8699 17.631 26.5655 18.3333 28.3337 18.3333H33.3337C35.1018 18.3333 36.7975 17.631 38.0477 16.3807C39.2979 15.1305 40.0003 13.4348 40.0003 11.6667V6.66667C40.0003 4.89856 39.2979 3.20286 38.0477 1.95262C36.7975 0.702379 35.1018 0 33.3337 0ZM36.667 11.6667C36.667 12.5507 36.3158 13.3986 35.6907 14.0237C35.0656 14.6488 34.2177 15 33.3337 15H28.3337C27.4496 15 26.6018 14.6488 25.9766 14.0237C25.3515 13.3986 25.0003 12.5507 25.0003 11.6667V6.66667C25.0003 5.78261 25.3515 4.93477 25.9766 4.30964C26.6018 3.68452 27.4496 3.33333 28.3337 3.33333H33.3337C34.2177 3.33333 35.0656 3.68452 35.6907 4.30964C36.3158 4.93477 36.667 5.78261 36.667 6.66667V11.6667Z" fill="#00A1D4"/>
<path d="M11.6667 21.6666H6.66667C4.89856 21.6666 3.20286 22.369 1.95262 23.6192C0.702379 24.8695 0 26.5652 0 28.3333L0 33.3333C0 35.1014 0.702379 36.7971 1.95262 38.0473C3.20286 39.2976 4.89856 40 6.66667 40H11.6667C13.4348 40 15.1305 39.2976 16.3807 38.0473C17.631 36.7971 18.3333 35.1014 18.3333 33.3333V28.3333C18.3333 26.5652 17.631 24.8695 16.3807 23.6192C15.1305 22.369 13.4348 21.6666 11.6667 21.6666ZM15 33.3333C15 34.2173 14.6488 35.0652 14.0237 35.6903C13.3986 36.3154 12.5507 36.6666 11.6667 36.6666H6.66667C5.78261 36.6666 4.93477 36.3154 4.30964 35.6903C3.68452 35.0652 3.33333 34.2173 3.33333 33.3333V28.3333C3.33333 27.4492 3.68452 26.6014 4.30964 25.9763C4.93477 25.3511 5.78261 25 6.66667 25H11.6667C12.5507 25 13.3986 25.3511 14.0237 25.9763C14.6488 26.6014 15 27.4492 15 28.3333V33.3333Z" fill="#00A1D4"/>
<path d="M33.3337 21.6666H28.3337C26.5655 21.6666 24.8699 22.369 23.6196 23.6192C22.3694 24.8695 21.667 26.5652 21.667 28.3333V33.3333C21.667 35.1014 22.3694 36.7971 23.6196 38.0473C24.8699 39.2976 26.5655 40 28.3337 40H33.3337C35.1018 40 36.7975 39.2976 38.0477 38.0473C39.2979 36.7971 40.0003 35.1014 40.0003 33.3333V28.3333C40.0003 26.5652 39.2979 24.8695 38.0477 23.6192C36.7975 22.369 35.1018 21.6666 33.3337 21.6666ZM36.667 33.3333C36.667 34.2173 36.3158 35.0652 35.6907 35.6903C35.0656 36.3154 34.2177 36.6666 33.3337 36.6666H28.3337C27.4496 36.6666 26.6018 36.3154 25.9766 35.6903C25.3515 35.0652 25.0003 34.2173 25.0003 33.3333V28.3333C25.0003 27.4492 25.3515 26.6014 25.9766 25.9763C26.6018 25.3511 27.4496 25 28.3337 25H33.3337C34.2177 25 35.0656 25.3511 35.6907 25.9763C36.3158 26.6014 36.667 27.4492 36.667 28.3333V33.3333Z" fill="#00A1D4"/>
</g>
<defs>
<clipPath id="clip0_496_42844">
<rect width="40" height="40" fill="white"/>
</clipPath>
</defs>
</svg>
