<svg width="40" height="40" viewBox="0 0 40 40" fill="none" xmlns="http://www.w3.org/2000/svg">
<g clip-path="url(#clip0_496_42849)">
<path d="M27.1633 13.8133L29.5033 16.1883L19.8483 25.7C19.2033 26.345 18.355 26.6667 17.5033 26.6667C16.6517 26.6667 15.795 26.3417 15.1433 25.6917L10.5067 21.1983L12.8283 18.8033L17.4833 23.315L27.1633 13.8133ZM40 20C40 31.0283 31.0283 40 20 40C8.97167 40 0 31.0283 0 20C0 8.97167 8.97167 0 20 0C31.0283 0 40 8.97167 40 20ZM36.6667 20C36.6667 10.81 29.19 3.33333 20 3.33333C10.81 3.33333 3.33333 10.81 3.33333 20C3.33333 29.19 10.81 36.6667 20 36.6667C29.19 36.6667 36.6667 29.19 36.6667 20Z" fill="#00A1D4"/>
</g>
<defs>
<clipPath id="clip0_496_42849">
<rect width="40" height="40" fill="white"/>
</clipPath>
</defs>
</svg>
