<svg width="40" height="40" viewBox="0 0 40 40" fill="none" xmlns="http://www.w3.org/2000/svg">
<g clip-path="url(#clip0_496_42853)">
<path d="M6.667 10.0001C6.00992 10.0018 5.35902 9.87318 4.75196 9.62172C4.14489 9.37026 3.59372 9.00091 3.13033 8.53505L0.556996 6.24505C0.226802 5.95066 0.0270772 5.53716 0.0017598 5.09551C-0.0235576 4.65386 0.127606 4.22025 0.421996 3.89005C0.716387 3.55986 1.12989 3.36013 1.57154 3.33481C2.01319 3.3095 2.4468 3.46066 2.777 3.75505L5.41866 6.11172C5.56989 6.28154 5.75427 6.41863 5.96046 6.51453C6.16665 6.61044 6.39028 6.66313 6.61759 6.66938C6.84491 6.67562 7.07109 6.63528 7.28224 6.55085C7.49338 6.46641 7.68501 6.33965 7.84533 6.17838L13.852 0.460051C14.175 0.172501 14.5971 0.021749 15.0292 0.0396357C15.4612 0.0575223 15.8694 0.242647 16.1676 0.555909C16.4657 0.869171 16.6304 1.28604 16.6268 1.71847C16.6233 2.1509 16.4519 2.56503 16.1487 2.87338L10.167 8.56338C9.70662 9.02108 9.16054 9.38355 8.55998 9.63006C7.95943 9.87657 7.31617 10.0023 6.667 10.0001ZM40.0003 6.66672C40.0003 6.22469 39.8247 5.80077 39.5122 5.48821C39.1996 5.17565 38.7757 5.00005 38.3337 5.00005H21.667C21.225 5.00005 20.801 5.17565 20.4885 5.48821C20.1759 5.80077 20.0003 6.22469 20.0003 6.66672C20.0003 7.10875 20.1759 7.53267 20.4885 7.84523C20.801 8.15779 21.225 8.33338 21.667 8.33338H38.3337C38.7757 8.33338 39.1996 8.15779 39.5122 7.84523C39.8247 7.53267 40.0003 7.10875 40.0003 6.66672ZM10.167 21.8967L16.1487 16.2067C16.3156 16.0581 16.451 15.8774 16.5467 15.6754C16.6423 15.4734 16.6964 15.2542 16.7057 15.0308C16.7149 14.8075 16.6791 14.5846 16.6005 14.3753C16.5218 14.1661 16.4019 13.9748 16.2478 13.8129C16.0937 13.651 15.9086 13.5217 15.7035 13.4328C15.4984 13.3439 15.2775 13.2971 15.054 13.2953C14.8305 13.2935 14.6089 13.3366 14.4024 13.4222C14.1959 13.5078 14.0087 13.634 13.852 13.7934L7.852 19.5117C7.53472 19.8151 7.11265 19.9844 6.67366 19.9844C6.23468 19.9844 5.81261 19.8151 5.49533 19.5117L2.84533 16.8701C2.53099 16.5665 2.10999 16.3985 1.67299 16.4023C1.236 16.4061 0.817979 16.5813 0.508965 16.8904C0.199952 17.1994 0.0246702 17.6174 0.0208729 18.0544C0.0170755 18.4914 0.185066 18.9124 0.488663 19.2267L3.13033 21.8684C4.06312 22.8014 5.32686 23.3279 6.64616 23.3332C7.96546 23.3385 9.2334 22.8222 10.1737 21.8967H10.167ZM40.0003 20.0001C40.0003 19.558 39.8247 19.1341 39.5122 18.8215C39.1996 18.509 38.7757 18.3334 38.3337 18.3334H21.667C21.225 18.3334 20.801 18.509 20.4885 18.8215C20.1759 19.1341 20.0003 19.558 20.0003 20.0001C20.0003 20.4421 20.1759 20.866 20.4885 21.1786C20.801 21.4911 21.225 21.6667 21.667 21.6667H38.3337C38.7757 21.6667 39.1996 21.4911 39.5122 21.1786C39.8247 20.866 40.0003 20.4421 40.0003 20.0001ZM10.167 35.2301L16.142 29.5401C16.309 29.3914 16.4443 29.2107 16.54 29.0087C16.6357 28.8067 16.6898 28.5875 16.699 28.3642C16.7082 28.1408 16.6725 27.9179 16.5938 27.7087C16.5151 27.4995 16.3952 27.3082 16.2411 27.1463C16.087 26.9843 15.9019 26.8551 15.6968 26.7661C15.4917 26.6772 15.2709 26.6304 15.0474 26.6286C14.8238 26.6268 14.6022 26.67 14.3957 26.7555C14.1892 26.8411 14.002 26.9673 13.8453 27.1267L7.84533 32.8451C7.68501 33.0063 7.49338 33.1331 7.28224 33.2175C7.07109 33.302 6.84491 33.3423 6.61759 33.336C6.39028 33.3298 6.16665 33.2771 5.96046 33.1812C5.75427 33.0853 5.56989 32.9482 5.41866 32.7784L2.777 30.4217C2.4468 30.1273 2.01319 29.9762 1.57154 30.0015C1.12989 30.0268 0.716387 30.2265 0.421996 30.5567C0.127606 30.8869 -0.0235576 31.3205 0.0017598 31.7622C0.0270772 32.2038 0.226802 32.6173 0.556996 32.9117L3.13033 35.2017C4.06312 36.1347 5.32686 36.6612 6.64616 36.6666C7.96546 36.6719 9.2334 36.1555 10.1737 35.2301H10.167ZM40.0003 33.3334C40.0003 32.8914 39.8247 32.4674 39.5122 32.1549C39.1996 31.8423 38.7757 31.6667 38.3337 31.6667H21.667C21.225 31.6667 20.801 31.8423 20.4885 32.1549C20.1759 32.4674 20.0003 32.8914 20.0003 33.3334C20.0003 33.7754 20.1759 34.1993 20.4885 34.5119C20.801 34.8245 21.225 35.0001 21.667 35.0001H38.3337C38.7757 35.0001 39.1996 34.8245 39.5122 34.5119C39.8247 34.1993 40.0003 33.7754 40.0003 33.3334Z" fill="#00A1D4"/>
</g>
<defs>
<clipPath id="clip0_496_42853">
<rect width="40" height="40" fill="white"/>
</clipPath>
</defs>
</svg>
