<svg width="40" height="40" viewBox="0 0 40 40" fill="none" xmlns="http://www.w3.org/2000/svg">
<g clip-path="url(#clip0_496_68574)">
<path d="M26.6667 11.6667H13.3333C12.4167 11.6667 11.6667 12.4167 11.6667 13.3333V26.6667C11.6667 27.5833 12.4167 28.3333 13.3333 28.3333H26.6667C27.5833 28.3333 28.3333 27.5833 28.3333 26.6667V13.3333C28.3333 12.4167 27.5833 11.6667 26.6667 11.6667ZM25 25H15V15H25V25ZM38.3333 18.3333C39.25 18.3333 40 17.5833 40 16.6667C40 15.75 39.25 15 38.3333 15H36.6667V11.6667H38.3333C39.25 11.6667 40 10.9167 40 10C40 9.08333 39.25 8.33333 38.3333 8.33333H35.9667C35.1333 6.41667 33.5833 4.88333 31.6667 4.03333V1.66667C31.6667 0.75 30.9167 0 30 0C29.0833 0 28.3333 0.75 28.3333 1.66667V3.33333H25V1.66667C25 0.75 24.25 0 23.3333 0C22.4167 0 21.6667 0.75 21.6667 1.66667V3.33333H18.3333V1.66667C18.3333 0.75 17.5833 0 16.6667 0C15.75 0 15 0.75 15 1.66667V3.33333H11.6667V1.66667C11.6667 0.75 10.9167 0 10 0C9.08333 0 8.33333 0.75 8.33333 1.66667V4.03333C6.41667 4.86667 4.88333 6.41667 4.03333 8.33333H1.66667C0.75 8.33333 0 9.08333 0 10C0 10.9167 0.75 11.6667 1.66667 11.6667H3.33333V15H1.66667C0.75 15 0 15.75 0 16.6667C0 17.5833 0.75 18.3333 1.66667 18.3333H3.33333V21.6667H1.66667C0.75 21.6667 0 22.4167 0 23.3333C0 24.25 0.75 25 1.66667 25H3.33333V28.3333H1.66667C0.75 28.3333 0 29.0833 0 30C0 30.9167 0.75 31.6667 1.66667 31.6667H4.03333C4.86667 33.5833 6.41667 35.1167 8.33333 35.9667V38.3333C8.33333 39.25 9.08333 40 10 40C10.9167 40 11.6667 39.25 11.6667 38.3333V36.6667H15V38.3333C15 39.25 15.75 40 16.6667 40C17.5833 40 18.3333 39.25 18.3333 38.3333V36.6667H21.6667V38.3333C21.6667 39.25 22.4167 40 23.3333 40C24.25 40 25 39.25 25 38.3333V36.6667H28.3333V38.3333C28.3333 39.25 29.0833 40 30 40C30.9167 40 31.6667 39.25 31.6667 38.3333V35.9667C33.5833 35.1333 35.1167 33.5833 35.9667 31.6667H38.3333C39.25 31.6667 40 30.9167 40 30C40 29.0833 39.25 28.3333 38.3333 28.3333H36.6667V25H38.3333C39.25 25 40 24.25 40 23.3333C40 22.4167 39.25 21.6667 38.3333 21.6667H36.6667V18.3333H38.3333ZM28.3333 33.3333H11.6667C8.91667 33.3333 6.66667 31.0833 6.66667 28.3333V11.6667C6.66667 8.91667 8.91667 6.66667 11.6667 6.66667H28.3333C31.0833 6.66667 33.3333 8.91667 33.3333 11.6667V28.3333C33.3333 31.0833 31.0833 33.3333 28.3333 33.3333Z" fill="#00A1D4"/>
</g>
<defs>
<clipPath id="clip0_496_68574">
<rect width="40" height="40" fill="white"/>
</clipPath>
</defs>
</svg>
