<svg width="40" height="40" viewBox="0 0 40 40" fill="none" xmlns="http://www.w3.org/2000/svg">
<g clip-path="url(#clip0_496_55622)">
<path d="M25.0002 10C25.0002 4.485 20.5152 0 15.0002 0C9.4852 0 5.0002 4.485 5.0002 10C5.0002 15.515 9.4852 20 15.0002 20C20.5152 20 25.0002 15.515 25.0002 10ZM15.0002 16.6667C11.3235 16.6667 8.33354 13.6767 8.33354 10C8.33354 6.32333 11.3235 3.33333 15.0002 3.33333C18.6769 3.33333 21.6669 6.32333 21.6669 10C21.6669 13.6767 18.6769 16.6667 15.0002 16.6667ZM14.9869 24.8967C15.1002 25.81 14.4535 26.6417 13.5385 26.7567C7.7202 27.4833 3.33187 32.4583 3.33187 38.3333C3.33187 39.2533 2.5852 40 1.6652 40C0.745202 40 -0.00146484 39.2533 -0.00146484 38.3333C-0.00146484 30.7817 5.64187 24.3833 13.1252 23.45C14.0285 23.335 14.8702 23.9833 14.9852 24.8983L14.9869 24.8967ZM37.8269 31.8883L36.2035 30.9517C36.4802 30.1233 36.6669 29.2533 36.6669 28.3317C36.6669 27.41 36.4819 26.54 36.2035 25.7117L37.8269 24.775C38.6235 24.315 38.8969 23.295 38.4369 22.4983C37.9752 21.7 36.9585 21.425 36.1602 21.8883L34.5385 22.825C33.3635 21.5017 31.7985 20.5333 30.0002 20.1683V18.3333C30.0002 17.4133 29.2535 16.6667 28.3335 16.6667C27.4135 16.6667 26.6669 17.4133 26.6669 18.3333V20.1683C24.8685 20.535 23.3035 21.5033 22.1285 22.825L20.5069 21.8883C19.7069 21.4267 18.6902 21.7 18.2302 22.4983C17.7702 23.2967 18.0435 24.315 18.8402 24.775L20.4635 25.7117C20.1869 26.54 20.0002 27.41 20.0002 28.3317C20.0002 29.2533 20.1852 30.1233 20.4635 30.9517L18.8402 31.8883C18.0435 32.3483 17.7702 33.3683 18.2302 34.165C18.5402 34.7 19.0985 34.9983 19.6752 34.9983C19.9569 34.9983 20.2435 34.9267 20.5069 34.775L22.1285 33.8383C23.3035 35.1617 24.8685 36.13 26.6669 36.495V38.33C26.6669 39.25 27.4135 39.9967 28.3335 39.9967C29.2535 39.9967 30.0002 39.25 30.0002 38.33V36.495C31.7985 36.1283 33.3635 35.16 34.5385 33.8383L36.1602 34.775C36.4235 34.9267 36.7102 34.9983 36.9919 34.9983C37.5685 34.9983 38.1285 34.7 38.4369 34.165C38.8969 33.3667 38.6235 32.3483 37.8269 31.8883ZM28.3335 33.3317C25.5769 33.3317 23.3335 31.0883 23.3335 28.3317C23.3335 25.575 25.5769 23.3317 28.3335 23.3317C31.0902 23.3317 33.3335 25.575 33.3335 28.3317C33.3335 31.0883 31.0902 33.3317 28.3335 33.3317Z" fill="#00A1D4"/>
</g>
<defs>
<clipPath id="clip0_496_55622">
<rect width="40" height="40" fill="white"/>
</clipPath>
</defs>
</svg>
