<svg width="40" height="40" viewBox="0 0 40 40" fill="none" xmlns="http://www.w3.org/2000/svg">
<g clip-path="url(#clip0_496_55618)">
<path d="M24.88 15H25C27.7567 15 30 12.7567 30 10V5C30 2.24333 27.7567 0 25 0H15C12.2434 0 10 2.24333 10 5V10C10 12.7567 12.2434 15 15 15H15.3367L18.3934 17.695C18.8767 18.1217 19.4817 18.335 20.0867 18.335C20.6834 18.335 21.28 18.125 21.75 17.7083L24.88 15.0017V15ZM20.085 14.74L17.0684 12.0833C16.7634 11.815 16.3717 11.6667 15.9667 11.6667H15C14.08 11.6667 13.3334 10.9183 13.3334 10V5C13.3334 4.08167 14.08 3.33333 15 3.33333H25C25.92 3.33333 26.6667 4.08167 26.6667 5V10C26.6667 10.9183 25.92 11.6667 25 11.6667H24.26C23.86 11.6667 23.4717 11.81 23.17 12.0733L20.085 14.7417V14.74ZM9.1667 30C12.3834 30 15 27.3833 15 24.1667C15 20.95 12.3834 18.3333 9.1667 18.3333C5.95004 18.3333 3.33337 20.95 3.33337 24.1667C3.33337 27.3833 5.95004 30 9.1667 30ZM9.1667 21.6667C10.545 21.6667 11.6667 22.7883 11.6667 24.1667C11.6667 25.545 10.545 26.6667 9.1667 26.6667C7.78837 26.6667 6.6667 25.545 6.6667 24.1667C6.6667 22.7883 7.78837 21.6667 9.1667 21.6667ZM25 24.1667C25 27.3833 27.6167 30 30.8334 30C34.05 30 36.6667 27.3833 36.6667 24.1667C36.6667 20.95 34.05 18.3333 30.8334 18.3333C27.6167 18.3333 25 20.95 25 24.1667ZM30.8334 21.6667C32.2117 21.6667 33.3334 22.7883 33.3334 24.1667C33.3334 25.545 32.2117 26.6667 30.8334 26.6667C29.455 26.6667 28.3334 25.545 28.3334 24.1667C28.3334 22.7883 29.455 21.6667 30.8334 21.6667ZM18.2284 37.7483C18.55 38.61 18.115 39.5717 17.2534 39.895C17.06 39.9667 16.8634 40.0017 16.6667 40.0017C15.9934 40.0017 15.3567 39.5883 15.105 38.92C14.2267 36.5767 11.84 35.0017 9.1667 35.0017C6.49337 35.0017 4.1067 36.5767 3.22837 38.92C2.90504 39.7833 1.94337 40.2133 1.0817 39.895C0.220036 39.5717 -0.214964 38.61 0.106703 37.7483C1.47004 34.11 5.1117 31.6667 9.16837 31.6667C13.225 31.6667 16.8634 34.11 18.2284 37.7483ZM38.92 39.895C38.7267 39.9667 38.53 40.0017 38.3334 40.0017C37.66 40.0017 37.0234 39.5883 36.7717 38.92C35.8934 36.5767 33.5067 35.0017 30.8334 35.0017C28.16 35.0017 25.7734 36.5767 24.895 38.92C24.5717 39.7833 23.61 40.2133 22.7484 39.895C21.8867 39.5717 21.4517 38.61 21.7734 37.7483C23.1367 34.11 26.7784 31.6667 30.835 31.6667C34.8917 31.6667 38.5317 34.11 39.8967 37.7483C40.2184 38.61 39.7834 39.5717 38.9217 39.895H38.92Z" fill="#00A1D4"/>
</g>
<defs>
<clipPath id="clip0_496_55618">
<rect width="40" height="40" fill="white"/>
</clipPath>
</defs>
</svg>
