<svg width="40" height="40" viewBox="0 0 40 40" fill="none" xmlns="http://www.w3.org/2000/svg">
<g clip-path="url(#clip0_496_68562)">
<path d="M16.6667 20C16.6667 20.442 16.4911 20.8659 16.1785 21.1785C15.8659 21.4911 15.442 21.6666 15 21.6666H8.33333C7.89131 21.6666 7.46738 21.4911 7.15482 21.1785C6.84226 20.8659 6.66667 20.442 6.66667 20C6.66667 19.558 6.84226 19.134 7.15482 18.8215C7.46738 18.5089 7.89131 18.3333 8.33333 18.3333H15C15.442 18.3333 15.8659 18.5089 16.1785 18.8215C16.4911 19.134 16.6667 19.558 16.6667 20ZM31.6667 18.3333H30V16.6666C30 16.2246 29.8244 15.8007 29.5118 15.4881C29.1993 15.1756 28.7754 15 28.3333 15C27.8913 15 27.4674 15.1756 27.1548 15.4881C26.8423 15.8007 26.6667 16.2246 26.6667 16.6666V18.3333H25C24.558 18.3333 24.134 18.5089 23.8215 18.8215C23.5089 19.134 23.3333 19.558 23.3333 20C23.3333 20.442 23.5089 20.8659 23.8215 21.1785C24.134 21.4911 24.558 21.6666 25 21.6666H26.6667V23.3333C26.6667 23.7753 26.8423 24.1993 27.1548 24.5118C27.4674 24.8244 27.8913 25 28.3333 25C28.7754 25 29.1993 24.8244 29.5118 24.5118C29.8244 24.1993 30 23.7753 30 23.3333V21.6666H31.6667C32.1087 21.6666 32.5326 21.4911 32.8452 21.1785C33.1577 20.8659 33.3333 20.442 33.3333 20C33.3333 19.558 33.1577 19.134 32.8452 18.8215C32.5326 18.5089 32.1087 18.3333 31.6667 18.3333ZM40 15V28.3333C39.9974 30.5426 39.1185 32.6607 37.5563 34.2229C35.9941 35.7852 33.876 36.664 31.6667 36.6666H8.33333C6.12401 36.664 4.00593 35.7852 2.4437 34.2229C0.88147 32.6607 0.00264643 30.5426 0 28.3333L0 15C0.00170726 13.5224 0.493482 12.0872 1.39829 10.9191C2.30309 9.751 3.56981 8.91602 5 8.54498V6.66665C5 5.78259 5.35119 4.93474 5.97631 4.30962C6.60143 3.6845 7.44928 3.33331 8.33333 3.33331H15C15.8841 3.33331 16.7319 3.6845 17.357 4.30962C17.9821 4.93474 18.3333 5.78259 18.3333 6.66665V8.33331H21.6667V6.66665C21.6667 5.78259 22.0179 4.93474 22.643 4.30962C23.2681 3.6845 24.1159 3.33331 25 3.33331H31.6667C32.5507 3.33331 33.3986 3.6845 34.0237 4.30962C34.6488 4.93474 35 5.78259 35 6.66665V8.54498C36.4302 8.91602 37.6969 9.751 38.6017 10.9191C39.5065 12.0872 39.9983 13.5224 40 15ZM36.6667 15C36.6667 14.1159 36.3155 13.2681 35.6904 12.643C35.0652 12.0178 34.2174 11.6666 33.3333 11.6666C32.8913 11.6666 32.4674 11.4911 32.1548 11.1785C31.8423 10.8659 31.6667 10.442 31.6667 9.99998V6.66665H25V9.99998C25 10.442 24.8244 10.8659 24.5118 11.1785C24.1993 11.4911 23.7754 11.6666 23.3333 11.6666H16.6667C16.2246 11.6666 15.8007 11.4911 15.4882 11.1785C15.1756 10.8659 15 10.442 15 9.99998V6.66665H8.33333V9.99998C8.33333 10.442 8.15774 10.8659 7.84518 11.1785C7.53262 11.4911 7.10869 11.6666 6.66667 11.6666C5.78261 11.6666 4.93476 12.0178 4.30964 12.643C3.68452 13.2681 3.33333 14.1159 3.33333 15V28.3333C3.33333 29.6594 3.86012 30.9312 4.7978 31.8688C5.73548 32.8065 7.00725 33.3333 8.33333 33.3333H31.6667C32.9927 33.3333 34.2645 32.8065 35.2022 31.8688C36.1399 30.9312 36.6667 29.6594 36.6667 28.3333V15Z" fill="#00A1D4"/>
</g>
<defs>
<clipPath id="clip0_496_68562">
<rect width="40" height="40" fill="white"/>
</clipPath>
</defs>
</svg>
