<svg width="40" height="40" viewBox="0 0 40 40" fill="none" xmlns="http://www.w3.org/2000/svg">
<g clip-path="url(#clip0_496_68580)">
<path d="M31.6667 8.33329H26.6667V6.66663C26.6667 5.34054 26.1399 4.06877 25.2022 3.13109C24.2645 2.19341 22.9927 1.66663 21.6667 1.66663H18.3333C17.0072 1.66663 15.7355 2.19341 14.7978 3.13109C13.8601 4.06877 13.3333 5.34054 13.3333 6.66663V8.33329H8.33333C6.12401 8.33594 4.00593 9.21476 2.4437 10.777C0.88147 12.3392 0.00264643 14.4573 0 16.6666L0 30C0.00264643 32.2093 0.88147 34.3274 2.4437 35.8896C4.00593 37.4518 6.12401 38.3306 8.33333 38.3333H31.6667C33.876 38.3306 35.9941 37.4518 37.5563 35.8896C39.1185 34.3274 39.9974 32.2093 40 30V16.6666C39.9974 14.4573 39.1185 12.3392 37.5563 10.777C35.9941 9.21476 33.876 8.33594 31.6667 8.33329ZM16.6667 6.66663C16.6667 6.2246 16.8423 5.80068 17.1548 5.48811C17.4674 5.17555 17.8913 4.99996 18.3333 4.99996H21.6667C22.1087 4.99996 22.5326 5.17555 22.8452 5.48811C23.1577 5.80068 23.3333 6.2246 23.3333 6.66663V8.33329H16.6667V6.66663ZM36.6667 30C36.6667 31.326 36.1399 32.5978 35.2022 33.5355C34.2645 34.4732 32.9927 35 31.6667 35H8.33333C7.00725 35 5.73548 34.4732 4.7978 33.5355C3.86012 32.5978 3.33333 31.326 3.33333 30V16.6666C3.33333 15.3405 3.86012 14.0688 4.7978 13.1311C5.73548 12.1934 7.00725 11.6666 8.33333 11.6666H31.6667C32.9927 11.6666 34.2645 12.1934 35.2022 13.1311C36.1399 14.0688 36.6667 15.3405 36.6667 16.6666V30ZM26.6667 23.3333C26.6667 23.7753 26.4911 24.1992 26.1785 24.5118C25.8659 24.8244 25.442 25 25 25H21.6667V28.3333C21.6667 28.7753 21.4911 29.1992 21.1785 29.5118C20.8659 29.8244 20.442 30 20 30C19.558 30 19.134 29.8244 18.8215 29.5118C18.5089 29.1992 18.3333 28.7753 18.3333 28.3333V25H15C14.558 25 14.134 24.8244 13.8215 24.5118C13.5089 24.1992 13.3333 23.7753 13.3333 23.3333C13.3333 22.8913 13.5089 22.4673 13.8215 22.1548C14.134 21.8422 14.558 21.6666 15 21.6666H18.3333V18.3333C18.3333 17.8913 18.5089 17.4673 18.8215 17.1548C19.134 16.8422 19.558 16.6666 20 16.6666C20.442 16.6666 20.8659 16.8422 21.1785 17.1548C21.4911 17.4673 21.6667 17.8913 21.6667 18.3333V21.6666H25C25.442 21.6666 25.8659 21.8422 26.1785 22.1548C26.4911 22.4673 26.6667 22.8913 26.6667 23.3333Z" fill="#00A1D4"/>
</g>
<defs>
<clipPath id="clip0_496_68580">
<rect width="40" height="40" fill="white"/>
</clipPath>
</defs>
</svg>
