<svg width="40" height="40" viewBox="0 0 40 40" fill="none" xmlns="http://www.w3.org/2000/svg">
<g clip-path="url(#clip0_496_68544)">
<path d="M9.16667 21.6666H15.8333C19.05 21.6666 21.6667 19.05 21.6667 15.8333V9.16665C21.6667 5.94998 19.05 3.33331 15.8333 3.33331H9.16667C5.95 3.33331 3.33333 5.94998 3.33333 9.16665V15.8333C3.33333 19.05 5.95 21.6666 9.16667 21.6666ZM6.66667 9.16665C6.66667 7.78831 7.78833 6.66665 9.16667 6.66665H15.8333C17.2117 6.66665 18.3333 7.78831 18.3333 9.16665V15.8333C18.3333 17.2116 17.2117 18.3333 15.8333 18.3333H9.16667C7.78833 18.3333 6.66667 17.2116 6.66667 15.8333V9.16665ZM29.1667 21.6666H32.5C34.7983 21.6666 36.6667 19.7966 36.6667 17.5V14.1666C36.6667 11.87 34.7983 9.99998 32.5 9.99998H29.1667C26.8683 9.99998 25 11.87 25 14.1666V17.5C25 19.7966 26.8683 21.6666 29.1667 21.6666ZM28.3333 14.1666C28.3333 13.7066 28.7083 13.3333 29.1667 13.3333H32.5C32.9583 13.3333 33.3333 13.7066 33.3333 14.1666V17.5C33.3333 17.96 32.9583 18.3333 32.5 18.3333H29.1667C28.7083 18.3333 28.3333 17.96 28.3333 17.5V14.1666ZM32.5 25H7.5C3.365 25 0 28.365 0 32.5C0 36.635 3.365 40 7.5 40H32.5C36.635 40 40 36.635 40 32.5C40 28.365 36.635 25 32.5 25ZM32.5 36.6666H7.5C5.20167 36.6666 3.33333 34.7966 3.33333 32.5C3.33333 30.2033 5.20167 28.3333 7.5 28.3333H32.5C34.7983 28.3333 36.6667 30.2033 36.6667 32.5C36.6667 34.7966 34.7983 36.6666 32.5 36.6666ZM10 32.5C10 33.88 8.88 35 7.5 35C6.12 35 5 33.88 5 32.5C5 31.12 6.12 30 7.5 30C8.88 30 10 31.12 10 32.5ZM35 32.5C35 33.88 33.88 35 32.5 35C31.12 35 30 33.88 30 32.5C30 31.12 31.12 30 32.5 30C33.88 30 35 31.12 35 32.5ZM22.5 32.5C22.5 33.88 21.38 35 20 35C18.62 35 17.5 33.88 17.5 32.5C17.5 31.12 18.62 30 20 30C21.38 30 22.5 31.12 22.5 32.5Z" fill="#00A1D4"/>
</g>
<defs>
<clipPath id="clip0_496_68544">
<rect width="40" height="40" fill="white"/>
</clipPath>
</defs>
</svg>
