<svg width="40" height="40" viewBox="0 0 40 40" fill="none" xmlns="http://www.w3.org/2000/svg">
<g clip-path="url(#clip0_496_68586)">
<path d="M31.6667 20H27.31L28.21 12.7816C28.3673 12.0515 28.3599 11.2955 28.1884 10.5685C28.0168 9.84158 27.6856 9.16198 27.2185 8.57909C26.7515 7.99621 26.1605 7.52468 25.4885 7.19877C24.8165 6.87286 24.0803 6.70076 23.3334 6.69497H19.385C19.5667 5.40997 19.4567 3.34997 21.275 3.34163H26.6667C27.1087 3.34163 27.5327 3.16604 27.8452 2.85348C28.1578 2.54092 28.3334 2.117 28.3334 1.67497C28.3334 1.23294 28.1578 0.809017 27.8452 0.496456C27.5327 0.183896 27.1087 0.00830078 26.6667 0.00830078H21.275C20.0569 0.00905066 18.8809 0.454496 17.9679 1.26099C17.0549 2.06748 16.4678 3.17953 16.3167 4.3883L16.0284 6.69497H5.00005C4.26804 6.70282 3.54656 6.87019 2.88586 7.18543C2.22517 7.50066 1.64116 7.95617 1.17453 8.52022C0.707908 9.08426 0.369887 9.74328 0.184027 10.4513C-0.0018331 11.1594 -0.0310614 11.8995 0.0983787 12.62L2.62005 32.7166C2.87503 34.7295 3.85492 36.5805 5.37626 37.923C6.89759 39.2654 8.85607 40.0074 10.885 40.01L31.6667 39.99C32.7611 39.99 33.8447 39.7744 34.8557 39.3556C35.8668 38.9368 36.7854 38.323 37.5593 37.5492C38.3331 36.7754 38.9469 35.8567 39.3657 34.8457C39.7845 33.8346 40 32.751 40 31.6566V28.3333C40 27.239 39.7845 26.1553 39.3657 25.1443C38.9469 24.1332 38.3331 23.2146 37.5593 22.4407C36.7854 21.6669 35.8668 21.0531 34.8557 20.6343C33.8447 20.2155 32.7611 20 31.6667 20ZM36.6667 28.3333H16.6667C16.6667 27.0072 17.1935 25.7354 18.1312 24.7978C19.0689 23.8601 20.3406 23.3333 21.6667 23.3333H31.6667C32.9928 23.3333 34.2646 23.8601 35.2022 24.7978C36.1399 25.7354 36.6667 27.0072 36.6667 28.3333ZM23.3334 10.0266C23.5967 10.0281 23.856 10.0912 24.0905 10.2109C24.325 10.3306 24.5282 10.5037 24.6838 10.7161C24.8393 10.9285 24.9429 11.1745 24.9863 11.4342C25.0296 11.6939 25.0115 11.9602 24.9334 12.2116L24.7884 13.3333H18.555L18.9684 10.0233L23.3334 10.0266ZM3.70671 10.65C3.86221 10.4563 4.05905 10.2997 4.28282 10.1919C4.50659 10.0841 4.75164 10.0276 5.00005 10.0266H15.6117L15.1967 13.3333H3.54005L3.37338 12.05C3.31996 11.8066 3.32219 11.5543 3.37991 11.3118C3.43762 11.0694 3.54934 10.8432 3.70671 10.65ZM5.92671 32.3033L3.96005 16.6666H24.3717L23.9534 20H21.6667C19.4566 20 17.337 20.8779 15.7742 22.4407C14.2114 24.0035 13.3334 26.1232 13.3334 28.3333C13.2634 31.0566 13.1667 34.5666 15.06 36.6833H10.885C9.66687 36.6826 8.49087 36.2371 7.57789 35.4306C6.66491 34.6241 6.07777 33.5121 5.92671 32.3033ZM31.6667 36.6666H21.6667C20.3406 36.6666 19.0689 36.1399 18.1312 35.2022C17.1935 34.2645 16.6667 32.9927 16.6667 31.6666H22.8334C23.4784 31.9766 27.625 35.185 28.3334 35C29.0267 35.1966 33.2167 31.9616 33.8334 31.6666H36.6667C36.6667 32.9927 36.1399 34.2645 35.2022 35.2022C34.2646 36.1399 32.9928 36.6666 31.6667 36.6666Z" fill="#00A1D4"/>
</g>
<defs>
<clipPath id="clip0_496_68586">
<rect width="40" height="40" fill="white"/>
</clipPath>
</defs>
</svg>
