<svg width="40" height="40" viewBox="0 0 40 40" fill="none" xmlns="http://www.w3.org/2000/svg">
<g clip-path="url(#clip0_496_55612)">
<path d="M20 8.33333C20.9217 8.33333 21.6667 9.07833 21.6667 10V19.7933C21.6667 20.375 21.365 20.9117 20.8683 21.2167L13.5217 25.71C13.2517 25.8767 12.95 25.9533 12.6533 25.9533C12.0917 25.9533 11.545 25.67 11.23 25.155C10.75 24.37 10.9967 23.345 11.7833 22.8633L18.3333 18.8583V10C18.3333 9.07833 19.0783 8.33333 20 8.33333ZM36.6667 21.6667H30C29.0783 21.6667 28.3333 22.4117 28.3333 23.3333C28.3333 24.255 29.0783 25 30 25H34.28L27.065 32.2133C26.7433 32.535 26.175 32.5367 25.85 32.2133L24.01 30.3733C22.425 28.785 19.6633 28.785 18.0733 30.3733L11.3183 37.1567C10.6683 37.81 10.6717 38.865 11.3233 39.515C11.6483 39.8383 12.075 40 12.5 40C12.9283 40 13.3567 39.835 13.6817 39.51L20.435 32.7267C20.7567 32.405 21.325 32.4033 21.65 32.7267L23.49 34.5667C25.075 36.155 27.84 36.1533 29.4233 34.5667L36.6667 27.325V31.665C36.6667 32.5867 37.4117 33.3317 38.3333 33.3317C39.255 33.3317 40 32.5867 40 31.665V24.9983C40 23.16 38.505 21.665 36.6667 21.665V21.6667ZM3.33333 20C3.33333 10.81 10.81 3.33333 20 3.33333C28.0467 3.33333 34.94 9.06667 36.3917 16.9683C36.56 17.8733 37.4183 18.4833 38.3317 18.3067C39.2367 18.14 39.835 17.2717 39.67 16.3667C37.9283 6.88333 29.655 0 20 0C8.97167 0 0 8.97167 0 20C0 25.5267 2.32 30.86 6.36333 34.63C6.68333 34.93 7.09333 35.0783 7.5 35.0783C7.94667 35.0783 8.39 34.9017 8.71833 34.5483C9.34667 33.8767 9.30833 32.8217 8.635 32.1933C5.26667 29.05 3.33167 24.6067 3.33167 20.0017L3.33333 20Z" fill="#00A1D4"/>
</g>
<defs>
<clipPath id="clip0_496_55612">
<rect width="40" height="40" fill="white"/>
</clipPath>
</defs>
</svg>
