<svg width="40" height="40" viewBox="0 0 40 40" fill="none" xmlns="http://www.w3.org/2000/svg">
<g clip-path="url(#clip0_496_68536)">
<path d="M35.0002 16.6666H29.4886L22.4102 2.60494C21.98 1.81643 21.3452 1.15839 20.5727 0.699998C19.8002 0.241601 18.9185 -0.000223115 18.0202 -5.68547e-05H17.7169C17.0367 -0.000996215 16.3656 0.156383 15.7567 0.459627C15.1478 0.762871 14.6179 1.20366 14.2088 1.74711C13.7997 2.29056 13.5227 2.92176 13.3998 3.59076C13.2768 4.25976 13.3112 4.9482 13.5002 5.60161L16.7136 16.6666H12.7402C12.0832 16.6683 11.4323 16.5397 10.8252 16.2883C10.2181 16.0368 9.66697 15.6675 9.20357 15.2016L6.84191 12.8333C6.23827 12.2303 5.45823 11.8352 4.61493 11.7055C3.77162 11.5757 2.9089 11.718 2.15191 12.1116C1.6835 12.3533 1.26948 12.6882 0.935279 13.0958C0.601083 13.5033 0.353779 13.9749 0.208572 14.4816C0.0479746 15.0252 -0.0011484 15.5957 0.0641505 16.1587C0.129449 16.7218 0.307824 17.2659 0.588572 17.7583L3.27857 22.4666C4.00884 23.7409 5.06219 24.8002 6.33242 25.5376C7.60264 26.275 9.04483 26.6644 10.5136 26.6666H16.6986L13.9186 34.0783C13.6697 34.7412 13.5852 35.4546 13.6723 36.1573C13.7594 36.86 14.0155 37.5311 14.4187 38.1132C14.8219 38.6953 15.3602 39.171 15.9874 39.4996C16.6146 39.8282 17.3121 39.9999 18.0202 39.9999C18.903 40.0046 19.7709 39.7733 20.5342 39.33C21.2976 38.8866 21.9286 38.2473 22.3619 37.4783L29.1069 26.6666H35.0002C36.3263 26.6666 37.5981 26.1398 38.5358 25.2021C39.4735 24.2645 40.0002 22.9927 40.0002 21.6666C40.0002 20.3405 39.4735 19.0688 38.5358 18.1311C37.5981 17.1934 36.3263 16.6666 35.0002 16.6666ZM16.7086 4.67494C16.6634 4.51858 16.6551 4.35384 16.6845 4.19374C16.7139 4.03364 16.7801 3.88256 16.8779 3.75244C16.9757 3.62232 17.1024 3.51672 17.248 3.44397C17.3936 3.37123 17.5541 3.33333 17.7169 3.33328H18.0202C18.3108 3.33078 18.5969 3.40515 18.8495 3.54887C19.1021 3.69258 19.3122 3.90052 19.4586 4.15161L25.7586 16.6666H20.1836L16.7086 4.67494ZM35.0002 23.3333H28.1819C27.8991 23.3335 27.6209 23.4056 27.3737 23.5429C27.1264 23.6803 26.9182 23.8783 26.7686 24.1183L19.4836 35.7983C19.3401 36.0611 19.1286 36.2805 18.8711 36.4333C18.6136 36.5861 18.3197 36.6667 18.0202 36.6666C17.8508 36.6668 17.6839 36.6258 17.5338 36.5472C17.3837 36.4686 17.2549 36.3547 17.1585 36.2154C17.0622 36.0761 17.001 35.9154 16.9804 35.7472C16.9598 35.5791 16.9803 35.4084 17.0402 35.2499L20.6636 25.5833C20.7578 25.3311 20.7895 25.0599 20.7561 24.7928C20.7226 24.5258 20.625 24.2708 20.4715 24.0496C20.318 23.8285 20.1133 23.6478 19.8748 23.5231C19.6363 23.3983 19.3711 23.3332 19.1019 23.3333H10.5136C9.63338 23.3318 8.76917 23.098 8.00829 22.6556C7.24741 22.2131 6.61681 21.5776 6.18024 20.8133L3.48191 16.1033C3.42544 16.0028 3.38944 15.8922 3.37599 15.7778C3.36255 15.6634 3.37192 15.5474 3.40357 15.4366C3.42027 15.3628 3.45236 15.2933 3.49773 15.2327C3.54311 15.1721 3.60075 15.1218 3.66691 15.0849C3.76964 15.0304 3.88393 15.0013 4.00024 14.9999C4.17912 15.0012 4.35056 15.0717 4.47857 15.1966L6.84024 17.5583C7.61333 18.3352 8.53287 18.9511 9.54562 19.3702C10.5584 19.7893 11.6442 20.0034 12.7402 19.9999H35.0002C35.4423 19.9999 35.8662 20.1755 36.1788 20.4881C36.4913 20.8007 36.6669 21.2246 36.6669 21.6666C36.6669 22.1086 36.4913 22.5326 36.1788 22.8451C35.8662 23.1577 35.4423 23.3333 35.0002 23.3333Z" fill="#00A1D4"/>
</g>
<defs>
<clipPath id="clip0_496_68536">
<rect width="40" height="40" fill="white"/>
</clipPath>
</defs>
</svg>
