<svg width="40" height="40" viewBox="0 0 40 40" fill="none" xmlns="http://www.w3.org/2000/svg">
<g clip-path="url(#clip0_496_68568)">
<path d="M39.8315 27.0533L38.3949 21.6267C37.6215 18.705 34.9699 16.665 31.9499 16.665H8.04987C5.02821 16.665 2.37821 18.705 1.60487 21.6267L0.168208 27.0533C-0.231792 28.565 0.0848746 30.1433 1.03987 31.3833C1.99321 32.6217 3.43654 33.3333 5.00154 33.3333H18.3332V36.6667H11.6665C10.7465 36.6667 9.99987 37.4117 9.99987 38.3333C9.99987 39.255 10.7465 40 11.6665 40H28.3332C29.2549 40 29.9999 39.255 29.9999 38.3333C29.9999 37.4117 29.2549 36.6667 28.3332 36.6667H21.6665V33.3333H34.9982C36.5615 33.3333 38.0065 32.6217 38.9615 31.3833C39.9149 30.1433 40.2332 28.5667 39.8315 27.0533ZM35.1715 22.48L35.3965 23.3333H27.7999L27.5615 20H31.9482C33.4582 20 34.7832 21.02 35.1715 22.48ZM15.0632 30L15.3015 26.6667H24.6982L24.9365 30H15.0632ZM15.5399 23.3333L15.7782 20H24.2232L24.4615 23.3333H15.5399ZM8.04821 20H12.4349L12.1965 23.3333H4.60154L4.82654 22.48C5.21154 21.02 6.53821 20 8.04821 20ZM3.67987 29.35C3.36154 28.9367 3.25654 28.4117 3.38987 27.9067L3.71821 26.6667H11.9582L11.7199 30H5.00154C4.48154 30 3.99821 29.7617 3.68154 29.35H3.67987ZM36.3182 29.35C35.9999 29.7633 35.5182 30.0017 34.9965 30.0017H28.2749L28.0365 26.6683H36.2782L36.6065 27.9083C36.7399 28.4133 36.6365 28.9383 36.3182 29.35ZM6.66654 11.6667C6.66654 10.745 7.41321 10 8.33321 10H11.8349C12.1482 8.46167 12.9015 7.09167 13.9365 5.98667L11.6849 2.58667C11.1765 1.82 11.3865 0.786668 12.1532 0.276668C12.9182 -0.231665 13.9532 -0.0233317 14.4632 0.746668L16.6599 4.06333C17.6865 3.61 18.8082 3.33333 19.9999 3.33333C21.1915 3.33333 22.3149 3.61 23.3432 4.065L25.5565 0.743335C26.0665 -0.021665 27.0982 -0.228332 27.8682 0.281668C28.6332 0.791668 28.8415 1.82667 28.3299 2.59333L26.0649 5.99167C27.0982 7.095 27.8515 8.465 28.1649 10.0017H31.6665C32.5882 10.0017 33.3332 10.7467 33.3332 11.6683C33.3332 12.59 32.5882 13.335 31.6665 13.335H26.6665C25.7449 13.335 24.9999 12.59 24.9999 11.6683C24.9999 8.91167 22.7565 6.66833 19.9999 6.66833C17.2432 6.66833 14.9999 8.91167 14.9999 11.6683C14.9999 12.59 14.2532 13.335 13.3332 13.335H8.33321C7.41321 13.335 6.66654 12.5883 6.66654 11.6667Z" fill="#00A1D4"/>
</g>
<defs>
<clipPath id="clip0_496_68568">
<rect width="40" height="40" fill="white"/>
</clipPath>
</defs>
</svg>
