<svg width="40" height="40" viewBox="0 0 40 40" fill="none" xmlns="http://www.w3.org/2000/svg">
<g clip-path="url(#clip0_496_30501)">
<path d="M25.1733 8.85167C26.1483 7.87667 26.1483 6.29167 25.1733 5.31667L21.7683 1.91167C20.7933 0.93667 19.2083 0.93667 18.2333 1.91167L14.8283 5.31667C13.8533 6.29167 13.8533 7.87667 14.8283 8.85167C14.8283 8.85167 18.3 12.3217 18.335 12.3517V15.66C15.9283 16.3783 14.1683 18.6133 14.1683 21.25C14.1683 23.8867 15.9283 26.1217 18.335 26.84V30C16.4967 30 15.0017 31.495 15.0017 33.3333V36.6667C15.0017 38.505 16.4967 40 18.335 40H21.6683C23.5067 40 25.0017 38.505 25.0017 36.6667V33.3333C25.0017 31.495 23.5067 30 21.6683 30V26.84C24.075 26.1217 25.835 23.8867 25.835 21.25C25.835 18.6133 24.075 16.3783 21.6683 15.66V12.3517C21.7033 12.3217 25.1733 8.85167 25.1733 8.85167ZM21.6667 36.6667H18.3333V33.3333H21.6667V36.6667ZM17.7733 7.08334L20 4.85667L22.2267 7.08334L20 9.31L17.7733 7.08334ZM22.5 21.25C22.5 22.6283 21.3783 23.75 20 23.75C18.6217 23.75 17.5 22.6283 17.5 21.25C17.5 19.8717 18.6217 18.75 20 18.75C21.3783 18.75 22.5 19.8717 22.5 21.25ZM40 10.8333V15.8333C40 19.05 37.3833 21.6667 34.1667 21.6667H31.6667L32.9883 22.9883C33.64 23.64 33.64 24.6933 32.9883 25.345C32.6633 25.67 32.2367 25.8333 31.81 25.8333C31.3833 25.8333 30.9567 25.67 30.6317 25.345L27.6433 22.3567C26.3433 21.0567 26.3433 18.9433 27.6433 17.6433L30.6317 14.655C31.2833 14.0033 32.3367 14.0033 32.9883 14.655C33.64 15.3067 33.64 16.36 32.9883 17.0117L31.6667 18.3333H34.1667C35.545 18.3333 36.6667 17.2117 36.6667 15.8333V10.8333C36.6667 9.455 35.545 8.33334 34.1667 8.33334H30C29.08 8.33334 28.3333 7.58667 28.3333 6.66667C28.3333 5.74667 29.08 5 30 5H34.1667C37.3833 5 40 7.61667 40 10.8333ZM12.3567 30.9767C13.6567 32.275 13.6567 34.3917 12.3567 35.69L9.36833 38.6783C9.04333 39.0033 8.61667 39.1667 8.19 39.1667C7.76333 39.1667 7.33667 39.0033 7.01167 38.6783C6.36 38.0267 6.36 36.9733 7.01167 36.3217L8.33333 35H5.83333C2.61667 35 0 32.3833 0 29.1667V24.1667C0 20.95 2.61667 18.3333 5.83333 18.3333H10C10.92 18.3333 11.6667 19.08 11.6667 20C11.6667 20.92 10.92 21.6667 10 21.6667H5.83333C4.455 21.6667 3.33333 22.7883 3.33333 24.1667V29.1667C3.33333 30.545 4.455 31.6667 5.83333 31.6667H8.33333L7.01167 30.345C6.36 29.6933 6.36 28.64 7.01167 27.9883C7.66333 27.3367 8.71667 27.3367 9.36833 27.9883L12.3567 30.9767Z" fill="#00A1D4"/>
</g>
<defs>
<clipPath id="clip0_496_30501">
<rect width="40" height="40" fill="white"/>
</clipPath>
</defs>
</svg>
