<svg width="40" height="40" viewBox="0 0 40 40" fill="none" xmlns="http://www.w3.org/2000/svg">
<g clip-path="url(#clip0_496_30499)">
<path d="M40 8.33333C40 4.65667 37.01 1.66667 33.3333 1.66667C29.6567 1.66667 26.6667 4.65667 26.6667 8.33333C26.6667 11.4333 28.795 14.0467 31.6667 14.7883V25C31.6667 27.7567 29.4233 30 26.6667 30H21.0517L24.7233 26.3283C25.375 25.6767 25.375 24.6233 24.7233 23.9717C24.0717 23.32 23.0183 23.32 22.3667 23.9717L18.1317 28.2067C17.2167 29.12 16.6667 30 16.6667 31.6667C16.6667 33.3333 17.1617 34.3083 18.1317 35.2783L22.3667 39.5133C22.6917 39.8383 23.1183 40.0017 23.545 40.0017C23.9717 40.0017 24.3983 39.8383 24.7233 39.5133C25.375 38.8617 25.375 37.8083 24.7233 37.1567L20.9017 33.335H26.6667C31.2617 33.335 35 29.5967 35 25.0017V14.79C37.8717 14.0483 40 11.4333 40 8.33333ZM33.3333 11.6667C31.495 11.6667 30 10.1717 30 8.33333C30 6.495 31.495 5 33.3333 5C35.1717 5 36.6667 6.495 36.6667 8.33333C36.6667 10.1717 35.1717 11.6667 33.3333 11.6667ZM22.0067 11.87C22.9517 10.925 23.4717 9.67 23.4717 8.33333C23.4717 6.99667 22.9517 5.74167 22.0067 4.79833L17.7717 0.563335C17.12 -0.0883317 16.0667 -0.0883317 15.415 0.563335C14.7633 1.215 14.7633 2.26833 15.415 2.92L19.16 6.66667H13.3333C8.73833 6.66667 5 10.405 5 15V25.2117C2.12833 25.9533 0 28.5667 0 31.6667C0 35.3433 2.99 38.3333 6.66667 38.3333C10.3433 38.3333 13.3333 35.3433 13.3333 31.6667C13.3333 28.5667 11.205 25.9533 8.33333 25.2117V15C8.33333 12.2433 10.5767 10 13.3333 10H19.1617L15.415 13.7467C14.7633 14.3983 14.7633 15.4517 15.415 16.1033C15.74 16.4283 16.1667 16.5917 16.5933 16.5917C17.02 16.5917 17.4467 16.4283 17.7717 16.1033L22.0067 11.87ZM10 31.6667C10 33.505 8.505 35 6.66667 35C4.82833 35 3.33333 33.505 3.33333 31.6667C3.33333 29.8283 4.82833 28.3333 6.66667 28.3333C8.505 28.3333 10 29.8283 10 31.6667Z" fill="#00A1D4"/>
</g>
<defs>
<clipPath id="clip0_496_30499">
<rect width="40" height="40" fill="white"/>
</clipPath>
</defs>
</svg>
