<svg width="40" height="40" viewBox="0 0 40 40" fill="none" xmlns="http://www.w3.org/2000/svg">
<g clip-path="url(#clip0_496_30503)">
<path d="M10 1.66667C10 0.745 10.7467 0 11.6667 0H28.3333C29.2533 0 30 0.745 30 1.66667C30 2.58833 29.2533 3.33333 28.3333 3.33333H11.6667C10.7467 3.33333 10 2.58833 10 1.66667ZM6.66667 11.6667H33.3333C34.2533 11.6667 35 10.9217 35 10C35 9.07833 34.2533 8.33333 33.3333 8.33333H6.66667C5.74667 8.33333 5 9.07833 5 10C5 10.9217 5.74667 11.6667 6.66667 11.6667ZM32.5 26.6667H30V24.1667C30 23.245 29.2533 22.5 28.3333 22.5C27.4133 22.5 26.6667 23.245 26.6667 24.1667V26.6667H24.1667C23.2467 26.6667 22.5 27.4117 22.5 28.3333C22.5 29.255 23.2467 30 24.1667 30H26.6667V32.5C26.6667 33.4217 27.4133 34.1667 28.3333 34.1667C29.2533 34.1667 30 33.4217 30 32.5V30H32.5C33.42 30 34.1667 29.255 34.1667 28.3333C34.1667 27.4117 33.42 26.6667 32.5 26.6667ZM40 28.3333C40 34.765 34.7667 40 28.3333 40C21.9 40 16.6667 34.765 16.6667 28.3333C16.6667 21.9017 21.9 16.6667 28.3333 16.6667C34.7667 16.6667 40 21.9017 40 28.3333ZM36.6667 28.3333C36.6667 23.7383 32.9283 20 28.3333 20C23.7383 20 20 23.7383 20 28.3333C20 32.9283 23.7383 36.6667 28.3333 36.6667C32.9283 36.6667 36.6667 32.9283 36.6667 28.3333ZM15 36.6667H8.33333C5.57667 36.6667 3.33333 34.4233 3.33333 31.6667V25C3.33333 22.2433 5.57667 20 8.33333 20H15C15.92 20 16.6667 19.255 16.6667 18.3333C16.6667 17.4117 15.92 16.6667 15 16.6667H8.33333C3.73833 16.6667 0 20.405 0 25V31.6667C0 36.2617 3.73833 40 8.33333 40H15C15.92 40 16.6667 39.255 16.6667 38.3333C16.6667 37.4117 15.92 36.6667 15 36.6667Z" fill="#00A1D4"/>
</g>
<defs>
<clipPath id="clip0_496_30503">
<rect width="40" height="40" fill="white"/>
</clipPath>
</defs>
</svg>
