<svg width="40" height="40" viewBox="0 0 40 40" fill="none" xmlns="http://www.w3.org/2000/svg">
<g clip-path="url(#clip0_496_30505)">
<path d="M13.3333 18.3333C13.3333 19.7133 12.2133 20.8333 10.8333 20.8333C9.45333 20.8333 8.33333 19.7133 8.33333 18.3333C8.33333 16.9533 9.45333 15.8333 10.8333 15.8333C12.2133 15.8333 13.3333 16.9533 13.3333 18.3333ZM10.8333 7.5C9.45333 7.5 8.33333 8.62 8.33333 10C8.33333 11.38 9.45333 12.5 10.8333 12.5C12.2133 12.5 13.3333 11.38 13.3333 10C13.3333 8.62 12.2133 7.5 10.8333 7.5ZM10.8333 24.1667C9.45333 24.1667 8.33333 25.2867 8.33333 26.6667C8.33333 28.0467 9.45333 29.1667 10.8333 29.1667C12.2133 29.1667 13.3333 28.0467 13.3333 26.6667C13.3333 25.2867 12.2133 24.1667 10.8333 24.1667ZM35 0H5C2.24333 0 0 2.24333 0 5V38.3333H17.2017C16.015 37.02 15.2483 35.77 14.8333 35H3.33333V5C3.33333 4.08167 4.08167 3.33333 5 3.33333H35C35.9183 3.33333 36.6667 4.08167 36.6667 5V24.2183C38.0517 25.1717 39.1583 26.265 40 27.2883V5C40 2.24333 37.7567 0 35 0ZM31.6667 8.33333H16.6667V11.6667H31.6667V8.33333ZM16.6667 20H31.6667V16.6667H16.6667V20ZM38.9783 31.7317L39.3783 32.5L38.9783 33.2683C38.1583 34.8467 34.9667 40 28.3333 40C21.7 40 18.5067 34.8467 17.6867 33.2683L17.2883 32.5L17.6867 31.7333C18.505 30.1533 21.6917 25 28.3333 25C34.975 25 38.16 30.1533 38.9783 31.7317ZM35.5767 32.5C34.5217 30.8417 32.275 28.3333 28.3317 28.3333C24.3883 28.3333 22.14 30.8417 21.0867 32.5C22.14 34.1583 24.3867 36.6667 28.3317 36.6667C32.2767 36.6667 34.5217 34.1583 35.5767 32.5ZM28.3317 30C26.9517 30 25.8317 31.12 25.8317 32.5C25.8317 33.88 26.9517 35 28.3317 35C29.7117 35 30.8317 33.88 30.8317 32.5C30.8317 31.12 29.7117 30 28.3317 30Z" fill="#00A1D4"/>
</g>
<defs>
<clipPath id="clip0_496_30505">
<rect width="40" height="40" fill="white"/>
</clipPath>
</defs>
</svg>
