<svg width="40" height="40" viewBox="0 0 40 40" fill="none" xmlns="http://www.w3.org/2000/svg">
<g clip-path="url(#clip0_496_30507)">
<path d="M15 40H1.66667C1.22464 40 0.800716 39.8244 0.488155 39.5118C0.175595 39.1992 0 38.7753 0 38.3333C0 37.8913 0.175595 37.4673 0.488155 37.1548C0.800716 36.8422 1.22464 36.6666 1.66667 36.6666H15C15.442 36.6666 15.866 36.8422 16.1785 37.1548C16.4911 37.4673 16.6667 37.8913 16.6667 38.3333C16.6667 38.7753 16.4911 39.1992 16.1785 39.5118C15.866 39.8244 15.442 40 15 40Z" fill="#00A1D4"/>
<path d="M11.6667 33.3333H1.66667C1.22464 33.3333 0.800716 33.1577 0.488155 32.8452C0.175595 32.5326 0 32.1087 0 31.6667C0 31.2246 0.175595 30.8007 0.488155 30.4882C0.800716 30.1756 1.22464 30 1.66667 30H11.6667C12.1087 30 12.5326 30.1756 12.8452 30.4882C13.1577 30.8007 13.3333 31.2246 13.3333 31.6667C13.3333 32.1087 13.1577 32.5326 12.8452 32.8452C12.5326 33.1577 12.1087 33.3333 11.6667 33.3333Z" fill="#00A1D4"/>
<path d="M8.33333 26.6667H1.66667C1.22464 26.6667 0.800716 26.4911 0.488155 26.1786C0.175595 25.866 0 25.4421 0 25C0 24.558 0.175595 24.1341 0.488155 23.8215C0.800716 23.509 1.22464 23.3334 1.66667 23.3334H8.33333C8.77536 23.3334 9.19928 23.509 9.51184 23.8215C9.8244 24.1341 10 24.558 10 25C10 25.4421 9.8244 25.866 9.51184 26.1786C9.19928 26.4911 8.77536 26.6667 8.33333 26.6667Z" fill="#00A1D4"/>
<path d="M21.666 39.9249C21.224 39.9446 20.7922 39.7879 20.4658 39.4892C20.1393 39.1906 19.9448 38.7745 19.9252 38.3324C19.9055 37.8904 20.0622 37.4587 20.3609 37.1322C20.6595 36.8057 21.0756 36.6113 21.5177 36.5916C24.6718 36.303 27.6783 35.1217 30.1852 33.1859C32.6921 31.2502 34.5955 28.6402 35.6725 25.6616C36.7495 22.6831 36.9555 19.4594 36.2664 16.368C35.5773 13.2766 34.0215 10.4455 31.7814 8.20645C29.5413 5.96737 26.7096 4.41294 23.6178 3.72523C20.5261 3.03752 17.3025 3.245 14.3244 4.32338C11.3464 5.40176 8.73729 7.30638 6.80269 9.81416C4.8681 12.3219 3.68813 15.329 3.40099 18.4833C3.3612 18.9235 3.14816 19.33 2.80872 19.6131C2.46928 19.8963 2.03125 20.0331 1.59099 19.9933C1.15073 19.9535 0.744303 19.7404 0.461123 19.401C0.177943 19.0616 0.0412042 18.6235 0.0809867 18.1833C0.545802 13.0555 2.97033 8.30445 6.84987 4.91922C10.7294 1.534 15.7651 -0.224612 20.9086 0.00946712C26.0521 0.243547 30.9072 2.45228 34.4632 6.17589C38.0192 9.89951 40.0022 14.8511 39.9993 19.9999C40.0249 24.9972 38.1684 29.8209 34.7991 33.5116C31.4299 37.2023 26.7949 39.4895 21.816 39.9183C21.766 39.9233 21.7143 39.9249 21.666 39.9249Z" fill="#00A1D4"/>
<path d="M20.0007 10C19.5586 10 19.1347 10.1756 18.8221 10.4882C18.5096 10.8007 18.334 11.2246 18.334 11.6667V20C18.3341 20.442 18.5097 20.8658 18.8223 21.1783L23.8223 26.1783C24.1367 26.4819 24.5577 26.6499 24.9947 26.6461C25.4316 26.6423 25.8497 26.467 26.1587 26.158C26.4677 25.849 26.643 25.431 26.6468 24.994C26.6506 24.557 26.4826 24.136 26.179 23.8217L21.6673 19.31V11.6667C21.6673 11.2246 21.4917 10.8007 21.1792 10.4882C20.8666 10.1756 20.4427 10 20.0007 10Z" fill="#00A1D4"/>
</g>
<defs>
<clipPath id="clip0_496_30507">
<rect width="40" height="40" fill="white"/>
</clipPath>
</defs>
</svg>
