<svg width="460" height="360" viewBox="0 0 460 360" fill="none" xmlns="http://www.w3.org/2000/svg">
<path d="M391.611 290.637L262.531 216.022L263.46 214.381L392.595 289.05L391.611 290.637Z" fill="#E5ECF8"/>
<path d="M121.542 289.542L120.613 287.901L168.848 260.003L150.439 249.39L220.633 208.801L221.561 210.442L154.208 249.39L172.617 260.003L121.542 289.542Z" fill="#E5ECF8"/>
<path d="M277.935 191.569L277.006 189.928L336.493 155.52L283.834 125.051L382.979 67.7769L383.908 69.3632L287.603 125.051L340.262 155.52L277.935 191.569Z" fill="#E5ECF8"/>
<path d="M200.64 176.581L124.765 132.709L75.274 161.373L74.7824 161.1L0 117.83L83.0308 69.8555L84.0141 71.4418L3.76916 117.83L75.274 159.185L124.765 130.521L125.256 130.794L201.568 174.94L200.64 176.581Z" fill="#E5ECF8"/>
<g style="mix-blend-mode:multiply" opacity="0.5">
<path d="M78.3322 51.9126L0.818481 96.7689L33.4846 115.641L67.6255 95.8937L81.3366 103.771H83.1938L78.3322 51.9126Z" fill="#25856B"/>
</g>
<g style="mix-blend-mode:multiply" opacity="0.5">
<path d="M88.1099 112.961L73.0879 121.714L88.4377 130.576H90.5134L88.1099 112.961Z" fill="#25856B"/>
</g>
<g style="mix-blend-mode:multiply" opacity="0.5">
<path d="M136.565 90.9158L130.447 94.4715L139.679 101.747L146.453 103.388L136.565 90.9158Z" fill="#25856B"/>
</g>
<path d="M83.1961 103.771L70.0859 96.2217V94.2524L83.1961 101.856V103.771Z" fill="#94A0B4"/>
<path d="M109.361 88.6726L83.1953 103.771V101.856L109.361 86.7581V88.6726Z" fill="#BBC2CD"/>
<path d="M83.1961 101.856L70.0859 94.2528L96.197 79.1548L109.362 86.7585L83.1961 101.856Z" fill="#E5ECF8"/>
<path d="M90.5137 130.575L75 121.604V119.689L90.5137 128.66V130.575Z" fill="#94A0B4"/>
<path d="M133.666 105.631L90.5117 130.575V128.661L133.666 103.716V105.631Z" fill="#BBC2CD"/>
<path d="M90.5137 128.66L75 119.689L118.1 94.7444L133.668 103.716L90.5137 128.66Z" fill="#E5ECF8"/>
<path d="M146.451 103.389L130.938 94.4173V93.9797L142.791 99.3406L146.451 103.389Z" fill="#94A0B4"/>
<path d="M154.643 98.6291L146.449 103.388L142.789 99.3402L150.983 94.5811L154.643 98.6291Z" fill="#BBC2CD"/>
<path d="M142.791 99.3407L130.938 93.9799L139.131 89.2207L150.985 94.5816L142.791 99.3407Z" fill="#E5ECF8"/>
<path d="M82.6493 92.9943L80.0272 91.5173V55.1399L82.6493 56.6169V92.9943Z" fill="#94A0B4"/>
<path d="M94.2856 86.2663L82.6504 92.9948V56.6174L94.2856 49.8889V86.2663Z" fill="#BBC2CD"/>
<path d="M82.6493 56.6168L80.0272 55.1398L91.6625 48.3567L94.2845 49.8884L82.6493 56.6168Z" fill="#E5ECF8"/>
<path d="M51.6193 107.218L46.5938 104.264V46.6616L51.6193 49.5609V107.218Z" fill="#94A0B4"/>
<path d="M132.358 60.501L51.6211 107.217V49.5604L132.358 2.89893V60.501Z" fill="#2FDEA0"/>
<path d="M51.6193 49.5608L46.5938 46.6615L127.33 0L132.356 2.89924L51.6193 49.5608Z" fill="#E5ECF8"/>
<g style="mix-blend-mode:multiply" opacity="0.5">
<path d="M383.637 51.9126L306.123 96.7689L338.789 115.641L372.93 95.8937L386.641 103.771H388.498L383.637 51.9126Z" fill="#25856B"/>
</g>
<g style="mix-blend-mode:multiply" opacity="0.5">
<path d="M393.467 112.961L378.391 121.714L393.795 130.576H395.871L393.467 112.961Z" fill="#25856B"/>
</g>
<g style="mix-blend-mode:multiply" opacity="0.5">
<path d="M441.866 90.9158L435.748 94.4715L444.98 101.747L451.808 103.388L441.866 90.9158Z" fill="#25856B"/>
</g>
<path d="M388.497 103.771L375.387 96.2217V94.2524L388.497 101.856V103.771Z" fill="#94A0B4"/>
<path d="M414.664 88.6726L388.498 103.771V101.856L414.664 86.7581V88.6726Z" fill="#BBC2CD"/>
<path d="M388.497 101.856L375.387 94.2528L401.552 79.1548L414.663 86.7585L388.497 101.856Z" fill="#E5ECF8"/>
<path d="M395.875 130.575L380.307 121.604V119.689L395.875 128.66V130.575Z" fill="#94A0B4"/>
<path d="M438.971 105.631L395.871 130.575V128.661L438.971 103.716V105.631Z" fill="#BBC2CD"/>
<path d="M395.875 128.66L380.307 119.689L423.461 94.7444L438.974 103.716L395.875 128.66Z" fill="#E5ECF8"/>
<path d="M451.807 103.389L436.238 94.4173V93.9797L448.092 99.3406L451.807 103.389Z" fill="#94A0B4"/>
<path d="M459.998 98.6291L451.804 103.388L448.09 99.3402L456.284 94.5811L459.998 98.6291Z" fill="#BBC2CD"/>
<path d="M448.092 99.3407L436.238 93.9799L444.432 89.2207L456.286 94.5816L448.092 99.3407Z" fill="#E5ECF8"/>
<path d="M387.952 92.9943L385.33 91.5173V55.1399L387.952 56.6169V92.9943Z" fill="#94A0B4"/>
<path d="M399.586 86.2663L387.951 92.9948V56.6174L399.586 49.8889V86.2663Z" fill="#BBC2CD"/>
<path d="M387.952 56.6168L385.33 55.1398L396.966 48.3567L399.588 49.8884L387.952 56.6168Z" fill="#E5ECF8"/>
<path d="M356.924 107.218L351.898 104.264V46.6616L356.924 49.5609V107.218Z" fill="#94A0B4"/>
<path d="M437.662 60.501L356.926 107.217V49.5604L437.662 2.89893V60.501Z" fill="#2FDEA0"/>
<path d="M356.924 49.5608L351.898 46.6615L432.635 0L437.661 2.89924L356.924 49.5608Z" fill="#E5ECF8"/>
<g style="mix-blend-mode:multiply" opacity="0.5">
<path d="M78.3322 281.337L0.818481 326.138L33.4846 345.065L67.6255 325.318L81.3366 333.195H83.1938L78.3322 281.337Z" fill="#25856B"/>
</g>
<g style="mix-blend-mode:multiply" opacity="0.5">
<path d="M88.1099 342.386L73.0879 351.138L88.4377 360H90.5134L88.1099 342.386Z" fill="#25856B"/>
</g>
<g style="mix-blend-mode:multiply" opacity="0.5">
<path d="M136.565 320.34L130.447 323.896L139.679 331.171L146.453 332.812L136.565 320.34Z" fill="#25856B"/>
</g>
<path d="M83.1961 333.195L70.0859 325.646V323.677L83.1961 331.281V333.195Z" fill="#94A0B4"/>
<path d="M109.361 318.097L83.1953 333.195V331.28L109.361 316.182V318.097Z" fill="#BBC2CD"/>
<path d="M83.1961 331.28L70.0859 323.677L96.197 308.579L109.362 316.182L83.1961 331.28Z" fill="#E5ECF8"/>
<path d="M90.5137 360L75 351.028V349.114L90.5137 358.085V360Z" fill="#94A0B4"/>
<path d="M133.666 335.055L90.5117 359.999V358.085L133.666 333.14V335.055Z" fill="#BBC2CD"/>
<path d="M90.5137 358.084L75 349.113L118.1 324.168L133.668 333.14L90.5137 358.084Z" fill="#E5ECF8"/>
<path d="M146.451 332.812L130.938 323.786V323.403L142.791 328.764L146.451 332.812Z" fill="#94A0B4"/>
<path d="M154.643 328.052L146.449 332.812L142.789 328.764L150.983 324.004L154.643 328.052Z" fill="#BBC2CD"/>
<path d="M142.791 328.764L130.938 323.403L139.131 318.644L150.985 324.005L142.791 328.764Z" fill="#E5ECF8"/>
<path d="M82.6493 322.418L80.0272 320.941V284.564L82.6493 286.041V322.418Z" fill="#94A0B4"/>
<path d="M94.2856 315.69L82.6504 322.418V286.041L94.2856 279.312V315.69Z" fill="#BBC2CD"/>
<path d="M82.6493 286.041L80.0272 284.564L91.6625 277.781L94.2845 279.312L82.6493 286.041Z" fill="#E5ECF8"/>
<path d="M51.6193 336.641L46.5938 333.687V276.085L51.6193 278.984V336.641Z" fill="#94A0B4"/>
<path d="M132.358 289.925L51.6211 336.642V278.985L132.358 232.323V289.925Z" fill="#2FDEA0"/>
<path d="M51.6193 278.984L46.5938 276.085L127.33 229.424L132.356 232.323L51.6193 278.984Z" fill="#E5ECF8"/>
<g style="mix-blend-mode:multiply" opacity="0.5">
<path d="M383.637 281.337L306.123 326.138L338.789 345.065L372.93 325.318L386.641 333.195H388.498L383.637 281.337Z" fill="#25856B"/>
</g>
<g style="mix-blend-mode:multiply" opacity="0.5">
<path d="M393.467 342.386L378.391 351.138L393.795 360H395.871L393.467 342.386Z" fill="#25856B"/>
</g>
<g style="mix-blend-mode:multiply" opacity="0.5">
<path d="M441.866 320.34L435.748 323.896L444.98 331.171L451.808 332.812L441.866 320.34Z" fill="#25856B"/>
</g>
<path d="M388.497 333.195L375.387 325.646V323.677L388.497 331.281V333.195Z" fill="#94A0B4"/>
<path d="M414.664 318.097L388.498 333.195V331.28L414.664 316.182V318.097Z" fill="#BBC2CD"/>
<path d="M388.497 331.28L375.387 323.677L401.552 308.579L414.663 316.182L388.497 331.28Z" fill="#E5ECF8"/>
<path d="M395.875 360L380.307 351.028V349.114L395.875 358.085V360Z" fill="#94A0B4"/>
<path d="M438.971 335.055L395.871 359.999V358.085L438.971 333.14V335.055Z" fill="#BBC2CD"/>
<path d="M395.875 358.084L380.307 349.113L423.461 324.168L438.974 333.14L395.875 358.084Z" fill="#E5ECF8"/>
<path d="M451.807 332.812L436.238 323.786V323.403L448.092 328.764L451.807 332.812Z" fill="#94A0B4"/>
<path d="M459.998 328.052L451.804 332.812L448.09 328.764L456.284 324.004L459.998 328.052Z" fill="#BBC2CD"/>
<path d="M448.092 328.764L436.238 323.403L444.432 318.644L456.286 324.005L448.092 328.764Z" fill="#E5ECF8"/>
<path d="M387.952 322.418L385.33 320.941V284.564L387.952 286.041V322.418Z" fill="#94A0B4"/>
<path d="M399.586 315.69L387.951 322.418V286.041L399.586 279.312V315.69Z" fill="#BBC2CD"/>
<path d="M387.952 286.041L385.33 284.564L396.966 277.781L399.588 279.312L387.952 286.041Z" fill="#E5ECF8"/>
<path d="M356.924 336.641L351.898 333.687V276.085L356.924 278.984V336.641Z" fill="#94A0B4"/>
<path d="M437.662 289.925L356.926 336.642V278.985L437.662 232.323V289.925Z" fill="#2FDEA0"/>
<path d="M356.924 278.984L351.898 276.085L432.635 229.424L437.661 232.323L356.924 278.984Z" fill="#E5ECF8"/>
<g style="mix-blend-mode:multiply" opacity="0.5">
<path d="M184.796 167.281L132.684 197.423C130.444 198.735 130.444 201.908 132.684 203.221L182.611 232.104C186.162 234.128 190.15 235.222 194.247 235.222H237.565L207.521 163.726H198.289C193.537 163.726 188.893 164.984 184.796 167.336V167.281Z" fill="#BCC3CE"/>
</g>
<path d="M182.174 148.08C182.174 149.503 183.102 150.87 184.96 151.964L230.954 178.714C234.669 180.847 240.678 180.847 244.447 178.714L293.61 150.268C295.467 149.174 296.45 147.752 296.45 146.33L296.286 201.142C296.286 202.564 295.358 203.987 293.446 205.081L244.283 233.526C240.568 235.66 234.505 235.66 230.79 233.526L184.796 206.776C182.938 205.682 182.01 204.315 182.01 202.893L182.174 148.08Z" fill="url(#paint0_linear_496_30061)"/>
<path d="M184.958 144.142L234.121 115.696C237.835 113.563 243.899 113.563 247.613 115.696L293.608 142.446C297.323 144.58 297.323 148.081 293.608 150.269L244.445 178.714C240.73 180.848 234.667 180.848 230.952 178.714L184.958 151.964C181.243 149.831 181.243 146.33 184.958 144.142Z" fill="#E5ECF8"/>
<path d="M296.397 146.385L296.233 201.197C296.233 202.619 295.304 204.042 293.393 205.136L293.556 150.323C295.414 149.229 296.397 147.807 296.397 146.385Z" fill="#CAD2DD"/>
<path d="M182.174 148.08C182.174 149.503 183.102 150.87 184.96 151.964L184.796 206.776C182.938 205.682 182.01 204.315 182.01 202.893L182.174 148.08Z" fill="#94A0B4"/>
<path d="M244.393 178.769L244.229 233.582C240.514 235.715 234.451 235.715 230.736 233.582L230.9 178.769C234.615 180.903 240.624 180.903 244.393 178.769Z" fill="#ADB6C4"/>
<path d="M289.679 165.038L249.256 188.396V182.434L289.679 159.075V165.038Z" fill="#00A1D4"/>
<path d="M289.679 176.034L249.256 199.392V193.43L289.679 170.072V176.034Z" fill="#00A1D4"/>
<path d="M289.679 200.65L249.256 224.008V204.479L289.679 181.067V200.65Z" fill="#00A1D4"/>
<path d="M187.475 159.787V201.361L227.898 224.719V183.145L187.475 159.787Z" fill="#007296"/>
<path d="M273.567 146.002L239.207 165.859L204.848 146.002L239.207 126.145L273.567 146.002Z" fill="#017296"/>
<defs>
<linearGradient id="paint0_linear_496_30061" x1="230.299" y1="190.749" x2="244.775" y2="190.749" gradientUnits="userSpaceOnUse">
<stop offset="0.4" stop-color="#A2ACBD"/>
<stop offset="0.58" stop-color="#BBC2CD"/>
</linearGradient>
</defs>
</svg>
